<?xml version="1.0" encoding="utf-8" standalone="no"?>
<!DOCTYPE svg PUBLIC "-//W3C//DTD SVG 1.1//EN"
  "http://www.w3.org/Graphics/SVG/1.1/DTD/svg11.dtd">
<svg xmlns:xlink="http://www.w3.org/1999/xlink" width="855.232405pt" height="330.386813pt" viewBox="0 0 855.232405 330.386813" xmlns="http://www.w3.org/2000/svg" version="1.1">
 <metadata>
  <rdf:RDF xmlns:dc="http://purl.org/dc/elements/1.1/" xmlns:cc="http://creativecommons.org/ns#" xmlns:rdf="http://www.w3.org/1999/02/22-rdf-syntax-ns#">
   <cc:Work>
    <dc:type rdf:resource="http://purl.org/dc/dcmitype/StillImage"/>
    <dc:date>2026-06-12T17:18:54.016334</dc:date>
    <dc:format>image/svg+xml</dc:format>
    <dc:creator>
     <cc:Agent>
      <dc:title>Matplotlib v3.10.8, https://matplotlib.org/</dc:title>
     </cc:Agent>
    </dc:creator>
   </cc:Work>
  </rdf:RDF>
 </metadata>
 <defs>
  <style type="text/css">*{stroke-linejoin: round; stroke-linecap: butt}</style>
 </defs>
 <g id="figure_1">
  <g id="patch_1">
   <path d="M 0 330.386813 
L 855.232405 330.386813 
L 855.232405 0 
L 0 0 
z
"/>
  </g>
  <g id="axes_1">
   <g id="patch_2">
    <path d="M 58.446875 293.657125 
L 424.840392 293.657125 
L 424.840392 62.350875 
L 58.446875 62.350875 
z
"/>
   </g>
   <g id="matplotlib.axis_1">
    <g id="xtick_1">
     <g id="line2d_1">
      <path d="M 67.759671 293.657125 
L 67.759671 62.350875 
" clip-path="url(#p4ad4e2d1ec)" style="fill: none; stroke: #ffffff; stroke-opacity: 0.25; stroke-width: 0.8; stroke-linecap: round"/>
     </g>
     <g id="text_1">
      <!-- −0.15 -->
      <g style="fill: #ffffff" transform="translate(55.10889 307.814938) scale(0.1 -0.1)">
       <defs>
        <path id="ArialMT-2212" d="M 3381 1997 
L 356 1997 
L 356 2522 
L 3381 2522 
L 3381 1997 
z
" transform="scale(0.015625)"/>
        <path id="ArialMT-30" d="M 266 2259 
Q 266 3072 433 3567 
Q 600 4063 929 4331 
Q 1259 4600 1759 4600 
Q 2128 4600 2406 4451 
Q 2684 4303 2865 4023 
Q 3047 3744 3150 3342 
Q 3253 2941 3253 2259 
Q 3253 1453 3087 958 
Q 2922 463 2592 192 
Q 2263 -78 1759 -78 
Q 1097 -78 719 397 
Q 266 969 266 2259 
z
M 844 2259 
Q 844 1131 1108 757 
Q 1372 384 1759 384 
Q 2147 384 2411 759 
Q 2675 1134 2675 2259 
Q 2675 3391 2411 3762 
Q 2147 4134 1753 4134 
Q 1366 4134 1134 3806 
Q 844 3388 844 2259 
z
" transform="scale(0.015625)"/>
        <path id="ArialMT-2e" d="M 581 0 
L 581 641 
L 1222 641 
L 1222 0 
L 581 0 
z
" transform="scale(0.015625)"/>
        <path id="ArialMT-31" d="M 2384 0 
L 1822 0 
L 1822 3584 
Q 1619 3391 1289 3197 
Q 959 3003 697 2906 
L 697 3450 
Q 1169 3672 1522 3987 
Q 1875 4303 2022 4600 
L 2384 4600 
L 2384 0 
z
" transform="scale(0.015625)"/>
        <path id="ArialMT-35" d="M 266 1200 
L 856 1250 
Q 922 819 1161 601 
Q 1400 384 1738 384 
Q 2144 384 2425 690 
Q 2706 997 2706 1503 
Q 2706 1984 2436 2262 
Q 2166 2541 1728 2541 
Q 1456 2541 1237 2417 
Q 1019 2294 894 2097 
L 366 2166 
L 809 4519 
L 3088 4519 
L 3088 3981 
L 1259 3981 
L 1013 2750 
Q 1425 3038 1878 3038 
Q 2478 3038 2890 2622 
Q 3303 2206 3303 1553 
Q 3303 931 2941 478 
Q 2500 -78 1738 -78 
Q 1113 -78 717 272 
Q 322 622 266 1200 
z
" transform="scale(0.015625)"/>
       </defs>
       <use xlink:href="#ArialMT-2212"/>
       <use xlink:href="#ArialMT-30" transform="translate(58.398438 0)"/>
       <use xlink:href="#ArialMT-2e" transform="translate(114.013672 0)"/>
       <use xlink:href="#ArialMT-31" transform="translate(141.796875 0)"/>
       <use xlink:href="#ArialMT-35" transform="translate(197.412109 0)"/>
      </g>
     </g>
    </g>
    <g id="xtick_2">
     <g id="line2d_2">
      <path d="M 134.225582 293.657125 
L 134.225582 62.350875 
" clip-path="url(#p4ad4e2d1ec)" style="fill: none; stroke: #ffffff; stroke-opacity: 0.25; stroke-width: 0.8; stroke-linecap: round"/>
     </g>
     <g id="text_2">
      <!-- −0.10 -->
      <g style="fill: #ffffff" transform="translate(121.574801 307.814938) scale(0.1 -0.1)">
       <use xlink:href="#ArialMT-2212"/>
       <use xlink:href="#ArialMT-30" transform="translate(58.398438 0)"/>
       <use xlink:href="#ArialMT-2e" transform="translate(114.013672 0)"/>
       <use xlink:href="#ArialMT-31" transform="translate(141.796875 0)"/>
       <use xlink:href="#ArialMT-30" transform="translate(197.412109 0)"/>
      </g>
     </g>
    </g>
    <g id="xtick_3">
     <g id="line2d_3">
      <path d="M 200.691494 293.657125 
L 200.691494 62.350875 
" clip-path="url(#p4ad4e2d1ec)" style="fill: none; stroke: #ffffff; stroke-opacity: 0.25; stroke-width: 0.8; stroke-linecap: round"/>
     </g>
     <g id="text_3">
      <!-- −0.05 -->
      <g style="fill: #ffffff" transform="translate(188.040712 307.814938) scale(0.1 -0.1)">
       <use xlink:href="#ArialMT-2212"/>
       <use xlink:href="#ArialMT-30" transform="translate(58.398438 0)"/>
       <use xlink:href="#ArialMT-2e" transform="translate(114.013672 0)"/>
       <use xlink:href="#ArialMT-30" transform="translate(141.796875 0)"/>
       <use xlink:href="#ArialMT-35" transform="translate(197.412109 0)"/>
      </g>
     </g>
    </g>
    <g id="xtick_4">
     <g id="line2d_4">
      <path d="M 267.157405 293.657125 
L 267.157405 62.350875 
" clip-path="url(#p4ad4e2d1ec)" style="fill: none; stroke: #ffffff; stroke-opacity: 0.25; stroke-width: 0.8; stroke-linecap: round"/>
     </g>
     <g id="text_4">
      <!-- 0.00 -->
      <g style="fill: #ffffff" transform="translate(257.426936 307.814938) scale(0.1 -0.1)">
       <use xlink:href="#ArialMT-30"/>
       <use xlink:href="#ArialMT-2e" transform="translate(55.615234 0)"/>
       <use xlink:href="#ArialMT-30" transform="translate(83.398438 0)"/>
       <use xlink:href="#ArialMT-30" transform="translate(139.013672 0)"/>
      </g>
     </g>
    </g>
    <g id="xtick_5">
     <g id="line2d_5">
      <path d="M 333.623316 293.657125 
L 333.623316 62.350875 
" clip-path="url(#p4ad4e2d1ec)" style="fill: none; stroke: #ffffff; stroke-opacity: 0.25; stroke-width: 0.8; stroke-linecap: round"/>
     </g>
     <g id="text_5">
      <!-- 0.05 -->
      <g style="fill: #ffffff" transform="translate(323.892847 307.814938) scale(0.1 -0.1)">
       <use xlink:href="#ArialMT-30"/>
       <use xlink:href="#ArialMT-2e" transform="translate(55.615234 0)"/>
       <use xlink:href="#ArialMT-30" transform="translate(83.398438 0)"/>
       <use xlink:href="#ArialMT-35" transform="translate(139.013672 0)"/>
      </g>
     </g>
    </g>
    <g id="xtick_6">
     <g id="line2d_6">
      <path d="M 400.089227 293.657125 
L 400.089227 62.350875 
" clip-path="url(#p4ad4e2d1ec)" style="fill: none; stroke: #ffffff; stroke-opacity: 0.25; stroke-width: 0.8; stroke-linecap: round"/>
     </g>
     <g id="text_6">
      <!-- 0.10 -->
      <g style="fill: #ffffff" transform="translate(390.358759 307.814938) scale(0.1 -0.1)">
       <use xlink:href="#ArialMT-30"/>
       <use xlink:href="#ArialMT-2e" transform="translate(55.615234 0)"/>
       <use xlink:href="#ArialMT-31" transform="translate(83.398438 0)"/>
       <use xlink:href="#ArialMT-30" transform="translate(139.013672 0)"/>
      </g>
     </g>
    </g>
    <g id="text_7">
     <!-- Log leave-one-out revenue/trip (demeaned) -->
     <g style="fill: #ffffff" transform="translate(145.202227 321.082125) scale(0.1 -0.1)">
      <defs>
       <path id="ArialMT-4c" d="M 469 0 
L 469 4581 
L 1075 4581 
L 1075 541 
L 3331 541 
L 3331 0 
L 469 0 
z
" transform="scale(0.015625)"/>
       <path id="ArialMT-6f" d="M 213 1659 
Q 213 2581 725 3025 
Q 1153 3394 1769 3394 
Q 2453 3394 2887 2945 
Q 3322 2497 3322 1706 
Q 3322 1066 3130 698 
Q 2938 331 2570 128 
Q 2203 -75 1769 -75 
Q 1072 -75 642 372 
Q 213 819 213 1659 
z
M 791 1659 
Q 791 1022 1069 705 
Q 1347 388 1769 388 
Q 2188 388 2466 706 
Q 2744 1025 2744 1678 
Q 2744 2294 2464 2611 
Q 2184 2928 1769 2928 
Q 1347 2928 1069 2612 
Q 791 2297 791 1659 
z
" transform="scale(0.015625)"/>
       <path id="ArialMT-67" d="M 319 -275 
L 866 -356 
Q 900 -609 1056 -725 
Q 1266 -881 1628 -881 
Q 2019 -881 2231 -725 
Q 2444 -569 2519 -288 
Q 2563 -116 2559 434 
Q 2191 0 1641 0 
Q 956 0 581 494 
Q 206 988 206 1678 
Q 206 2153 378 2554 
Q 550 2956 876 3175 
Q 1203 3394 1644 3394 
Q 2231 3394 2613 2919 
L 2613 3319 
L 3131 3319 
L 3131 450 
Q 3131 -325 2973 -648 
Q 2816 -972 2473 -1159 
Q 2131 -1347 1631 -1347 
Q 1038 -1347 672 -1080 
Q 306 -813 319 -275 
z
M 784 1719 
Q 784 1066 1043 766 
Q 1303 466 1694 466 
Q 2081 466 2343 764 
Q 2606 1063 2606 1700 
Q 2606 2309 2336 2618 
Q 2066 2928 1684 2928 
Q 1309 2928 1046 2623 
Q 784 2319 784 1719 
z
" transform="scale(0.015625)"/>
       <path id="ArialMT-20" transform="scale(0.015625)"/>
       <path id="ArialMT-6c" d="M 409 0 
L 409 4581 
L 972 4581 
L 972 0 
L 409 0 
z
" transform="scale(0.015625)"/>
       <path id="ArialMT-65" d="M 2694 1069 
L 3275 997 
Q 3138 488 2766 206 
Q 2394 -75 1816 -75 
Q 1088 -75 661 373 
Q 234 822 234 1631 
Q 234 2469 665 2931 
Q 1097 3394 1784 3394 
Q 2450 3394 2872 2941 
Q 3294 2488 3294 1666 
Q 3294 1616 3291 1516 
L 816 1516 
Q 847 969 1125 678 
Q 1403 388 1819 388 
Q 2128 388 2347 550 
Q 2566 713 2694 1069 
z
M 847 1978 
L 2700 1978 
Q 2663 2397 2488 2606 
Q 2219 2931 1791 2931 
Q 1403 2931 1139 2672 
Q 875 2413 847 1978 
z
" transform="scale(0.015625)"/>
       <path id="ArialMT-61" d="M 2588 409 
Q 2275 144 1986 34 
Q 1697 -75 1366 -75 
Q 819 -75 525 192 
Q 231 459 231 875 
Q 231 1119 342 1320 
Q 453 1522 633 1644 
Q 813 1766 1038 1828 
Q 1203 1872 1538 1913 
Q 2219 1994 2541 2106 
Q 2544 2222 2544 2253 
Q 2544 2597 2384 2738 
Q 2169 2928 1744 2928 
Q 1347 2928 1158 2789 
Q 969 2650 878 2297 
L 328 2372 
Q 403 2725 575 2942 
Q 747 3159 1072 3276 
Q 1397 3394 1825 3394 
Q 2250 3394 2515 3294 
Q 2781 3194 2906 3042 
Q 3031 2891 3081 2659 
Q 3109 2516 3109 2141 
L 3109 1391 
Q 3109 606 3145 398 
Q 3181 191 3288 0 
L 2700 0 
Q 2613 175 2588 409 
z
M 2541 1666 
Q 2234 1541 1622 1453 
Q 1275 1403 1131 1340 
Q 988 1278 909 1158 
Q 831 1038 831 891 
Q 831 666 1001 516 
Q 1172 366 1500 366 
Q 1825 366 2078 508 
Q 2331 650 2450 897 
Q 2541 1088 2541 1459 
L 2541 1666 
z
" transform="scale(0.015625)"/>
       <path id="ArialMT-76" d="M 1344 0 
L 81 3319 
L 675 3319 
L 1388 1331 
Q 1503 1009 1600 663 
Q 1675 925 1809 1294 
L 2547 3319 
L 3125 3319 
L 1869 0 
L 1344 0 
z
" transform="scale(0.015625)"/>
       <path id="ArialMT-2d" d="M 203 1375 
L 203 1941 
L 1931 1941 
L 1931 1375 
L 203 1375 
z
" transform="scale(0.015625)"/>
       <path id="ArialMT-6e" d="M 422 0 
L 422 3319 
L 928 3319 
L 928 2847 
Q 1294 3394 1984 3394 
Q 2284 3394 2536 3286 
Q 2788 3178 2913 3003 
Q 3038 2828 3088 2588 
Q 3119 2431 3119 2041 
L 3119 0 
L 2556 0 
L 2556 2019 
Q 2556 2363 2490 2533 
Q 2425 2703 2258 2804 
Q 2091 2906 1866 2906 
Q 1506 2906 1245 2678 
Q 984 2450 984 1813 
L 984 0 
L 422 0 
z
" transform="scale(0.015625)"/>
       <path id="ArialMT-75" d="M 2597 0 
L 2597 488 
Q 2209 -75 1544 -75 
Q 1250 -75 995 37 
Q 741 150 617 320 
Q 494 491 444 738 
Q 409 903 409 1263 
L 409 3319 
L 972 3319 
L 972 1478 
Q 972 1038 1006 884 
Q 1059 663 1231 536 
Q 1403 409 1656 409 
Q 1909 409 2131 539 
Q 2353 669 2445 892 
Q 2538 1116 2538 1541 
L 2538 3319 
L 3100 3319 
L 3100 0 
L 2597 0 
z
" transform="scale(0.015625)"/>
       <path id="ArialMT-74" d="M 1650 503 
L 1731 6 
Q 1494 -44 1306 -44 
Q 1000 -44 831 53 
Q 663 150 594 308 
Q 525 466 525 972 
L 525 2881 
L 113 2881 
L 113 3319 
L 525 3319 
L 525 4141 
L 1084 4478 
L 1084 3319 
L 1650 3319 
L 1650 2881 
L 1084 2881 
L 1084 941 
Q 1084 700 1114 631 
Q 1144 563 1211 522 
Q 1278 481 1403 481 
Q 1497 481 1650 503 
z
" transform="scale(0.015625)"/>
       <path id="ArialMT-72" d="M 416 0 
L 416 3319 
L 922 3319 
L 922 2816 
Q 1116 3169 1280 3281 
Q 1444 3394 1641 3394 
Q 1925 3394 2219 3213 
L 2025 2691 
Q 1819 2813 1613 2813 
Q 1428 2813 1281 2702 
Q 1134 2591 1072 2394 
Q 978 2094 978 1738 
L 978 0 
L 416 0 
z
" transform="scale(0.015625)"/>
       <path id="ArialMT-2f" d="M 0 -78 
L 1328 4659 
L 1778 4659 
L 453 -78 
L 0 -78 
z
" transform="scale(0.015625)"/>
       <path id="ArialMT-69" d="M 425 3934 
L 425 4581 
L 988 4581 
L 988 3934 
L 425 3934 
z
M 425 0 
L 425 3319 
L 988 3319 
L 988 0 
L 425 0 
z
" transform="scale(0.015625)"/>
       <path id="ArialMT-70" d="M 422 -1272 
L 422 3319 
L 934 3319 
L 934 2888 
Q 1116 3141 1344 3267 
Q 1572 3394 1897 3394 
Q 2322 3394 2647 3175 
Q 2972 2956 3137 2557 
Q 3303 2159 3303 1684 
Q 3303 1175 3120 767 
Q 2938 359 2589 142 
Q 2241 -75 1856 -75 
Q 1575 -75 1351 44 
Q 1128 163 984 344 
L 984 -1272 
L 422 -1272 
z
M 931 1641 
Q 931 1000 1190 694 
Q 1450 388 1819 388 
Q 2194 388 2461 705 
Q 2728 1022 2728 1688 
Q 2728 2322 2467 2637 
Q 2206 2953 1844 2953 
Q 1484 2953 1207 2617 
Q 931 2281 931 1641 
z
" transform="scale(0.015625)"/>
       <path id="ArialMT-28" d="M 1497 -1347 
Q 1031 -759 709 28 
Q 388 816 388 1659 
Q 388 2403 628 3084 
Q 909 3875 1497 4659 
L 1900 4659 
Q 1522 4009 1400 3731 
Q 1209 3300 1100 2831 
Q 966 2247 966 1656 
Q 966 153 1900 -1347 
L 1497 -1347 
z
" transform="scale(0.015625)"/>
       <path id="ArialMT-64" d="M 2575 0 
L 2575 419 
Q 2259 -75 1647 -75 
Q 1250 -75 917 144 
Q 584 363 401 755 
Q 219 1147 219 1656 
Q 219 2153 384 2558 
Q 550 2963 881 3178 
Q 1213 3394 1622 3394 
Q 1922 3394 2156 3267 
Q 2391 3141 2538 2938 
L 2538 4581 
L 3097 4581 
L 3097 0 
L 2575 0 
z
M 797 1656 
Q 797 1019 1065 703 
Q 1334 388 1700 388 
Q 2069 388 2326 689 
Q 2584 991 2584 1609 
Q 2584 2291 2321 2609 
Q 2059 2928 1675 2928 
Q 1300 2928 1048 2622 
Q 797 2316 797 1656 
z
" transform="scale(0.015625)"/>
       <path id="ArialMT-6d" d="M 422 0 
L 422 3319 
L 925 3319 
L 925 2853 
Q 1081 3097 1340 3245 
Q 1600 3394 1931 3394 
Q 2300 3394 2536 3241 
Q 2772 3088 2869 2813 
Q 3263 3394 3894 3394 
Q 4388 3394 4653 3120 
Q 4919 2847 4919 2278 
L 4919 0 
L 4359 0 
L 4359 2091 
Q 4359 2428 4304 2576 
Q 4250 2725 4106 2815 
Q 3963 2906 3769 2906 
Q 3419 2906 3187 2673 
Q 2956 2441 2956 1928 
L 2956 0 
L 2394 0 
L 2394 2156 
Q 2394 2531 2256 2718 
Q 2119 2906 1806 2906 
Q 1569 2906 1367 2781 
Q 1166 2656 1075 2415 
Q 984 2175 984 1722 
L 984 0 
L 422 0 
z
" transform="scale(0.015625)"/>
       <path id="ArialMT-29" d="M 791 -1347 
L 388 -1347 
Q 1322 153 1322 1656 
Q 1322 2244 1188 2822 
Q 1081 3291 891 3722 
Q 769 4003 388 4659 
L 791 4659 
Q 1378 3875 1659 3084 
Q 1900 2403 1900 1659 
Q 1900 816 1576 28 
Q 1253 -759 791 -1347 
z
" transform="scale(0.015625)"/>
      </defs>
      <use xlink:href="#ArialMT-4c"/>
      <use xlink:href="#ArialMT-6f" transform="translate(55.615234 0)"/>
      <use xlink:href="#ArialMT-67" transform="translate(111.230469 0)"/>
      <use xlink:href="#ArialMT-20" transform="translate(166.845703 0)"/>
      <use xlink:href="#ArialMT-6c" transform="translate(194.628906 0)"/>
      <use xlink:href="#ArialMT-65" transform="translate(216.845703 0)"/>
      <use xlink:href="#ArialMT-61" transform="translate(272.460938 0)"/>
      <use xlink:href="#ArialMT-76" transform="translate(328.076172 0)"/>
      <use xlink:href="#ArialMT-65" transform="translate(378.076172 0)"/>
      <use xlink:href="#ArialMT-2d" transform="translate(433.691406 0)"/>
      <use xlink:href="#ArialMT-6f" transform="translate(466.992188 0)"/>
      <use xlink:href="#ArialMT-6e" transform="translate(522.607422 0)"/>
      <use xlink:href="#ArialMT-65" transform="translate(578.222656 0)"/>
      <use xlink:href="#ArialMT-2d" transform="translate(633.837891 0)"/>
      <use xlink:href="#ArialMT-6f" transform="translate(667.138672 0)"/>
      <use xlink:href="#ArialMT-75" transform="translate(722.753906 0)"/>
      <use xlink:href="#ArialMT-74" transform="translate(778.369141 0)"/>
      <use xlink:href="#ArialMT-20" transform="translate(806.152344 0)"/>
      <use xlink:href="#ArialMT-72" transform="translate(833.935547 0)"/>
      <use xlink:href="#ArialMT-65" transform="translate(867.236328 0)"/>
      <use xlink:href="#ArialMT-76" transform="translate(922.851562 0)"/>
      <use xlink:href="#ArialMT-65" transform="translate(972.851562 0)"/>
      <use xlink:href="#ArialMT-6e" transform="translate(1028.466797 0)"/>
      <use xlink:href="#ArialMT-75" transform="translate(1084.082031 0)"/>
      <use xlink:href="#ArialMT-65" transform="translate(1139.697266 0)"/>
      <use xlink:href="#ArialMT-2f" transform="translate(1195.3125 0)"/>
      <use xlink:href="#ArialMT-74" transform="translate(1223.095703 0)"/>
      <use xlink:href="#ArialMT-72" transform="translate(1250.878906 0)"/>
      <use xlink:href="#ArialMT-69" transform="translate(1284.179688 0)"/>
      <use xlink:href="#ArialMT-70" transform="translate(1306.396484 0)"/>
      <use xlink:href="#ArialMT-20" transform="translate(1362.011719 0)"/>
      <use xlink:href="#ArialMT-28" transform="translate(1389.794922 0)"/>
      <use xlink:href="#ArialMT-64" transform="translate(1423.095703 0)"/>
      <use xlink:href="#ArialMT-65" transform="translate(1478.710938 0)"/>
      <use xlink:href="#ArialMT-6d" transform="translate(1534.326172 0)"/>
      <use xlink:href="#ArialMT-65" transform="translate(1617.626953 0)"/>
      <use xlink:href="#ArialMT-61" transform="translate(1673.242188 0)"/>
      <use xlink:href="#ArialMT-6e" transform="translate(1728.857422 0)"/>
      <use xlink:href="#ArialMT-65" transform="translate(1784.472656 0)"/>
      <use xlink:href="#ArialMT-64" transform="translate(1840.087891 0)"/>
      <use xlink:href="#ArialMT-29" transform="translate(1895.703125 0)"/>
     </g>
    </g>
   </g>
   <g id="matplotlib.axis_2">
    <g id="ytick_1">
     <g id="line2d_7">
      <path d="M 58.446875 277.306075 
L 424.840392 277.306075 
" clip-path="url(#p4ad4e2d1ec)" style="fill: none; stroke: #ffffff; stroke-opacity: 0.25; stroke-width: 0.8; stroke-linecap: round"/>
     </g>
     <g id="text_8">
      <!-- −0.100 -->
      <g style="fill: #ffffff" transform="translate(20.584375 280.884982) scale(0.1 -0.1)">
       <use xlink:href="#ArialMT-2212"/>
       <use xlink:href="#ArialMT-30" transform="translate(58.398438 0)"/>
       <use xlink:href="#ArialMT-2e" transform="translate(114.013672 0)"/>
       <use xlink:href="#ArialMT-31" transform="translate(141.796875 0)"/>
       <use xlink:href="#ArialMT-30" transform="translate(197.412109 0)"/>
       <use xlink:href="#ArialMT-30" transform="translate(253.027344 0)"/>
      </g>
     </g>
    </g>
    <g id="ytick_2">
     <g id="line2d_8">
      <path d="M 58.446875 248.990693 
L 424.840392 248.990693 
" clip-path="url(#p4ad4e2d1ec)" style="fill: none; stroke: #ffffff; stroke-opacity: 0.25; stroke-width: 0.8; stroke-linecap: round"/>
     </g>
     <g id="text_9">
      <!-- −0.075 -->
      <g style="fill: #ffffff" transform="translate(20.584375 252.569599) scale(0.1 -0.1)">
       <defs>
        <path id="ArialMT-37" d="M 303 3981 
L 303 4522 
L 3269 4522 
L 3269 4084 
Q 2831 3619 2401 2847 
Q 1972 2075 1738 1259 
Q 1569 684 1522 0 
L 944 0 
Q 953 541 1156 1306 
Q 1359 2072 1739 2783 
Q 2119 3494 2547 3981 
L 303 3981 
z
" transform="scale(0.015625)"/>
       </defs>
       <use xlink:href="#ArialMT-2212"/>
       <use xlink:href="#ArialMT-30" transform="translate(58.398438 0)"/>
       <use xlink:href="#ArialMT-2e" transform="translate(114.013672 0)"/>
       <use xlink:href="#ArialMT-30" transform="translate(141.796875 0)"/>
       <use xlink:href="#ArialMT-37" transform="translate(197.412109 0)"/>
       <use xlink:href="#ArialMT-35" transform="translate(253.027344 0)"/>
      </g>
     </g>
    </g>
    <g id="ytick_3">
     <g id="line2d_9">
      <path d="M 58.446875 220.67531 
L 424.840392 220.67531 
" clip-path="url(#p4ad4e2d1ec)" style="fill: none; stroke: #ffffff; stroke-opacity: 0.25; stroke-width: 0.8; stroke-linecap: round"/>
     </g>
     <g id="text_10">
      <!-- −0.050 -->
      <g style="fill: #ffffff" transform="translate(20.584375 224.254216) scale(0.1 -0.1)">
       <use xlink:href="#ArialMT-2212"/>
       <use xlink:href="#ArialMT-30" transform="translate(58.398438 0)"/>
       <use xlink:href="#ArialMT-2e" transform="translate(114.013672 0)"/>
       <use xlink:href="#ArialMT-30" transform="translate(141.796875 0)"/>
       <use xlink:href="#ArialMT-35" transform="translate(197.412109 0)"/>
       <use xlink:href="#ArialMT-30" transform="translate(253.027344 0)"/>
      </g>
     </g>
    </g>
    <g id="ytick_4">
     <g id="line2d_10">
      <path d="M 58.446875 192.359927 
L 424.840392 192.359927 
" clip-path="url(#p4ad4e2d1ec)" style="fill: none; stroke: #ffffff; stroke-opacity: 0.25; stroke-width: 0.8; stroke-linecap: round"/>
     </g>
     <g id="text_11">
      <!-- −0.025 -->
      <g style="fill: #ffffff" transform="translate(20.584375 195.938833) scale(0.1 -0.1)">
       <defs>
        <path id="ArialMT-32" d="M 3222 541 
L 3222 0 
L 194 0 
Q 188 203 259 391 
Q 375 700 629 1000 
Q 884 1300 1366 1694 
Q 2113 2306 2375 2664 
Q 2638 3022 2638 3341 
Q 2638 3675 2398 3904 
Q 2159 4134 1775 4134 
Q 1369 4134 1125 3890 
Q 881 3647 878 3216 
L 300 3275 
Q 359 3922 746 4261 
Q 1134 4600 1788 4600 
Q 2447 4600 2831 4234 
Q 3216 3869 3216 3328 
Q 3216 3053 3103 2787 
Q 2991 2522 2730 2228 
Q 2469 1934 1863 1422 
Q 1356 997 1212 845 
Q 1069 694 975 541 
L 3222 541 
z
" transform="scale(0.015625)"/>
       </defs>
       <use xlink:href="#ArialMT-2212"/>
       <use xlink:href="#ArialMT-30" transform="translate(58.398438 0)"/>
       <use xlink:href="#ArialMT-2e" transform="translate(114.013672 0)"/>
       <use xlink:href="#ArialMT-30" transform="translate(141.796875 0)"/>
       <use xlink:href="#ArialMT-32" transform="translate(197.412109 0)"/>
       <use xlink:href="#ArialMT-35" transform="translate(253.027344 0)"/>
      </g>
     </g>
    </g>
    <g id="ytick_5">
     <g id="line2d_11">
      <path d="M 58.446875 164.044544 
L 424.840392 164.044544 
" clip-path="url(#p4ad4e2d1ec)" style="fill: none; stroke: #ffffff; stroke-opacity: 0.25; stroke-width: 0.8; stroke-linecap: round"/>
     </g>
     <g id="text_12">
      <!-- 0.000 -->
      <g style="fill: #ffffff" transform="translate(26.425 167.62345) scale(0.1 -0.1)">
       <use xlink:href="#ArialMT-30"/>
       <use xlink:href="#ArialMT-2e" transform="translate(55.615234 0)"/>
       <use xlink:href="#ArialMT-30" transform="translate(83.398438 0)"/>
       <use xlink:href="#ArialMT-30" transform="translate(139.013672 0)"/>
       <use xlink:href="#ArialMT-30" transform="translate(194.628906 0)"/>
      </g>
     </g>
    </g>
    <g id="ytick_6">
     <g id="line2d_12">
      <path d="M 58.446875 135.729161 
L 424.840392 135.729161 
" clip-path="url(#p4ad4e2d1ec)" style="fill: none; stroke: #ffffff; stroke-opacity: 0.25; stroke-width: 0.8; stroke-linecap: round"/>
     </g>
     <g id="text_13">
      <!-- 0.025 -->
      <g style="fill: #ffffff" transform="translate(26.425 139.308067) scale(0.1 -0.1)">
       <use xlink:href="#ArialMT-30"/>
       <use xlink:href="#ArialMT-2e" transform="translate(55.615234 0)"/>
       <use xlink:href="#ArialMT-30" transform="translate(83.398438 0)"/>
       <use xlink:href="#ArialMT-32" transform="translate(139.013672 0)"/>
       <use xlink:href="#ArialMT-35" transform="translate(194.628906 0)"/>
      </g>
     </g>
    </g>
    <g id="ytick_7">
     <g id="line2d_13">
      <path d="M 58.446875 107.413778 
L 424.840392 107.413778 
" clip-path="url(#p4ad4e2d1ec)" style="fill: none; stroke: #ffffff; stroke-opacity: 0.25; stroke-width: 0.8; stroke-linecap: round"/>
     </g>
     <g id="text_14">
      <!-- 0.050 -->
      <g style="fill: #ffffff" transform="translate(26.425 110.992684) scale(0.1 -0.1)">
       <use xlink:href="#ArialMT-30"/>
       <use xlink:href="#ArialMT-2e" transform="translate(55.615234 0)"/>
       <use xlink:href="#ArialMT-30" transform="translate(83.398438 0)"/>
       <use xlink:href="#ArialMT-35" transform="translate(139.013672 0)"/>
       <use xlink:href="#ArialMT-30" transform="translate(194.628906 0)"/>
      </g>
     </g>
    </g>
    <g id="ytick_8">
     <g id="line2d_14">
      <path d="M 58.446875 79.098395 
L 424.840392 79.098395 
" clip-path="url(#p4ad4e2d1ec)" style="fill: none; stroke: #ffffff; stroke-opacity: 0.25; stroke-width: 0.8; stroke-linecap: round"/>
     </g>
     <g id="text_15">
      <!-- 0.075 -->
      <g style="fill: #ffffff" transform="translate(26.425 82.677302) scale(0.1 -0.1)">
       <use xlink:href="#ArialMT-30"/>
       <use xlink:href="#ArialMT-2e" transform="translate(55.615234 0)"/>
       <use xlink:href="#ArialMT-30" transform="translate(83.398438 0)"/>
       <use xlink:href="#ArialMT-37" transform="translate(139.013672 0)"/>
       <use xlink:href="#ArialMT-35" transform="translate(194.628906 0)"/>
      </g>
     </g>
    </g>
    <g id="text_16">
     <!-- Log own revenue/trip (demeaned) -->
     <g style="fill: #ffffff" transform="translate(14.479687 253.043844) rotate(-90) scale(0.1 -0.1)">
      <defs>
       <path id="ArialMT-77" d="M 1034 0 
L 19 3319 
L 600 3319 
L 1128 1403 
L 1325 691 
Q 1338 744 1497 1375 
L 2025 3319 
L 2603 3319 
L 3100 1394 
L 3266 759 
L 3456 1400 
L 4025 3319 
L 4572 3319 
L 3534 0 
L 2950 0 
L 2422 1988 
L 2294 2553 
L 1622 0 
L 1034 0 
z
" transform="scale(0.015625)"/>
      </defs>
      <use xlink:href="#ArialMT-4c"/>
      <use xlink:href="#ArialMT-6f" transform="translate(55.615234 0)"/>
      <use xlink:href="#ArialMT-67" transform="translate(111.230469 0)"/>
      <use xlink:href="#ArialMT-20" transform="translate(166.845703 0)"/>
      <use xlink:href="#ArialMT-6f" transform="translate(194.628906 0)"/>
      <use xlink:href="#ArialMT-77" transform="translate(250.244141 0)"/>
      <use xlink:href="#ArialMT-6e" transform="translate(322.460938 0)"/>
      <use xlink:href="#ArialMT-20" transform="translate(378.076172 0)"/>
      <use xlink:href="#ArialMT-72" transform="translate(405.859375 0)"/>
      <use xlink:href="#ArialMT-65" transform="translate(439.160156 0)"/>
      <use xlink:href="#ArialMT-76" transform="translate(494.775391 0)"/>
      <use xlink:href="#ArialMT-65" transform="translate(544.775391 0)"/>
      <use xlink:href="#ArialMT-6e" transform="translate(600.390625 0)"/>
      <use xlink:href="#ArialMT-75" transform="translate(656.005859 0)"/>
      <use xlink:href="#ArialMT-65" transform="translate(711.621094 0)"/>
      <use xlink:href="#ArialMT-2f" transform="translate(767.236328 0)"/>
      <use xlink:href="#ArialMT-74" transform="translate(795.019531 0)"/>
      <use xlink:href="#ArialMT-72" transform="translate(822.802734 0)"/>
      <use xlink:href="#ArialMT-69" transform="translate(856.103516 0)"/>
      <use xlink:href="#ArialMT-70" transform="translate(878.320312 0)"/>
      <use xlink:href="#ArialMT-20" transform="translate(933.935547 0)"/>
      <use xlink:href="#ArialMT-28" transform="translate(961.71875 0)"/>
      <use xlink:href="#ArialMT-64" transform="translate(995.019531 0)"/>
      <use xlink:href="#ArialMT-65" transform="translate(1050.634766 0)"/>
      <use xlink:href="#ArialMT-6d" transform="translate(1106.25 0)"/>
      <use xlink:href="#ArialMT-65" transform="translate(1189.550781 0)"/>
      <use xlink:href="#ArialMT-61" transform="translate(1245.166016 0)"/>
      <use xlink:href="#ArialMT-6e" transform="translate(1300.78125 0)"/>
      <use xlink:href="#ArialMT-65" transform="translate(1356.396484 0)"/>
      <use xlink:href="#ArialMT-64" transform="translate(1412.011719 0)"/>
      <use xlink:href="#ArialMT-29" transform="translate(1467.626953 0)"/>
     </g>
    </g>
   </g>
   <g id="PathCollection_1">
    <defs>
     <path id="m2351226ab0" d="M 0 2.345208 
C 0.621956 2.345208 1.218523 2.098102 1.658312 1.658312 
C 2.098102 1.218523 2.345208 0.621956 2.345208 0 
C 2.345208 -0.621956 2.098102 -1.218523 1.658312 -1.658312 
C 1.218523 -2.098102 0.621956 -2.345208 0 -2.345208 
C -0.621956 -2.345208 -1.218523 -2.098102 -1.658312 -1.658312 
C -2.098102 -1.218523 -2.345208 -0.621956 -2.345208 0 
C -2.345208 0.621956 -2.098102 1.218523 -1.658312 1.658312 
C -1.218523 2.098102 -0.621956 2.345208 0 2.345208 
z
" style="stroke: #4682b4; stroke-opacity: 0.9; stroke-width: 0.375233"/>
    </defs>
    <g clip-path="url(#p4ad4e2d1ec)">
     <use xlink:href="#m2351226ab0" x="75.101126" y="283.143205" style="fill: #4682b4; fill-opacity: 0.9; stroke: #4682b4; stroke-opacity: 0.9; stroke-width: 0.375233"/>
     <use xlink:href="#m2351226ab0" x="146.045035" y="237.494014" style="fill: #4682b4; fill-opacity: 0.9; stroke: #4682b4; stroke-opacity: 0.9; stroke-width: 0.375233"/>
     <use xlink:href="#m2351226ab0" x="168.812058" y="220.039248" style="fill: #4682b4; fill-opacity: 0.9; stroke: #4682b4; stroke-opacity: 0.9; stroke-width: 0.375233"/>
     <use xlink:href="#m2351226ab0" x="184.257816" y="221.918458" style="fill: #4682b4; fill-opacity: 0.9; stroke: #4682b4; stroke-opacity: 0.9; stroke-width: 0.375233"/>
     <use xlink:href="#m2351226ab0" x="197.293043" y="193.480378" style="fill: #4682b4; fill-opacity: 0.9; stroke: #4682b4; stroke-opacity: 0.9; stroke-width: 0.375233"/>
     <use xlink:href="#m2351226ab0" x="206.820708" y="197.051097" style="fill: #4682b4; fill-opacity: 0.9; stroke: #4682b4; stroke-opacity: 0.9; stroke-width: 0.375233"/>
     <use xlink:href="#m2351226ab0" x="213.887319" y="193.564558" style="fill: #4682b4; fill-opacity: 0.9; stroke: #4682b4; stroke-opacity: 0.9; stroke-width: 0.375233"/>
     <use xlink:href="#m2351226ab0" x="220.07368" y="193.599315" style="fill: #4682b4; fill-opacity: 0.9; stroke: #4682b4; stroke-opacity: 0.9; stroke-width: 0.375233"/>
     <use xlink:href="#m2351226ab0" x="225.631431" y="190.559708" style="fill: #4682b4; fill-opacity: 0.9; stroke: #4682b4; stroke-opacity: 0.9; stroke-width: 0.375233"/>
     <use xlink:href="#m2351226ab0" x="230.762553" y="179.824392" style="fill: #4682b4; fill-opacity: 0.9; stroke: #4682b4; stroke-opacity: 0.9; stroke-width: 0.375233"/>
     <use xlink:href="#m2351226ab0" x="235.608665" y="174.899318" style="fill: #4682b4; fill-opacity: 0.9; stroke: #4682b4; stroke-opacity: 0.9; stroke-width: 0.375233"/>
     <use xlink:href="#m2351226ab0" x="240.064557" y="178.259045" style="fill: #4682b4; fill-opacity: 0.9; stroke: #4682b4; stroke-opacity: 0.9; stroke-width: 0.375233"/>
     <use xlink:href="#m2351226ab0" x="244.359243" y="176.351902" style="fill: #4682b4; fill-opacity: 0.9; stroke: #4682b4; stroke-opacity: 0.9; stroke-width: 0.375233"/>
     <use xlink:href="#m2351226ab0" x="248.576396" y="176.424383" style="fill: #4682b4; fill-opacity: 0.9; stroke: #4682b4; stroke-opacity: 0.9; stroke-width: 0.375233"/>
     <use xlink:href="#m2351226ab0" x="252.57167" y="170.828153" style="fill: #4682b4; fill-opacity: 0.9; stroke: #4682b4; stroke-opacity: 0.9; stroke-width: 0.375233"/>
     <use xlink:href="#m2351226ab0" x="256.292426" y="165.147292" style="fill: #4682b4; fill-opacity: 0.9; stroke: #4682b4; stroke-opacity: 0.9; stroke-width: 0.375233"/>
     <use xlink:href="#m2351226ab0" x="259.898231" y="164.552648" style="fill: #4682b4; fill-opacity: 0.9; stroke: #4682b4; stroke-opacity: 0.9; stroke-width: 0.375233"/>
     <use xlink:href="#m2351226ab0" x="263.330008" y="169.450134" style="fill: #4682b4; fill-opacity: 0.9; stroke: #4682b4; stroke-opacity: 0.9; stroke-width: 0.375233"/>
     <use xlink:href="#m2351226ab0" x="266.641888" y="161.975417" style="fill: #4682b4; fill-opacity: 0.9; stroke: #4682b4; stroke-opacity: 0.9; stroke-width: 0.375233"/>
     <use xlink:href="#m2351226ab0" x="269.941092" y="156.496538" style="fill: #4682b4; fill-opacity: 0.9; stroke: #4682b4; stroke-opacity: 0.9; stroke-width: 0.375233"/>
     <use xlink:href="#m2351226ab0" x="273.238336" y="156.866172" style="fill: #4682b4; fill-opacity: 0.9; stroke: #4682b4; stroke-opacity: 0.9; stroke-width: 0.375233"/>
     <use xlink:href="#m2351226ab0" x="276.55535" y="158.180054" style="fill: #4682b4; fill-opacity: 0.9; stroke: #4682b4; stroke-opacity: 0.9; stroke-width: 0.375233"/>
     <use xlink:href="#m2351226ab0" x="279.905398" y="158.066924" style="fill: #4682b4; fill-opacity: 0.9; stroke: #4682b4; stroke-opacity: 0.9; stroke-width: 0.375233"/>
     <use xlink:href="#m2351226ab0" x="283.402591" y="156.125328" style="fill: #4682b4; fill-opacity: 0.9; stroke: #4682b4; stroke-opacity: 0.9; stroke-width: 0.375233"/>
     <use xlink:href="#m2351226ab0" x="287.012183" y="151.242891" style="fill: #4682b4; fill-opacity: 0.9; stroke: #4682b4; stroke-opacity: 0.9; stroke-width: 0.375233"/>
     <use xlink:href="#m2351226ab0" x="290.656187" y="152.842714" style="fill: #4682b4; fill-opacity: 0.9; stroke: #4682b4; stroke-opacity: 0.9; stroke-width: 0.375233"/>
     <use xlink:href="#m2351226ab0" x="294.409853" y="146.149259" style="fill: #4682b4; fill-opacity: 0.9; stroke: #4682b4; stroke-opacity: 0.9; stroke-width: 0.375233"/>
     <use xlink:href="#m2351226ab0" x="298.216794" y="142.614601" style="fill: #4682b4; fill-opacity: 0.9; stroke: #4682b4; stroke-opacity: 0.9; stroke-width: 0.375233"/>
     <use xlink:href="#m2351226ab0" x="301.961013" y="138.605778" style="fill: #4682b4; fill-opacity: 0.9; stroke: #4682b4; stroke-opacity: 0.9; stroke-width: 0.375233"/>
     <use xlink:href="#m2351226ab0" x="305.595522" y="137.563817" style="fill: #4682b4; fill-opacity: 0.9; stroke: #4682b4; stroke-opacity: 0.9; stroke-width: 0.375233"/>
     <use xlink:href="#m2351226ab0" x="309.270928" y="135.63427" style="fill: #4682b4; fill-opacity: 0.9; stroke: #4682b4; stroke-opacity: 0.9; stroke-width: 0.375233"/>
     <use xlink:href="#m2351226ab0" x="313.285262" y="145.064362" style="fill: #4682b4; fill-opacity: 0.9; stroke: #4682b4; stroke-opacity: 0.9; stroke-width: 0.375233"/>
     <use xlink:href="#m2351226ab0" x="317.604325" y="142.425772" style="fill: #4682b4; fill-opacity: 0.9; stroke: #4682b4; stroke-opacity: 0.9; stroke-width: 0.375233"/>
     <use xlink:href="#m2351226ab0" x="322.388949" y="141.393781" style="fill: #4682b4; fill-opacity: 0.9; stroke: #4682b4; stroke-opacity: 0.9; stroke-width: 0.375233"/>
     <use xlink:href="#m2351226ab0" x="327.868528" y="129.356609" style="fill: #4682b4; fill-opacity: 0.9; stroke: #4682b4; stroke-opacity: 0.9; stroke-width: 0.375233"/>
     <use xlink:href="#m2351226ab0" x="333.946681" y="135.611982" style="fill: #4682b4; fill-opacity: 0.9; stroke: #4682b4; stroke-opacity: 0.9; stroke-width: 0.375233"/>
     <use xlink:href="#m2351226ab0" x="340.948949" y="131.64394" style="fill: #4682b4; fill-opacity: 0.9; stroke: #4682b4; stroke-opacity: 0.9; stroke-width: 0.375233"/>
     <use xlink:href="#m2351226ab0" x="350.618671" y="117.341684" style="fill: #4682b4; fill-opacity: 0.9; stroke: #4682b4; stroke-opacity: 0.9; stroke-width: 0.375233"/>
     <use xlink:href="#m2351226ab0" x="365.258862" y="107.127179" style="fill: #4682b4; fill-opacity: 0.9; stroke: #4682b4; stroke-opacity: 0.9; stroke-width: 0.375233"/>
     <use xlink:href="#m2351226ab0" x="408.186141" y="72.864795" style="fill: #4682b4; fill-opacity: 0.9; stroke: #4682b4; stroke-opacity: 0.9; stroke-width: 0.375233"/>
    </g>
   </g>
   <g id="line2d_15">
    <path d="M 75.101126 275.85696 
L 78.465621 273.8982 
L 81.830116 271.939439 
L 85.194611 269.980679 
L 88.559106 268.021919 
L 91.923601 266.063158 
L 95.288096 264.104398 
L 98.652591 262.145638 
L 102.017087 260.186877 
L 105.381582 258.228117 
L 108.746077 256.269357 
L 112.110572 254.310596 
L 115.475067 252.351836 
L 118.839562 250.393076 
L 122.204057 248.434315 
L 125.568552 246.475555 
L 128.933047 244.516795 
L 132.297542 242.558034 
L 135.662038 240.599274 
L 139.026533 238.640514 
L 142.391028 236.681753 
L 145.755523 234.722993 
L 149.120018 232.764233 
L 152.484513 230.805473 
L 155.849008 228.846712 
L 159.213503 226.887952 
L 162.577998 224.929192 
L 165.942494 222.970431 
L 169.306989 221.011671 
L 172.671484 219.052911 
L 176.035979 217.09415 
L 179.400474 215.13539 
L 182.764969 213.17663 
L 186.129464 211.217869 
L 189.493959 209.259109 
L 192.858454 207.300349 
L 196.222949 205.341588 
L 199.587445 203.382828 
L 202.95194 201.424068 
L 206.316435 199.465307 
L 209.68093 197.506547 
L 213.045425 195.547787 
L 216.40992 193.589026 
L 219.774415 191.630266 
L 223.13891 189.671506 
L 226.503405 187.712745 
L 229.8679 185.753985 
L 233.232396 183.795225 
L 236.596891 181.836464 
L 239.961386 179.877704 
L 243.325881 177.918944 
L 246.690376 175.960183 
L 250.054871 174.001423 
L 253.419366 172.042663 
L 256.783861 170.083902 
L 260.148356 168.125142 
L 263.512851 166.166382 
L 266.877347 164.207621 
L 270.241842 162.248861 
L 273.606337 160.290101 
L 276.970832 158.33134 
L 280.335327 156.37258 
L 283.699822 154.41382 
L 287.064317 152.45506 
L 290.428812 150.496299 
L 293.793307 148.537539 
L 297.157803 146.578779 
L 300.522298 144.620018 
L 303.886793 142.661258 
L 307.251288 140.702498 
L 310.615783 138.743737 
L 313.980278 136.784977 
L 317.344773 134.826217 
L 320.709268 132.867456 
L 324.073763 130.908696 
L 327.438258 128.949936 
L 330.802754 126.991175 
L 334.167249 125.032415 
L 337.531744 123.073655 
L 340.896239 121.114894 
L 344.260734 119.156134 
L 347.625229 117.197374 
L 350.989724 115.238613 
L 354.354219 113.279853 
L 357.718714 111.321093 
L 361.083209 109.362332 
L 364.447705 107.403572 
L 367.8122 105.444812 
L 371.176695 103.486051 
L 374.54119 101.527291 
L 377.905685 99.568531 
L 381.27018 97.60977 
L 384.634675 95.65101 
L 387.99917 93.69225 
L 391.363665 91.733489 
L 394.72816 89.774729 
L 398.092656 87.815969 
L 401.457151 85.857208 
L 404.821646 83.898448 
L 408.186141 81.939688 
" clip-path="url(#p4ad4e2d1ec)" style="fill: none; stroke-dasharray: 5.92,2.56; stroke-dashoffset: 0; stroke: #dc143c; stroke-width: 1.6"/>
   </g>
   <g id="line2d_16">
    <path d="M 58.446875 164.044544 
L 424.840392 164.044544 
" clip-path="url(#p4ad4e2d1ec)" style="fill: none; stroke-dasharray: 0.7,1.155; stroke-dashoffset: 0; stroke: #bbbbbb; stroke-width: 0.7"/>
   </g>
   <g id="line2d_17">
    <path d="M 267.157405 293.657125 
L 267.157405 62.350875 
" clip-path="url(#p4ad4e2d1ec)" style="fill: none; stroke-dasharray: 0.7,1.155; stroke-dashoffset: 0; stroke: #bbbbbb; stroke-width: 0.7"/>
   </g>
   <g id="patch_3">
    <path d="M 58.446875 293.657125 
L 58.446875 62.350875 
" style="fill: none; stroke: #ffffff; stroke-width: 0.8; stroke-linejoin: miter; stroke-linecap: square"/>
   </g>
   <g id="patch_4">
    <path d="M 58.446875 293.657125 
L 424.840392 293.657125 
" style="fill: none; stroke: #ffffff; stroke-width: 0.8; stroke-linejoin: miter; stroke-linecap: square"/>
   </g>
   <g id="text_17">
    <!-- First stage -->
    <g style="fill: #ffffff" transform="translate(213.637696 56.350875) scale(0.12 -0.12)">
     <defs>
      <path id="ArialMT-46" d="M 525 0 
L 525 4581 
L 3616 4581 
L 3616 4041 
L 1131 4041 
L 1131 2622 
L 3281 2622 
L 3281 2081 
L 1131 2081 
L 1131 0 
L 525 0 
z
" transform="scale(0.015625)"/>
      <path id="ArialMT-73" d="M 197 991 
L 753 1078 
Q 800 744 1014 566 
Q 1228 388 1613 388 
Q 2000 388 2187 545 
Q 2375 703 2375 916 
Q 2375 1106 2209 1216 
Q 2094 1291 1634 1406 
Q 1016 1563 777 1677 
Q 538 1791 414 1992 
Q 291 2194 291 2438 
Q 291 2659 392 2848 
Q 494 3038 669 3163 
Q 800 3259 1026 3326 
Q 1253 3394 1513 3394 
Q 1903 3394 2198 3281 
Q 2494 3169 2634 2976 
Q 2775 2784 2828 2463 
L 2278 2388 
Q 2241 2644 2061 2787 
Q 1881 2931 1553 2931 
Q 1166 2931 1000 2803 
Q 834 2675 834 2503 
Q 834 2394 903 2306 
Q 972 2216 1119 2156 
Q 1203 2125 1616 2013 
Q 2213 1853 2448 1751 
Q 2684 1650 2818 1456 
Q 2953 1263 2953 975 
Q 2953 694 2789 445 
Q 2625 197 2315 61 
Q 2006 -75 1616 -75 
Q 969 -75 630 194 
Q 291 463 197 991 
z
" transform="scale(0.015625)"/>
     </defs>
     <use xlink:href="#ArialMT-46"/>
     <use xlink:href="#ArialMT-69" transform="translate(61.083984 0)"/>
     <use xlink:href="#ArialMT-72" transform="translate(83.300781 0)"/>
     <use xlink:href="#ArialMT-73" transform="translate(116.601562 0)"/>
     <use xlink:href="#ArialMT-74" transform="translate(166.601562 0)"/>
     <use xlink:href="#ArialMT-20" transform="translate(194.384766 0)"/>
     <use xlink:href="#ArialMT-73" transform="translate(222.167969 0)"/>
     <use xlink:href="#ArialMT-74" transform="translate(272.167969 0)"/>
     <use xlink:href="#ArialMT-61" transform="translate(299.951172 0)"/>
     <use xlink:href="#ArialMT-67" transform="translate(355.566406 0)"/>
     <use xlink:href="#ArialMT-65" transform="translate(411.181641 0)"/>
    </g>
   </g>
   <g id="legend_1">
    <g id="patch_5">
     <path d="M 416.040392 72.750875 
L 419.240392 72.750875 
Q 420.840392 72.750875 420.840392 71.150875 
L 420.840392 67.950875 
Q 420.840392 66.350875 419.240392 66.350875 
L 416.040392 66.350875 
Q 414.440392 66.350875 414.440392 67.950875 
L 414.440392 71.150875 
Q 414.440392 72.750875 416.040392 72.750875 
z
" style="opacity: 0.8; stroke: #cccccc; stroke-linejoin: miter"/>
    </g>
   </g>
  </g>
  <g id="axes_2">
   <g id="patch_6">
    <path d="M 480.962267 293.657125 
L 847.355783 293.657125 
L 847.355783 62.350875 
L 480.962267 62.350875 
z
"/>
   </g>
   <g id="matplotlib.axis_3">
    <g id="xtick_7">
     <g id="line2d_18">
      <path d="M 495.207901 293.657125 
L 495.207901 62.350875 
" clip-path="url(#p03a6153cbb)" style="fill: none; stroke: #ffffff; stroke-opacity: 0.25; stroke-width: 0.8; stroke-linecap: round"/>
     </g>
     <g id="text_18">
      <!-- −0.100 -->
      <g style="fill: #ffffff" transform="translate(479.776651 307.814938) scale(0.1 -0.1)">
       <use xlink:href="#ArialMT-2212"/>
       <use xlink:href="#ArialMT-30" transform="translate(58.398438 0)"/>
       <use xlink:href="#ArialMT-2e" transform="translate(114.013672 0)"/>
       <use xlink:href="#ArialMT-31" transform="translate(141.796875 0)"/>
       <use xlink:href="#ArialMT-30" transform="translate(197.412109 0)"/>
       <use xlink:href="#ArialMT-30" transform="translate(253.027344 0)"/>
      </g>
     </g>
    </g>
    <g id="xtick_8">
     <g id="line2d_19">
      <path d="M 543.824125 293.657125 
L 543.824125 62.350875 
" clip-path="url(#p03a6153cbb)" style="fill: none; stroke: #ffffff; stroke-opacity: 0.25; stroke-width: 0.8; stroke-linecap: round"/>
     </g>
     <g id="text_19">
      <!-- −0.075 -->
      <g style="fill: #ffffff" transform="translate(528.392875 307.814938) scale(0.1 -0.1)">
       <use xlink:href="#ArialMT-2212"/>
       <use xlink:href="#ArialMT-30" transform="translate(58.398438 0)"/>
       <use xlink:href="#ArialMT-2e" transform="translate(114.013672 0)"/>
       <use xlink:href="#ArialMT-30" transform="translate(141.796875 0)"/>
       <use xlink:href="#ArialMT-37" transform="translate(197.412109 0)"/>
       <use xlink:href="#ArialMT-35" transform="translate(253.027344 0)"/>
      </g>
     </g>
    </g>
    <g id="xtick_9">
     <g id="line2d_20">
      <path d="M 592.440349 293.657125 
L 592.440349 62.350875 
" clip-path="url(#p03a6153cbb)" style="fill: none; stroke: #ffffff; stroke-opacity: 0.25; stroke-width: 0.8; stroke-linecap: round"/>
     </g>
     <g id="text_20">
      <!-- −0.050 -->
      <g style="fill: #ffffff" transform="translate(577.009099 307.814938) scale(0.1 -0.1)">
       <use xlink:href="#ArialMT-2212"/>
       <use xlink:href="#ArialMT-30" transform="translate(58.398438 0)"/>
       <use xlink:href="#ArialMT-2e" transform="translate(114.013672 0)"/>
       <use xlink:href="#ArialMT-30" transform="translate(141.796875 0)"/>
       <use xlink:href="#ArialMT-35" transform="translate(197.412109 0)"/>
       <use xlink:href="#ArialMT-30" transform="translate(253.027344 0)"/>
      </g>
     </g>
    </g>
    <g id="xtick_10">
     <g id="line2d_21">
      <path d="M 641.056573 293.657125 
L 641.056573 62.350875 
" clip-path="url(#p03a6153cbb)" style="fill: none; stroke: #ffffff; stroke-opacity: 0.25; stroke-width: 0.8; stroke-linecap: round"/>
     </g>
     <g id="text_21">
      <!-- −0.025 -->
      <g style="fill: #ffffff" transform="translate(625.625323 307.814938) scale(0.1 -0.1)">
       <use xlink:href="#ArialMT-2212"/>
       <use xlink:href="#ArialMT-30" transform="translate(58.398438 0)"/>
       <use xlink:href="#ArialMT-2e" transform="translate(114.013672 0)"/>
       <use xlink:href="#ArialMT-30" transform="translate(141.796875 0)"/>
       <use xlink:href="#ArialMT-32" transform="translate(197.412109 0)"/>
       <use xlink:href="#ArialMT-35" transform="translate(253.027344 0)"/>
      </g>
     </g>
    </g>
    <g id="xtick_11">
     <g id="line2d_22">
      <path d="M 689.672796 293.657125 
L 689.672796 62.350875 
" clip-path="url(#p03a6153cbb)" style="fill: none; stroke: #ffffff; stroke-opacity: 0.25; stroke-width: 0.8; stroke-linecap: round"/>
     </g>
     <g id="text_22">
      <!-- 0.000 -->
      <g style="fill: #ffffff" transform="translate(677.161859 307.814938) scale(0.1 -0.1)">
       <use xlink:href="#ArialMT-30"/>
       <use xlink:href="#ArialMT-2e" transform="translate(55.615234 0)"/>
       <use xlink:href="#ArialMT-30" transform="translate(83.398438 0)"/>
       <use xlink:href="#ArialMT-30" transform="translate(139.013672 0)"/>
       <use xlink:href="#ArialMT-30" transform="translate(194.628906 0)"/>
      </g>
     </g>
    </g>
    <g id="xtick_12">
     <g id="line2d_23">
      <path d="M 738.28902 293.657125 
L 738.28902 62.350875 
" clip-path="url(#p03a6153cbb)" style="fill: none; stroke: #ffffff; stroke-opacity: 0.25; stroke-width: 0.8; stroke-linecap: round"/>
     </g>
     <g id="text_23">
      <!-- 0.025 -->
      <g style="fill: #ffffff" transform="translate(725.778083 307.814938) scale(0.1 -0.1)">
       <use xlink:href="#ArialMT-30"/>
       <use xlink:href="#ArialMT-2e" transform="translate(55.615234 0)"/>
       <use xlink:href="#ArialMT-30" transform="translate(83.398438 0)"/>
       <use xlink:href="#ArialMT-32" transform="translate(139.013672 0)"/>
       <use xlink:href="#ArialMT-35" transform="translate(194.628906 0)"/>
      </g>
     </g>
    </g>
    <g id="xtick_13">
     <g id="line2d_24">
      <path d="M 786.905244 293.657125 
L 786.905244 62.350875 
" clip-path="url(#p03a6153cbb)" style="fill: none; stroke: #ffffff; stroke-opacity: 0.25; stroke-width: 0.8; stroke-linecap: round"/>
     </g>
     <g id="text_24">
      <!-- 0.050 -->
      <g style="fill: #ffffff" transform="translate(774.394307 307.814938) scale(0.1 -0.1)">
       <use xlink:href="#ArialMT-30"/>
       <use xlink:href="#ArialMT-2e" transform="translate(55.615234 0)"/>
       <use xlink:href="#ArialMT-30" transform="translate(83.398438 0)"/>
       <use xlink:href="#ArialMT-35" transform="translate(139.013672 0)"/>
       <use xlink:href="#ArialMT-30" transform="translate(194.628906 0)"/>
      </g>
     </g>
    </g>
    <g id="xtick_14">
     <g id="line2d_25">
      <path d="M 835.521468 293.657125 
L 835.521468 62.350875 
" clip-path="url(#p03a6153cbb)" style="fill: none; stroke: #ffffff; stroke-opacity: 0.25; stroke-width: 0.8; stroke-linecap: round"/>
     </g>
     <g id="text_25">
      <!-- 0.075 -->
      <g style="fill: #ffffff" transform="translate(823.01053 307.814938) scale(0.1 -0.1)">
       <use xlink:href="#ArialMT-30"/>
       <use xlink:href="#ArialMT-2e" transform="translate(55.615234 0)"/>
       <use xlink:href="#ArialMT-30" transform="translate(83.398438 0)"/>
       <use xlink:href="#ArialMT-37" transform="translate(139.013672 0)"/>
       <use xlink:href="#ArialMT-35" transform="translate(194.628906 0)"/>
      </g>
     </g>
    </g>
    <g id="text_26">
     <!-- Instrumented log revenue/trip (demeaned) -->
     <g style="fill: #ffffff" transform="translate(570.7809 321.082125) scale(0.1 -0.1)">
      <defs>
       <path id="ArialMT-49" d="M 597 0 
L 597 4581 
L 1203 4581 
L 1203 0 
L 597 0 
z
" transform="scale(0.015625)"/>
      </defs>
      <use xlink:href="#ArialMT-49"/>
      <use xlink:href="#ArialMT-6e" transform="translate(27.783203 0)"/>
      <use xlink:href="#ArialMT-73" transform="translate(83.398438 0)"/>
      <use xlink:href="#ArialMT-74" transform="translate(133.398438 0)"/>
      <use xlink:href="#ArialMT-72" transform="translate(161.181641 0)"/>
      <use xlink:href="#ArialMT-75" transform="translate(194.482422 0)"/>
      <use xlink:href="#ArialMT-6d" transform="translate(250.097656 0)"/>
      <use xlink:href="#ArialMT-65" transform="translate(333.398438 0)"/>
      <use xlink:href="#ArialMT-6e" transform="translate(389.013672 0)"/>
      <use xlink:href="#ArialMT-74" transform="translate(444.628906 0)"/>
      <use xlink:href="#ArialMT-65" transform="translate(472.412109 0)"/>
      <use xlink:href="#ArialMT-64" transform="translate(528.027344 0)"/>
      <use xlink:href="#ArialMT-20" transform="translate(583.642578 0)"/>
      <use xlink:href="#ArialMT-6c" transform="translate(611.425781 0)"/>
      <use xlink:href="#ArialMT-6f" transform="translate(633.642578 0)"/>
      <use xlink:href="#ArialMT-67" transform="translate(689.257812 0)"/>
      <use xlink:href="#ArialMT-20" transform="translate(744.873047 0)"/>
      <use xlink:href="#ArialMT-72" transform="translate(772.65625 0)"/>
      <use xlink:href="#ArialMT-65" transform="translate(805.957031 0)"/>
      <use xlink:href="#ArialMT-76" transform="translate(861.572266 0)"/>
      <use xlink:href="#ArialMT-65" transform="translate(911.572266 0)"/>
      <use xlink:href="#ArialMT-6e" transform="translate(967.1875 0)"/>
      <use xlink:href="#ArialMT-75" transform="translate(1022.802734 0)"/>
      <use xlink:href="#ArialMT-65" transform="translate(1078.417969 0)"/>
      <use xlink:href="#ArialMT-2f" transform="translate(1134.033203 0)"/>
      <use xlink:href="#ArialMT-74" transform="translate(1161.816406 0)"/>
      <use xlink:href="#ArialMT-72" transform="translate(1189.599609 0)"/>
      <use xlink:href="#ArialMT-69" transform="translate(1222.900391 0)"/>
      <use xlink:href="#ArialMT-70" transform="translate(1245.117188 0)"/>
      <use xlink:href="#ArialMT-20" transform="translate(1300.732422 0)"/>
      <use xlink:href="#ArialMT-28" transform="translate(1328.515625 0)"/>
      <use xlink:href="#ArialMT-64" transform="translate(1361.816406 0)"/>
      <use xlink:href="#ArialMT-65" transform="translate(1417.431641 0)"/>
      <use xlink:href="#ArialMT-6d" transform="translate(1473.046875 0)"/>
      <use xlink:href="#ArialMT-65" transform="translate(1556.347656 0)"/>
      <use xlink:href="#ArialMT-61" transform="translate(1611.962891 0)"/>
      <use xlink:href="#ArialMT-6e" transform="translate(1667.578125 0)"/>
      <use xlink:href="#ArialMT-65" transform="translate(1723.193359 0)"/>
      <use xlink:href="#ArialMT-64" transform="translate(1778.808594 0)"/>
      <use xlink:href="#ArialMT-29" transform="translate(1834.423828 0)"/>
     </g>
    </g>
   </g>
   <g id="matplotlib.axis_4">
    <g id="ytick_9">
     <g id="line2d_26">
      <path d="M 480.962267 270.702008 
L 847.355783 270.702008 
" clip-path="url(#p03a6153cbb)" style="fill: none; stroke: #ffffff; stroke-opacity: 0.25; stroke-width: 0.8; stroke-linecap: round"/>
     </g>
     <g id="text_27">
      <!-- −0.10 -->
      <g style="fill: #ffffff" transform="translate(448.660704 274.280914) scale(0.1 -0.1)">
       <use xlink:href="#ArialMT-2212"/>
       <use xlink:href="#ArialMT-30" transform="translate(58.398438 0)"/>
       <use xlink:href="#ArialMT-2e" transform="translate(114.013672 0)"/>
       <use xlink:href="#ArialMT-31" transform="translate(141.796875 0)"/>
       <use xlink:href="#ArialMT-30" transform="translate(197.412109 0)"/>
      </g>
     </g>
    </g>
    <g id="ytick_10">
     <g id="line2d_27">
      <path d="M 480.962267 222.695341 
L 847.355783 222.695341 
" clip-path="url(#p03a6153cbb)" style="fill: none; stroke: #ffffff; stroke-opacity: 0.25; stroke-width: 0.8; stroke-linecap: round"/>
     </g>
     <g id="text_28">
      <!-- −0.05 -->
      <g style="fill: #ffffff" transform="translate(448.660704 226.274247) scale(0.1 -0.1)">
       <use xlink:href="#ArialMT-2212"/>
       <use xlink:href="#ArialMT-30" transform="translate(58.398438 0)"/>
       <use xlink:href="#ArialMT-2e" transform="translate(114.013672 0)"/>
       <use xlink:href="#ArialMT-30" transform="translate(141.796875 0)"/>
       <use xlink:href="#ArialMT-35" transform="translate(197.412109 0)"/>
      </g>
     </g>
    </g>
    <g id="ytick_11">
     <g id="line2d_28">
      <path d="M 480.962267 174.688673 
L 847.355783 174.688673 
" clip-path="url(#p03a6153cbb)" style="fill: none; stroke: #ffffff; stroke-opacity: 0.25; stroke-width: 0.8; stroke-linecap: round"/>
     </g>
     <g id="text_29">
      <!-- 0.00 -->
      <g style="fill: #ffffff" transform="translate(454.501329 178.26758) scale(0.1 -0.1)">
       <use xlink:href="#ArialMT-30"/>
       <use xlink:href="#ArialMT-2e" transform="translate(55.615234 0)"/>
       <use xlink:href="#ArialMT-30" transform="translate(83.398438 0)"/>
       <use xlink:href="#ArialMT-30" transform="translate(139.013672 0)"/>
      </g>
     </g>
    </g>
    <g id="ytick_12">
     <g id="line2d_29">
      <path d="M 480.962267 126.682006 
L 847.355783 126.682006 
" clip-path="url(#p03a6153cbb)" style="fill: none; stroke: #ffffff; stroke-opacity: 0.25; stroke-width: 0.8; stroke-linecap: round"/>
     </g>
     <g id="text_30">
      <!-- 0.05 -->
      <g style="fill: #ffffff" transform="translate(454.501329 130.260913) scale(0.1 -0.1)">
       <use xlink:href="#ArialMT-30"/>
       <use xlink:href="#ArialMT-2e" transform="translate(55.615234 0)"/>
       <use xlink:href="#ArialMT-30" transform="translate(83.398438 0)"/>
       <use xlink:href="#ArialMT-35" transform="translate(139.013672 0)"/>
      </g>
     </g>
    </g>
    <g id="ytick_13">
     <g id="line2d_30">
      <path d="M 480.962267 78.675339 
L 847.355783 78.675339 
" clip-path="url(#p03a6153cbb)" style="fill: none; stroke: #ffffff; stroke-opacity: 0.25; stroke-width: 0.8; stroke-linecap: round"/>
     </g>
     <g id="text_31">
      <!-- 0.10 -->
      <g style="fill: #ffffff" transform="translate(454.501329 82.254246) scale(0.1 -0.1)">
       <use xlink:href="#ArialMT-30"/>
       <use xlink:href="#ArialMT-2e" transform="translate(55.615234 0)"/>
       <use xlink:href="#ArialMT-31" transform="translate(83.398438 0)"/>
       <use xlink:href="#ArialMT-30" transform="translate(139.013672 0)"/>
      </g>
     </g>
    </g>
    <g id="text_32">
     <!-- Log completed trips (demeaned) -->
     <g style="fill: #ffffff" transform="translate(442.556017 249.982906) rotate(-90) scale(0.1 -0.1)">
      <defs>
       <path id="ArialMT-63" d="M 2588 1216 
L 3141 1144 
Q 3050 572 2676 248 
Q 2303 -75 1759 -75 
Q 1078 -75 664 370 
Q 250 816 250 1647 
Q 250 2184 428 2587 
Q 606 2991 970 3192 
Q 1334 3394 1763 3394 
Q 2303 3394 2647 3120 
Q 2991 2847 3088 2344 
L 2541 2259 
Q 2463 2594 2264 2762 
Q 2066 2931 1784 2931 
Q 1359 2931 1093 2626 
Q 828 2322 828 1663 
Q 828 994 1084 691 
Q 1341 388 1753 388 
Q 2084 388 2306 591 
Q 2528 794 2588 1216 
z
" transform="scale(0.015625)"/>
      </defs>
      <use xlink:href="#ArialMT-4c"/>
      <use xlink:href="#ArialMT-6f" transform="translate(55.615234 0)"/>
      <use xlink:href="#ArialMT-67" transform="translate(111.230469 0)"/>
      <use xlink:href="#ArialMT-20" transform="translate(166.845703 0)"/>
      <use xlink:href="#ArialMT-63" transform="translate(194.628906 0)"/>
      <use xlink:href="#ArialMT-6f" transform="translate(244.628906 0)"/>
      <use xlink:href="#ArialMT-6d" transform="translate(300.244141 0)"/>
      <use xlink:href="#ArialMT-70" transform="translate(383.544922 0)"/>
      <use xlink:href="#ArialMT-6c" transform="translate(439.160156 0)"/>
      <use xlink:href="#ArialMT-65" transform="translate(461.376953 0)"/>
      <use xlink:href="#ArialMT-74" transform="translate(516.992188 0)"/>
      <use xlink:href="#ArialMT-65" transform="translate(544.775391 0)"/>
      <use xlink:href="#ArialMT-64" transform="translate(600.390625 0)"/>
      <use xlink:href="#ArialMT-20" transform="translate(656.005859 0)"/>
      <use xlink:href="#ArialMT-74" transform="translate(683.789062 0)"/>
      <use xlink:href="#ArialMT-72" transform="translate(711.572266 0)"/>
      <use xlink:href="#ArialMT-69" transform="translate(744.873047 0)"/>
      <use xlink:href="#ArialMT-70" transform="translate(767.089844 0)"/>
      <use xlink:href="#ArialMT-73" transform="translate(822.705078 0)"/>
      <use xlink:href="#ArialMT-20" transform="translate(872.705078 0)"/>
      <use xlink:href="#ArialMT-28" transform="translate(900.488281 0)"/>
      <use xlink:href="#ArialMT-64" transform="translate(933.789062 0)"/>
      <use xlink:href="#ArialMT-65" transform="translate(989.404297 0)"/>
      <use xlink:href="#ArialMT-6d" transform="translate(1045.019531 0)"/>
      <use xlink:href="#ArialMT-65" transform="translate(1128.320312 0)"/>
      <use xlink:href="#ArialMT-61" transform="translate(1183.935547 0)"/>
      <use xlink:href="#ArialMT-6e" transform="translate(1239.550781 0)"/>
      <use xlink:href="#ArialMT-65" transform="translate(1295.166016 0)"/>
      <use xlink:href="#ArialMT-64" transform="translate(1350.78125 0)"/>
      <use xlink:href="#ArialMT-29" transform="translate(1406.396484 0)"/>
     </g>
    </g>
   </g>
   <g id="PathCollection_2">
    <g clip-path="url(#p03a6153cbb)">
     <use xlink:href="#m2351226ab0" x="497.616517" y="283.143205" style="fill: #4682b4; fill-opacity: 0.9; stroke: #4682b4; stroke-opacity: 0.9; stroke-width: 0.375233"/>
     <use xlink:href="#m2351226ab0" x="568.560427" y="244.209037" style="fill: #4682b4; fill-opacity: 0.9; stroke: #4682b4; stroke-opacity: 0.9; stroke-width: 0.375233"/>
     <use xlink:href="#m2351226ab0" x="591.32745" y="215.538586" style="fill: #4682b4; fill-opacity: 0.9; stroke: #4682b4; stroke-opacity: 0.9; stroke-width: 0.375233"/>
     <use xlink:href="#m2351226ab0" x="606.773207" y="215.000228" style="fill: #4682b4; fill-opacity: 0.9; stroke: #4682b4; stroke-opacity: 0.9; stroke-width: 0.375233"/>
     <use xlink:href="#m2351226ab0" x="619.808434" y="222.634071" style="fill: #4682b4; fill-opacity: 0.9; stroke: #4682b4; stroke-opacity: 0.9; stroke-width: 0.375233"/>
     <use xlink:href="#m2351226ab0" x="629.3361" y="214.706627" style="fill: #4682b4; fill-opacity: 0.9; stroke: #4682b4; stroke-opacity: 0.9; stroke-width: 0.375233"/>
     <use xlink:href="#m2351226ab0" x="636.402711" y="217.240612" style="fill: #4682b4; fill-opacity: 0.9; stroke: #4682b4; stroke-opacity: 0.9; stroke-width: 0.375233"/>
     <use xlink:href="#m2351226ab0" x="642.589072" y="185.6449" style="fill: #4682b4; fill-opacity: 0.9; stroke: #4682b4; stroke-opacity: 0.9; stroke-width: 0.375233"/>
     <use xlink:href="#m2351226ab0" x="648.146823" y="187.043505" style="fill: #4682b4; fill-opacity: 0.9; stroke: #4682b4; stroke-opacity: 0.9; stroke-width: 0.375233"/>
     <use xlink:href="#m2351226ab0" x="653.277945" y="185.300959" style="fill: #4682b4; fill-opacity: 0.9; stroke: #4682b4; stroke-opacity: 0.9; stroke-width: 0.375233"/>
     <use xlink:href="#m2351226ab0" x="658.124057" y="181.139973" style="fill: #4682b4; fill-opacity: 0.9; stroke: #4682b4; stroke-opacity: 0.9; stroke-width: 0.375233"/>
     <use xlink:href="#m2351226ab0" x="662.579949" y="178.470946" style="fill: #4682b4; fill-opacity: 0.9; stroke: #4682b4; stroke-opacity: 0.9; stroke-width: 0.375233"/>
     <use xlink:href="#m2351226ab0" x="666.874635" y="168.271119" style="fill: #4682b4; fill-opacity: 0.9; stroke: #4682b4; stroke-opacity: 0.9; stroke-width: 0.375233"/>
     <use xlink:href="#m2351226ab0" x="671.091788" y="175.987506" style="fill: #4682b4; fill-opacity: 0.9; stroke: #4682b4; stroke-opacity: 0.9; stroke-width: 0.375233"/>
     <use xlink:href="#m2351226ab0" x="675.087062" y="168.440881" style="fill: #4682b4; fill-opacity: 0.9; stroke: #4682b4; stroke-opacity: 0.9; stroke-width: 0.375233"/>
     <use xlink:href="#m2351226ab0" x="678.807818" y="184.089582" style="fill: #4682b4; fill-opacity: 0.9; stroke: #4682b4; stroke-opacity: 0.9; stroke-width: 0.375233"/>
     <use xlink:href="#m2351226ab0" x="682.413623" y="168.993823" style="fill: #4682b4; fill-opacity: 0.9; stroke: #4682b4; stroke-opacity: 0.9; stroke-width: 0.375233"/>
     <use xlink:href="#m2351226ab0" x="685.845399" y="178.255536" style="fill: #4682b4; fill-opacity: 0.9; stroke: #4682b4; stroke-opacity: 0.9; stroke-width: 0.375233"/>
     <use xlink:href="#m2351226ab0" x="689.157279" y="171.039648" style="fill: #4682b4; fill-opacity: 0.9; stroke: #4682b4; stroke-opacity: 0.9; stroke-width: 0.375233"/>
     <use xlink:href="#m2351226ab0" x="692.456484" y="174.239116" style="fill: #4682b4; fill-opacity: 0.9; stroke: #4682b4; stroke-opacity: 0.9; stroke-width: 0.375233"/>
     <use xlink:href="#m2351226ab0" x="695.753727" y="178.381681" style="fill: #4682b4; fill-opacity: 0.9; stroke: #4682b4; stroke-opacity: 0.9; stroke-width: 0.375233"/>
     <use xlink:href="#m2351226ab0" x="699.070742" y="178.482862" style="fill: #4682b4; fill-opacity: 0.9; stroke: #4682b4; stroke-opacity: 0.9; stroke-width: 0.375233"/>
     <use xlink:href="#m2351226ab0" x="702.42079" y="163.730956" style="fill: #4682b4; fill-opacity: 0.9; stroke: #4682b4; stroke-opacity: 0.9; stroke-width: 0.375233"/>
     <use xlink:href="#m2351226ab0" x="705.917983" y="173.409688" style="fill: #4682b4; fill-opacity: 0.9; stroke: #4682b4; stroke-opacity: 0.9; stroke-width: 0.375233"/>
     <use xlink:href="#m2351226ab0" x="709.527575" y="169.819693" style="fill: #4682b4; fill-opacity: 0.9; stroke: #4682b4; stroke-opacity: 0.9; stroke-width: 0.375233"/>
     <use xlink:href="#m2351226ab0" x="713.171579" y="166.868668" style="fill: #4682b4; fill-opacity: 0.9; stroke: #4682b4; stroke-opacity: 0.9; stroke-width: 0.375233"/>
     <use xlink:href="#m2351226ab0" x="716.925245" y="151.943426" style="fill: #4682b4; fill-opacity: 0.9; stroke: #4682b4; stroke-opacity: 0.9; stroke-width: 0.375233"/>
     <use xlink:href="#m2351226ab0" x="720.732186" y="158.880558" style="fill: #4682b4; fill-opacity: 0.9; stroke: #4682b4; stroke-opacity: 0.9; stroke-width: 0.375233"/>
     <use xlink:href="#m2351226ab0" x="724.476405" y="166.094883" style="fill: #4682b4; fill-opacity: 0.9; stroke: #4682b4; stroke-opacity: 0.9; stroke-width: 0.375233"/>
     <use xlink:href="#m2351226ab0" x="728.110913" y="149.191198" style="fill: #4682b4; fill-opacity: 0.9; stroke: #4682b4; stroke-opacity: 0.9; stroke-width: 0.375233"/>
     <use xlink:href="#m2351226ab0" x="731.786319" y="150.573179" style="fill: #4682b4; fill-opacity: 0.9; stroke: #4682b4; stroke-opacity: 0.9; stroke-width: 0.375233"/>
     <use xlink:href="#m2351226ab0" x="735.800653" y="159.63088" style="fill: #4682b4; fill-opacity: 0.9; stroke: #4682b4; stroke-opacity: 0.9; stroke-width: 0.375233"/>
     <use xlink:href="#m2351226ab0" x="740.119716" y="159.766374" style="fill: #4682b4; fill-opacity: 0.9; stroke: #4682b4; stroke-opacity: 0.9; stroke-width: 0.375233"/>
     <use xlink:href="#m2351226ab0" x="744.904341" y="159.229016" style="fill: #4682b4; fill-opacity: 0.9; stroke: #4682b4; stroke-opacity: 0.9; stroke-width: 0.375233"/>
     <use xlink:href="#m2351226ab0" x="750.383919" y="158.023187" style="fill: #4682b4; fill-opacity: 0.9; stroke: #4682b4; stroke-opacity: 0.9; stroke-width: 0.375233"/>
     <use xlink:href="#m2351226ab0" x="756.462073" y="141.453992" style="fill: #4682b4; fill-opacity: 0.9; stroke: #4682b4; stroke-opacity: 0.9; stroke-width: 0.375233"/>
     <use xlink:href="#m2351226ab0" x="763.464341" y="132.19218" style="fill: #4682b4; fill-opacity: 0.9; stroke: #4682b4; stroke-opacity: 0.9; stroke-width: 0.375233"/>
     <use xlink:href="#m2351226ab0" x="773.134062" y="142.432528" style="fill: #4682b4; fill-opacity: 0.9; stroke: #4682b4; stroke-opacity: 0.9; stroke-width: 0.375233"/>
     <use xlink:href="#m2351226ab0" x="787.774254" y="135.185228" style="fill: #4682b4; fill-opacity: 0.9; stroke: #4682b4; stroke-opacity: 0.9; stroke-width: 0.375233"/>
     <use xlink:href="#m2351226ab0" x="830.701533" y="72.864795" style="fill: #4682b4; fill-opacity: 0.9; stroke: #4682b4; stroke-opacity: 0.9; stroke-width: 0.375233"/>
    </g>
   </g>
   <g id="line2d_31">
    <path d="M 497.616517 274.494303 
L 500.981012 272.74588 
L 504.345508 270.997457 
L 507.710003 269.249034 
L 511.074498 267.500612 
L 514.438993 265.752189 
L 517.803488 264.003766 
L 521.167983 262.255343 
L 524.532478 260.50692 
L 527.896973 258.758497 
L 531.261468 257.010075 
L 534.625964 255.261652 
L 537.990459 253.513229 
L 541.354954 251.764806 
L 544.719449 250.016383 
L 548.083944 248.26796 
L 551.448439 246.519537 
L 554.812934 244.771115 
L 558.177429 243.022692 
L 561.541924 241.274269 
L 564.906419 239.525846 
L 568.270915 237.777423 
L 571.63541 236.029 
L 574.999905 234.280578 
L 578.3644 232.532155 
L 581.728895 230.783732 
L 585.09339 229.035309 
L 588.457885 227.286886 
L 591.82238 225.538463 
L 595.186875 223.79004 
L 598.55137 222.041618 
L 601.915866 220.293195 
L 605.280361 218.544772 
L 608.644856 216.796349 
L 612.009351 215.047926 
L 615.373846 213.299503 
L 618.738341 211.551081 
L 622.102836 209.802658 
L 625.467331 208.054235 
L 628.831826 206.305812 
L 632.196321 204.557389 
L 635.560817 202.808966 
L 638.925312 201.060544 
L 642.289807 199.312121 
L 645.654302 197.563698 
L 649.018797 195.815275 
L 652.383292 194.066852 
L 655.747787 192.318429 
L 659.112282 190.570006 
L 662.476777 188.821584 
L 665.841272 187.073161 
L 669.205768 185.324738 
L 672.570263 183.576315 
L 675.934758 181.827892 
L 679.299253 180.079469 
L 682.663748 178.331047 
L 686.028243 176.582624 
L 689.392738 174.834201 
L 692.757233 173.085778 
L 696.121728 171.337355 
L 699.486224 169.588932 
L 702.850719 167.840509 
L 706.215214 166.092087 
L 709.579709 164.343664 
L 712.944204 162.595241 
L 716.308699 160.846818 
L 719.673194 159.098395 
L 723.037689 157.349972 
L 726.402184 155.60155 
L 729.766679 153.853127 
L 733.131175 152.104704 
L 736.49567 150.356281 
L 739.860165 148.607858 
L 743.22466 146.859435 
L 746.589155 145.111012 
L 749.95365 143.36259 
L 753.318145 141.614167 
L 756.68264 139.865744 
L 760.047135 138.117321 
L 763.41163 136.368898 
L 766.776126 134.620475 
L 770.140621 132.872053 
L 773.505116 131.12363 
L 776.869611 129.375207 
L 780.234106 127.626784 
L 783.598601 125.878361 
L 786.963096 124.129938 
L 790.327591 122.381515 
L 793.692086 120.633093 
L 797.056581 118.88467 
L 800.421077 117.136247 
L 803.785572 115.387824 
L 807.150067 113.639401 
L 810.514562 111.890978 
L 813.879057 110.142556 
L 817.243552 108.394133 
L 820.608047 106.64571 
L 823.972542 104.897287 
L 827.337037 103.148864 
L 830.701533 101.400441 
" clip-path="url(#p03a6153cbb)" style="fill: none; stroke-dasharray: 5.92,2.56; stroke-dashoffset: 0; stroke: #dc143c; stroke-width: 1.6"/>
   </g>
   <g id="line2d_32">
    <path d="M 480.962267 174.688673 
L 847.355783 174.688673 
" clip-path="url(#p03a6153cbb)" style="fill: none; stroke-dasharray: 0.7,1.155; stroke-dashoffset: 0; stroke: #bbbbbb; stroke-width: 0.7"/>
   </g>
   <g id="line2d_33">
    <path d="M 689.672796 293.657125 
L 689.672796 62.350875 
" clip-path="url(#p03a6153cbb)" style="fill: none; stroke-dasharray: 0.7,1.155; stroke-dashoffset: 0; stroke: #bbbbbb; stroke-width: 0.7"/>
   </g>
   <g id="patch_7">
    <path d="M 480.962267 293.657125 
L 480.962267 62.350875 
" style="fill: none; stroke: #ffffff; stroke-width: 0.8; stroke-linejoin: miter; stroke-linecap: square"/>
   </g>
   <g id="patch_8">
    <path d="M 480.962267 293.657125 
L 847.355783 293.657125 
" style="fill: none; stroke: #ffffff; stroke-width: 0.8; stroke-linejoin: miter; stroke-linecap: square"/>
   </g>
   <g id="text_33">
    <!-- Second stage -->
    <g style="fill: #ffffff" transform="translate(627.46715 56.350875) scale(0.12 -0.12)">
     <defs>
      <path id="ArialMT-53" d="M 288 1472 
L 859 1522 
Q 900 1178 1048 958 
Q 1197 738 1509 602 
Q 1822 466 2213 466 
Q 2559 466 2825 569 
Q 3091 672 3220 851 
Q 3350 1031 3350 1244 
Q 3350 1459 3225 1620 
Q 3100 1781 2813 1891 
Q 2628 1963 1997 2114 
Q 1366 2266 1113 2400 
Q 784 2572 623 2826 
Q 463 3081 463 3397 
Q 463 3744 659 4045 
Q 856 4347 1234 4503 
Q 1613 4659 2075 4659 
Q 2584 4659 2973 4495 
Q 3363 4331 3572 4012 
Q 3781 3694 3797 3291 
L 3216 3247 
Q 3169 3681 2898 3903 
Q 2628 4125 2100 4125 
Q 1550 4125 1298 3923 
Q 1047 3722 1047 3438 
Q 1047 3191 1225 3031 
Q 1400 2872 2139 2705 
Q 2878 2538 3153 2413 
Q 3553 2228 3743 1945 
Q 3934 1663 3934 1294 
Q 3934 928 3725 604 
Q 3516 281 3123 101 
Q 2731 -78 2241 -78 
Q 1619 -78 1198 103 
Q 778 284 539 648 
Q 300 1013 288 1472 
z
" transform="scale(0.015625)"/>
     </defs>
     <use xlink:href="#ArialMT-53"/>
     <use xlink:href="#ArialMT-65" transform="translate(66.699219 0)"/>
     <use xlink:href="#ArialMT-63" transform="translate(122.314453 0)"/>
     <use xlink:href="#ArialMT-6f" transform="translate(172.314453 0)"/>
     <use xlink:href="#ArialMT-6e" transform="translate(227.929688 0)"/>
     <use xlink:href="#ArialMT-64" transform="translate(283.544922 0)"/>
     <use xlink:href="#ArialMT-20" transform="translate(339.160156 0)"/>
     <use xlink:href="#ArialMT-73" transform="translate(366.943359 0)"/>
     <use xlink:href="#ArialMT-74" transform="translate(416.943359 0)"/>
     <use xlink:href="#ArialMT-61" transform="translate(444.726562 0)"/>
     <use xlink:href="#ArialMT-67" transform="translate(500.341797 0)"/>
     <use xlink:href="#ArialMT-65" transform="translate(555.957031 0)"/>
    </g>
   </g>
   <g id="legend_2">
    <g id="patch_9">
     <path d="M 838.555783 72.750875 
L 841.755783 72.750875 
Q 843.355783 72.750875 843.355783 71.150875 
L 843.355783 67.950875 
Q 843.355783 66.350875 841.755783 66.350875 
L 838.555783 66.350875 
Q 836.955783 66.350875 836.955783 67.950875 
L 836.955783 71.150875 
Q 836.955783 72.750875 838.555783 72.750875 
z
" style="opacity: 0.8; stroke: #cccccc; stroke-linejoin: miter"/>
    </g>
   </g>
  </g>
  <g id="text_34">
   <!-- Figure 3: Preferred driver-day IV stages | OLS=-0.449 | IV=1.059 | First-stage=2429 | N=331,629 -->
   <g style="fill: #ffffff" transform="translate(215.141406 14.485937) scale(0.1 -0.1)">
    <defs>
     <path id="ArialMT-33" d="M 269 1209 
L 831 1284 
Q 928 806 1161 595 
Q 1394 384 1728 384 
Q 2125 384 2398 659 
Q 2672 934 2672 1341 
Q 2672 1728 2419 1979 
Q 2166 2231 1775 2231 
Q 1616 2231 1378 2169 
L 1441 2663 
Q 1497 2656 1531 2656 
Q 1891 2656 2178 2843 
Q 2466 3031 2466 3422 
Q 2466 3731 2256 3934 
Q 2047 4138 1716 4138 
Q 1388 4138 1169 3931 
Q 950 3725 888 3313 
L 325 3413 
Q 428 3978 793 4289 
Q 1159 4600 1703 4600 
Q 2078 4600 2393 4439 
Q 2709 4278 2876 4000 
Q 3044 3722 3044 3409 
Q 3044 3113 2884 2869 
Q 2725 2625 2413 2481 
Q 2819 2388 3044 2092 
Q 3269 1797 3269 1353 
Q 3269 753 2831 336 
Q 2394 -81 1725 -81 
Q 1122 -81 723 278 
Q 325 638 269 1209 
z
" transform="scale(0.015625)"/>
     <path id="ArialMT-3a" d="M 578 2678 
L 578 3319 
L 1219 3319 
L 1219 2678 
L 578 2678 
z
M 578 0 
L 578 641 
L 1219 641 
L 1219 0 
L 578 0 
z
" transform="scale(0.015625)"/>
     <path id="ArialMT-50" d="M 494 0 
L 494 4581 
L 2222 4581 
Q 2678 4581 2919 4538 
Q 3256 4481 3484 4323 
Q 3713 4166 3852 3881 
Q 3991 3597 3991 3256 
Q 3991 2672 3619 2267 
Q 3247 1863 2275 1863 
L 1100 1863 
L 1100 0 
L 494 0 
z
M 1100 2403 
L 2284 2403 
Q 2872 2403 3119 2622 
Q 3366 2841 3366 3238 
Q 3366 3525 3220 3729 
Q 3075 3934 2838 4000 
Q 2684 4041 2272 4041 
L 1100 4041 
L 1100 2403 
z
" transform="scale(0.015625)"/>
     <path id="ArialMT-66" d="M 556 0 
L 556 2881 
L 59 2881 
L 59 3319 
L 556 3319 
L 556 3672 
Q 556 4006 616 4169 
Q 697 4388 901 4523 
Q 1106 4659 1475 4659 
Q 1713 4659 2000 4603 
L 1916 4113 
Q 1741 4144 1584 4144 
Q 1328 4144 1222 4034 
Q 1116 3925 1116 3625 
L 1116 3319 
L 1763 3319 
L 1763 2881 
L 1116 2881 
L 1116 0 
L 556 0 
z
" transform="scale(0.015625)"/>
     <path id="ArialMT-79" d="M 397 -1278 
L 334 -750 
Q 519 -800 656 -800 
Q 844 -800 956 -737 
Q 1069 -675 1141 -563 
Q 1194 -478 1313 -144 
Q 1328 -97 1363 -6 
L 103 3319 
L 709 3319 
L 1400 1397 
Q 1534 1031 1641 628 
Q 1738 1016 1872 1384 
L 2581 3319 
L 3144 3319 
L 1881 -56 
Q 1678 -603 1566 -809 
Q 1416 -1088 1222 -1217 
Q 1028 -1347 759 -1347 
Q 597 -1347 397 -1278 
z
" transform="scale(0.015625)"/>
     <path id="ArialMT-56" d="M 1803 0 
L 28 4581 
L 684 4581 
L 1875 1253 
Q 2019 853 2116 503 
Q 2222 878 2363 1253 
L 3600 4581 
L 4219 4581 
L 2425 0 
L 1803 0 
z
" transform="scale(0.015625)"/>
     <path id="ArialMT-7c" d="M 588 -1347 
L 588 4659 
L 1078 4659 
L 1078 -1347 
L 588 -1347 
z
" transform="scale(0.015625)"/>
     <path id="ArialMT-4f" d="M 309 2231 
Q 309 3372 921 4017 
Q 1534 4663 2503 4663 
Q 3138 4663 3647 4359 
Q 4156 4056 4423 3514 
Q 4691 2972 4691 2284 
Q 4691 1588 4409 1038 
Q 4128 488 3612 205 
Q 3097 -78 2500 -78 
Q 1853 -78 1343 234 
Q 834 547 571 1087 
Q 309 1628 309 2231 
z
M 934 2222 
Q 934 1394 1379 917 
Q 1825 441 2497 441 
Q 3181 441 3623 922 
Q 4066 1403 4066 2288 
Q 4066 2847 3877 3264 
Q 3688 3681 3323 3911 
Q 2959 4141 2506 4141 
Q 1863 4141 1398 3698 
Q 934 3256 934 2222 
z
" transform="scale(0.015625)"/>
     <path id="ArialMT-3d" d="M 3381 2694 
L 356 2694 
L 356 3219 
L 3381 3219 
L 3381 2694 
z
M 3381 1303 
L 356 1303 
L 356 1828 
L 3381 1828 
L 3381 1303 
z
" transform="scale(0.015625)"/>
     <path id="ArialMT-34" d="M 2069 0 
L 2069 1097 
L 81 1097 
L 81 1613 
L 2172 4581 
L 2631 4581 
L 2631 1613 
L 3250 1613 
L 3250 1097 
L 2631 1097 
L 2631 0 
L 2069 0 
z
M 2069 1613 
L 2069 3678 
L 634 1613 
L 2069 1613 
z
" transform="scale(0.015625)"/>
     <path id="ArialMT-39" d="M 350 1059 
L 891 1109 
Q 959 728 1153 556 
Q 1347 384 1650 384 
Q 1909 384 2104 503 
Q 2300 622 2425 820 
Q 2550 1019 2634 1356 
Q 2719 1694 2719 2044 
Q 2719 2081 2716 2156 
Q 2547 1888 2255 1720 
Q 1963 1553 1622 1553 
Q 1053 1553 659 1965 
Q 266 2378 266 3053 
Q 266 3750 677 4175 
Q 1088 4600 1706 4600 
Q 2153 4600 2523 4359 
Q 2894 4119 3086 3673 
Q 3278 3228 3278 2384 
Q 3278 1506 3087 986 
Q 2897 466 2520 194 
Q 2144 -78 1638 -78 
Q 1100 -78 759 220 
Q 419 519 350 1059 
z
M 2653 3081 
Q 2653 3566 2395 3850 
Q 2138 4134 1775 4134 
Q 1400 4134 1122 3828 
Q 844 3522 844 3034 
Q 844 2597 1108 2323 
Q 1372 2050 1759 2050 
Q 2150 2050 2401 2323 
Q 2653 2597 2653 3081 
z
" transform="scale(0.015625)"/>
     <path id="ArialMT-4e" d="M 488 0 
L 488 4581 
L 1109 4581 
L 3516 984 
L 3516 4581 
L 4097 4581 
L 4097 0 
L 3475 0 
L 1069 3600 
L 1069 0 
L 488 0 
z
" transform="scale(0.015625)"/>
     <path id="ArialMT-2c" d="M 569 0 
L 569 641 
L 1209 641 
L 1209 0 
Q 1209 -353 1084 -570 
Q 959 -788 688 -906 
L 531 -666 
Q 709 -588 793 -436 
Q 878 -284 888 0 
L 569 0 
z
" transform="scale(0.015625)"/>
     <path id="ArialMT-36" d="M 3184 3459 
L 2625 3416 
Q 2550 3747 2413 3897 
Q 2184 4138 1850 4138 
Q 1581 4138 1378 3988 
Q 1113 3794 959 3422 
Q 806 3050 800 2363 
Q 1003 2672 1297 2822 
Q 1591 2972 1913 2972 
Q 2475 2972 2870 2558 
Q 3266 2144 3266 1488 
Q 3266 1056 3080 686 
Q 2894 316 2569 119 
Q 2244 -78 1831 -78 
Q 1128 -78 684 439 
Q 241 956 241 2144 
Q 241 3472 731 4075 
Q 1159 4600 1884 4600 
Q 2425 4600 2770 4297 
Q 3116 3994 3184 3459 
z
M 888 1484 
Q 888 1194 1011 928 
Q 1134 663 1356 523 
Q 1578 384 1822 384 
Q 2178 384 2434 671 
Q 2691 959 2691 1453 
Q 2691 1928 2437 2201 
Q 2184 2475 1800 2475 
Q 1419 2475 1153 2201 
Q 888 1928 888 1484 
z
" transform="scale(0.015625)"/>
    </defs>
    <use xlink:href="#ArialMT-46"/>
    <use xlink:href="#ArialMT-69" transform="translate(61.083984 0)"/>
    <use xlink:href="#ArialMT-67" transform="translate(83.300781 0)"/>
    <use xlink:href="#ArialMT-75" transform="translate(138.916016 0)"/>
    <use xlink:href="#ArialMT-72" transform="translate(194.53125 0)"/>
    <use xlink:href="#ArialMT-65" transform="translate(227.832031 0)"/>
    <use xlink:href="#ArialMT-20" transform="translate(283.447266 0)"/>
    <use xlink:href="#ArialMT-33" transform="translate(311.230469 0)"/>
    <use xlink:href="#ArialMT-3a" transform="translate(366.845703 0)"/>
    <use xlink:href="#ArialMT-20" transform="translate(394.628906 0)"/>
    <use xlink:href="#ArialMT-50" transform="translate(422.412109 0)"/>
    <use xlink:href="#ArialMT-72" transform="translate(489.111328 0)"/>
    <use xlink:href="#ArialMT-65" transform="translate(522.412109 0)"/>
    <use xlink:href="#ArialMT-66" transform="translate(578.027344 0)"/>
    <use xlink:href="#ArialMT-65" transform="translate(605.810547 0)"/>
    <use xlink:href="#ArialMT-72" transform="translate(661.425781 0)"/>
    <use xlink:href="#ArialMT-72" transform="translate(694.726562 0)"/>
    <use xlink:href="#ArialMT-65" transform="translate(728.027344 0)"/>
    <use xlink:href="#ArialMT-64" transform="translate(783.642578 0)"/>
    <use xlink:href="#ArialMT-20" transform="translate(839.257812 0)"/>
    <use xlink:href="#ArialMT-64" transform="translate(867.041016 0)"/>
    <use xlink:href="#ArialMT-72" transform="translate(922.65625 0)"/>
    <use xlink:href="#ArialMT-69" transform="translate(955.957031 0)"/>
    <use xlink:href="#ArialMT-76" transform="translate(978.173828 0)"/>
    <use xlink:href="#ArialMT-65" transform="translate(1028.173828 0)"/>
    <use xlink:href="#ArialMT-72" transform="translate(1083.789062 0)"/>
    <use xlink:href="#ArialMT-2d" transform="translate(1117.089844 0)"/>
    <use xlink:href="#ArialMT-64" transform="translate(1150.390625 0)"/>
    <use xlink:href="#ArialMT-61" transform="translate(1206.005859 0)"/>
    <use xlink:href="#ArialMT-79" transform="translate(1261.621094 0)"/>
    <use xlink:href="#ArialMT-20" transform="translate(1311.621094 0)"/>
    <use xlink:href="#ArialMT-49" transform="translate(1339.404297 0)"/>
    <use xlink:href="#ArialMT-56" transform="translate(1367.1875 0)"/>
    <use xlink:href="#ArialMT-20" transform="translate(1433.886719 0)"/>
    <use xlink:href="#ArialMT-73" transform="translate(1461.669922 0)"/>
    <use xlink:href="#ArialMT-74" transform="translate(1511.669922 0)"/>
    <use xlink:href="#ArialMT-61" transform="translate(1539.453125 0)"/>
    <use xlink:href="#ArialMT-67" transform="translate(1595.068359 0)"/>
    <use xlink:href="#ArialMT-65" transform="translate(1650.683594 0)"/>
    <use xlink:href="#ArialMT-73" transform="translate(1706.298828 0)"/>
    <use xlink:href="#ArialMT-20" transform="translate(1756.298828 0)"/>
    <use xlink:href="#ArialMT-7c" transform="translate(1784.082031 0)"/>
    <use xlink:href="#ArialMT-20" transform="translate(1810.058594 0)"/>
    <use xlink:href="#ArialMT-4f" transform="translate(1837.841797 0)"/>
    <use xlink:href="#ArialMT-4c" transform="translate(1915.625 0)"/>
    <use xlink:href="#ArialMT-53" transform="translate(1971.240234 0)"/>
    <use xlink:href="#ArialMT-3d" transform="translate(2037.939453 0)"/>
    <use xlink:href="#ArialMT-2d" transform="translate(2096.337891 0)"/>
    <use xlink:href="#ArialMT-30" transform="translate(2129.638672 0)"/>
    <use xlink:href="#ArialMT-2e" transform="translate(2185.253906 0)"/>
    <use xlink:href="#ArialMT-34" transform="translate(2213.037109 0)"/>
    <use xlink:href="#ArialMT-34" transform="translate(2268.652344 0)"/>
    <use xlink:href="#ArialMT-39" transform="translate(2324.267578 0)"/>
    <use xlink:href="#ArialMT-20" transform="translate(2379.882812 0)"/>
    <use xlink:href="#ArialMT-7c" transform="translate(2407.666016 0)"/>
    <use xlink:href="#ArialMT-20" transform="translate(2433.642578 0)"/>
    <use xlink:href="#ArialMT-49" transform="translate(2461.425781 0)"/>
    <use xlink:href="#ArialMT-56" transform="translate(2489.208984 0)"/>
    <use xlink:href="#ArialMT-3d" transform="translate(2555.908203 0)"/>
    <use xlink:href="#ArialMT-31" transform="translate(2614.306641 0)"/>
    <use xlink:href="#ArialMT-2e" transform="translate(2669.921875 0)"/>
    <use xlink:href="#ArialMT-30" transform="translate(2697.705078 0)"/>
    <use xlink:href="#ArialMT-35" transform="translate(2753.320312 0)"/>
    <use xlink:href="#ArialMT-39" transform="translate(2808.935547 0)"/>
    <use xlink:href="#ArialMT-20" transform="translate(2864.550781 0)"/>
    <use xlink:href="#ArialMT-7c" transform="translate(2892.333984 0)"/>
    <use xlink:href="#ArialMT-20" transform="translate(2918.310547 0)"/>
    <use xlink:href="#ArialMT-46" transform="translate(2946.09375 0)"/>
    <use xlink:href="#ArialMT-69" transform="translate(3007.177734 0)"/>
    <use xlink:href="#ArialMT-72" transform="translate(3029.394531 0)"/>
    <use xlink:href="#ArialMT-73" transform="translate(3062.695312 0)"/>
    <use xlink:href="#ArialMT-74" transform="translate(3112.695312 0)"/>
    <use xlink:href="#ArialMT-2d" transform="translate(3140.478516 0)"/>
    <use xlink:href="#ArialMT-73" transform="translate(3173.779297 0)"/>
    <use xlink:href="#ArialMT-74" transform="translate(3223.779297 0)"/>
    <use xlink:href="#ArialMT-61" transform="translate(3251.5625 0)"/>
    <use xlink:href="#ArialMT-67" transform="translate(3307.177734 0)"/>
    <use xlink:href="#ArialMT-65" transform="translate(3362.792969 0)"/>
    <use xlink:href="#ArialMT-3d" transform="translate(3418.408203 0)"/>
    <use xlink:href="#ArialMT-32" transform="translate(3476.806641 0)"/>
    <use xlink:href="#ArialMT-34" transform="translate(3532.421875 0)"/>
    <use xlink:href="#ArialMT-32" transform="translate(3588.037109 0)"/>
    <use xlink:href="#ArialMT-39" transform="translate(3643.652344 0)"/>
    <use xlink:href="#ArialMT-20" transform="translate(3699.267578 0)"/>
    <use xlink:href="#ArialMT-7c" transform="translate(3727.050781 0)"/>
    <use xlink:href="#ArialMT-20" transform="translate(3753.027344 0)"/>
    <use xlink:href="#ArialMT-4e" transform="translate(3780.810547 0)"/>
    <use xlink:href="#ArialMT-3d" transform="translate(3853.027344 0)"/>
    <use xlink:href="#ArialMT-33" transform="translate(3911.425781 0)"/>
    <use xlink:href="#ArialMT-33" transform="translate(3967.041016 0)"/>
    <use xlink:href="#ArialMT-31" transform="translate(4022.65625 0)"/>
    <use xlink:href="#ArialMT-2c" transform="translate(4078.271484 0)"/>
    <use xlink:href="#ArialMT-36" transform="translate(4106.054688 0)"/>
    <use xlink:href="#ArialMT-32" transform="translate(4161.669922 0)"/>
    <use xlink:href="#ArialMT-39" transform="translate(4217.285156 0)"/>
   </g>
  </g>
 </g>
 <defs>
  <clipPath id="p4ad4e2d1ec">
   <rect x="58.446875" y="62.350875" width="366.393517" height="231.30625"/>
  </clipPath>
  <clipPath id="p03a6153cbb">
   <rect x="480.962267" y="62.350875" width="366.393517" height="231.30625"/>
  </clipPath>
 </defs>
</svg>
