<?xml version="1.0" encoding="utf-8" standalone="no"?>
<!DOCTYPE svg PUBLIC "-//W3C//DTD SVG 1.1//EN"
  "http://www.w3.org/Graphics/SVG/1.1/DTD/svg11.dtd">
<svg xmlns:xlink="http://www.w3.org/1999/xlink" width="857.164062pt" height="314.546812pt" viewBox="0 0 857.164062 314.546812" xmlns="http://www.w3.org/2000/svg" version="1.1">
 <metadata>
  <rdf:RDF xmlns:dc="http://purl.org/dc/elements/1.1/" xmlns:cc="http://creativecommons.org/ns#" xmlns:rdf="http://www.w3.org/1999/02/22-rdf-syntax-ns#">
   <cc:Work>
    <dc:type rdf:resource="http://purl.org/dc/dcmitype/StillImage"/>
    <dc:date>2026-06-12T21:03:19.100452</dc:date>
    <dc:format>image/svg+xml</dc:format>
    <dc:creator>
     <cc:Agent>
      <dc:title>Matplotlib v3.10.8, https://matplotlib.org/</dc:title>
     </cc:Agent>
    </dc:creator>
   </cc:Work>
  </rdf:RDF>
 </metadata>
 <defs>
  <style type="text/css">*{stroke-linejoin: round; stroke-linecap: butt}</style>
 </defs>
 <g id="figure_1">
  <g id="patch_1">
   <path d="M 0 314.546812 
L 857.164062 314.546812 
L 857.164062 0 
L 0 0 
z
"/>
  </g>
  <g id="axes_1">
   <g id="patch_2">
    <path d="M 52.885938 277.817125 
L 423.364063 277.817125 
L 423.364063 48.864 
L 52.885938 48.864 
z
"/>
   </g>
   <g id="matplotlib.axis_1">
    <g id="xtick_1">
     <g id="line2d_1">
      <path d="M 86.112988 277.817125 
L 86.112988 48.864 
" clip-path="url(#p136d85b9a1)" style="fill: none; stroke: #ffffff; stroke-opacity: 0.25; stroke-width: 0.8; stroke-linecap: round"/>
     </g>
     <g id="text_1">
      <!-- −0.100 -->
      <g style="fill: #ffffff" transform="translate(70.681738 291.974937) scale(0.1 -0.1)">
       <defs>
        <path id="ArialMT-2212" d="M 3381 1997 
L 356 1997 
L 356 2522 
L 3381 2522 
L 3381 1997 
z
" transform="scale(0.015625)"/>
        <path id="ArialMT-30" d="M 266 2259 
Q 266 3072 433 3567 
Q 600 4063 929 4331 
Q 1259 4600 1759 4600 
Q 2128 4600 2406 4451 
Q 2684 4303 2865 4023 
Q 3047 3744 3150 3342 
Q 3253 2941 3253 2259 
Q 3253 1453 3087 958 
Q 2922 463 2592 192 
Q 2263 -78 1759 -78 
Q 1097 -78 719 397 
Q 266 969 266 2259 
z
M 844 2259 
Q 844 1131 1108 757 
Q 1372 384 1759 384 
Q 2147 384 2411 759 
Q 2675 1134 2675 2259 
Q 2675 3391 2411 3762 
Q 2147 4134 1753 4134 
Q 1366 4134 1134 3806 
Q 844 3388 844 2259 
z
" transform="scale(0.015625)"/>
        <path id="ArialMT-2e" d="M 581 0 
L 581 641 
L 1222 641 
L 1222 0 
L 581 0 
z
" transform="scale(0.015625)"/>
        <path id="ArialMT-31" d="M 2384 0 
L 1822 0 
L 1822 3584 
Q 1619 3391 1289 3197 
Q 959 3003 697 2906 
L 697 3450 
Q 1169 3672 1522 3987 
Q 1875 4303 2022 4600 
L 2384 4600 
L 2384 0 
z
" transform="scale(0.015625)"/>
       </defs>
       <use xlink:href="#ArialMT-2212"/>
       <use xlink:href="#ArialMT-30" transform="translate(58.398438 0)"/>
       <use xlink:href="#ArialMT-2e" transform="translate(114.013672 0)"/>
       <use xlink:href="#ArialMT-31" transform="translate(141.796875 0)"/>
       <use xlink:href="#ArialMT-30" transform="translate(197.412109 0)"/>
       <use xlink:href="#ArialMT-30" transform="translate(253.027344 0)"/>
      </g>
     </g>
    </g>
    <g id="xtick_2">
     <g id="line2d_2">
      <path d="M 128.958355 277.817125 
L 128.958355 48.864 
" clip-path="url(#p136d85b9a1)" style="fill: none; stroke: #ffffff; stroke-opacity: 0.25; stroke-width: 0.8; stroke-linecap: round"/>
     </g>
     <g id="text_2">
      <!-- −0.075 -->
      <g style="fill: #ffffff" transform="translate(113.527105 291.974937) scale(0.1 -0.1)">
       <defs>
        <path id="ArialMT-37" d="M 303 3981 
L 303 4522 
L 3269 4522 
L 3269 4084 
Q 2831 3619 2401 2847 
Q 1972 2075 1738 1259 
Q 1569 684 1522 0 
L 944 0 
Q 953 541 1156 1306 
Q 1359 2072 1739 2783 
Q 2119 3494 2547 3981 
L 303 3981 
z
" transform="scale(0.015625)"/>
        <path id="ArialMT-35" d="M 266 1200 
L 856 1250 
Q 922 819 1161 601 
Q 1400 384 1738 384 
Q 2144 384 2425 690 
Q 2706 997 2706 1503 
Q 2706 1984 2436 2262 
Q 2166 2541 1728 2541 
Q 1456 2541 1237 2417 
Q 1019 2294 894 2097 
L 366 2166 
L 809 4519 
L 3088 4519 
L 3088 3981 
L 1259 3981 
L 1013 2750 
Q 1425 3038 1878 3038 
Q 2478 3038 2890 2622 
Q 3303 2206 3303 1553 
Q 3303 931 2941 478 
Q 2500 -78 1738 -78 
Q 1113 -78 717 272 
Q 322 622 266 1200 
z
" transform="scale(0.015625)"/>
       </defs>
       <use xlink:href="#ArialMT-2212"/>
       <use xlink:href="#ArialMT-30" transform="translate(58.398438 0)"/>
       <use xlink:href="#ArialMT-2e" transform="translate(114.013672 0)"/>
       <use xlink:href="#ArialMT-30" transform="translate(141.796875 0)"/>
       <use xlink:href="#ArialMT-37" transform="translate(197.412109 0)"/>
       <use xlink:href="#ArialMT-35" transform="translate(253.027344 0)"/>
      </g>
     </g>
    </g>
    <g id="xtick_3">
     <g id="line2d_3">
      <path d="M 171.803722 277.817125 
L 171.803722 48.864 
" clip-path="url(#p136d85b9a1)" style="fill: none; stroke: #ffffff; stroke-opacity: 0.25; stroke-width: 0.8; stroke-linecap: round"/>
     </g>
     <g id="text_3">
      <!-- −0.050 -->
      <g style="fill: #ffffff" transform="translate(156.372472 291.974937) scale(0.1 -0.1)">
       <use xlink:href="#ArialMT-2212"/>
       <use xlink:href="#ArialMT-30" transform="translate(58.398438 0)"/>
       <use xlink:href="#ArialMT-2e" transform="translate(114.013672 0)"/>
       <use xlink:href="#ArialMT-30" transform="translate(141.796875 0)"/>
       <use xlink:href="#ArialMT-35" transform="translate(197.412109 0)"/>
       <use xlink:href="#ArialMT-30" transform="translate(253.027344 0)"/>
      </g>
     </g>
    </g>
    <g id="xtick_4">
     <g id="line2d_4">
      <path d="M 214.649089 277.817125 
L 214.649089 48.864 
" clip-path="url(#p136d85b9a1)" style="fill: none; stroke: #ffffff; stroke-opacity: 0.25; stroke-width: 0.8; stroke-linecap: round"/>
     </g>
     <g id="text_4">
      <!-- −0.025 -->
      <g style="fill: #ffffff" transform="translate(199.217839 291.974937) scale(0.1 -0.1)">
       <defs>
        <path id="ArialMT-32" d="M 3222 541 
L 3222 0 
L 194 0 
Q 188 203 259 391 
Q 375 700 629 1000 
Q 884 1300 1366 1694 
Q 2113 2306 2375 2664 
Q 2638 3022 2638 3341 
Q 2638 3675 2398 3904 
Q 2159 4134 1775 4134 
Q 1369 4134 1125 3890 
Q 881 3647 878 3216 
L 300 3275 
Q 359 3922 746 4261 
Q 1134 4600 1788 4600 
Q 2447 4600 2831 4234 
Q 3216 3869 3216 3328 
Q 3216 3053 3103 2787 
Q 2991 2522 2730 2228 
Q 2469 1934 1863 1422 
Q 1356 997 1212 845 
Q 1069 694 975 541 
L 3222 541 
z
" transform="scale(0.015625)"/>
       </defs>
       <use xlink:href="#ArialMT-2212"/>
       <use xlink:href="#ArialMT-30" transform="translate(58.398438 0)"/>
       <use xlink:href="#ArialMT-2e" transform="translate(114.013672 0)"/>
       <use xlink:href="#ArialMT-30" transform="translate(141.796875 0)"/>
       <use xlink:href="#ArialMT-32" transform="translate(197.412109 0)"/>
       <use xlink:href="#ArialMT-35" transform="translate(253.027344 0)"/>
      </g>
     </g>
    </g>
    <g id="xtick_5">
     <g id="line2d_5">
      <path d="M 257.494456 277.817125 
L 257.494456 48.864 
" clip-path="url(#p136d85b9a1)" style="fill: none; stroke: #ffffff; stroke-opacity: 0.25; stroke-width: 0.8; stroke-linecap: round"/>
     </g>
     <g id="text_5">
      <!-- 0.000 -->
      <g style="fill: #ffffff" transform="translate(244.983518 291.974937) scale(0.1 -0.1)">
       <use xlink:href="#ArialMT-30"/>
       <use xlink:href="#ArialMT-2e" transform="translate(55.615234 0)"/>
       <use xlink:href="#ArialMT-30" transform="translate(83.398438 0)"/>
       <use xlink:href="#ArialMT-30" transform="translate(139.013672 0)"/>
       <use xlink:href="#ArialMT-30" transform="translate(194.628906 0)"/>
      </g>
     </g>
    </g>
    <g id="xtick_6">
     <g id="line2d_6">
      <path d="M 300.339823 277.817125 
L 300.339823 48.864 
" clip-path="url(#p136d85b9a1)" style="fill: none; stroke: #ffffff; stroke-opacity: 0.25; stroke-width: 0.8; stroke-linecap: round"/>
     </g>
     <g id="text_6">
      <!-- 0.025 -->
      <g style="fill: #ffffff" transform="translate(287.828885 291.974937) scale(0.1 -0.1)">
       <use xlink:href="#ArialMT-30"/>
       <use xlink:href="#ArialMT-2e" transform="translate(55.615234 0)"/>
       <use xlink:href="#ArialMT-30" transform="translate(83.398438 0)"/>
       <use xlink:href="#ArialMT-32" transform="translate(139.013672 0)"/>
       <use xlink:href="#ArialMT-35" transform="translate(194.628906 0)"/>
      </g>
     </g>
    </g>
    <g id="xtick_7">
     <g id="line2d_7">
      <path d="M 343.18519 277.817125 
L 343.18519 48.864 
" clip-path="url(#p136d85b9a1)" style="fill: none; stroke: #ffffff; stroke-opacity: 0.25; stroke-width: 0.8; stroke-linecap: round"/>
     </g>
     <g id="text_7">
      <!-- 0.050 -->
      <g style="fill: #ffffff" transform="translate(330.674252 291.974937) scale(0.1 -0.1)">
       <use xlink:href="#ArialMT-30"/>
       <use xlink:href="#ArialMT-2e" transform="translate(55.615234 0)"/>
       <use xlink:href="#ArialMT-30" transform="translate(83.398438 0)"/>
       <use xlink:href="#ArialMT-35" transform="translate(139.013672 0)"/>
       <use xlink:href="#ArialMT-30" transform="translate(194.628906 0)"/>
      </g>
     </g>
    </g>
    <g id="xtick_8">
     <g id="line2d_8">
      <path d="M 386.030556 277.817125 
L 386.030556 48.864 
" clip-path="url(#p136d85b9a1)" style="fill: none; stroke: #ffffff; stroke-opacity: 0.25; stroke-width: 0.8; stroke-linecap: round"/>
     </g>
     <g id="text_8">
      <!-- 0.075 -->
      <g style="fill: #ffffff" transform="translate(373.519619 291.974937) scale(0.1 -0.1)">
       <use xlink:href="#ArialMT-30"/>
       <use xlink:href="#ArialMT-2e" transform="translate(55.615234 0)"/>
       <use xlink:href="#ArialMT-30" transform="translate(83.398438 0)"/>
       <use xlink:href="#ArialMT-37" transform="translate(139.013672 0)"/>
       <use xlink:href="#ArialMT-35" transform="translate(194.628906 0)"/>
      </g>
     </g>
    </g>
    <g id="text_9">
     <!-- Log leave-one-out revenue/trip (demeaned) -->
     <g style="fill: #ffffff" transform="translate(141.683594 305.242125) scale(0.1 -0.1)">
      <defs>
       <path id="ArialMT-4c" d="M 469 0 
L 469 4581 
L 1075 4581 
L 1075 541 
L 3331 541 
L 3331 0 
L 469 0 
z
" transform="scale(0.015625)"/>
       <path id="ArialMT-6f" d="M 213 1659 
Q 213 2581 725 3025 
Q 1153 3394 1769 3394 
Q 2453 3394 2887 2945 
Q 3322 2497 3322 1706 
Q 3322 1066 3130 698 
Q 2938 331 2570 128 
Q 2203 -75 1769 -75 
Q 1072 -75 642 372 
Q 213 819 213 1659 
z
M 791 1659 
Q 791 1022 1069 705 
Q 1347 388 1769 388 
Q 2188 388 2466 706 
Q 2744 1025 2744 1678 
Q 2744 2294 2464 2611 
Q 2184 2928 1769 2928 
Q 1347 2928 1069 2612 
Q 791 2297 791 1659 
z
" transform="scale(0.015625)"/>
       <path id="ArialMT-67" d="M 319 -275 
L 866 -356 
Q 900 -609 1056 -725 
Q 1266 -881 1628 -881 
Q 2019 -881 2231 -725 
Q 2444 -569 2519 -288 
Q 2563 -116 2559 434 
Q 2191 0 1641 0 
Q 956 0 581 494 
Q 206 988 206 1678 
Q 206 2153 378 2554 
Q 550 2956 876 3175 
Q 1203 3394 1644 3394 
Q 2231 3394 2613 2919 
L 2613 3319 
L 3131 3319 
L 3131 450 
Q 3131 -325 2973 -648 
Q 2816 -972 2473 -1159 
Q 2131 -1347 1631 -1347 
Q 1038 -1347 672 -1080 
Q 306 -813 319 -275 
z
M 784 1719 
Q 784 1066 1043 766 
Q 1303 466 1694 466 
Q 2081 466 2343 764 
Q 2606 1063 2606 1700 
Q 2606 2309 2336 2618 
Q 2066 2928 1684 2928 
Q 1309 2928 1046 2623 
Q 784 2319 784 1719 
z
" transform="scale(0.015625)"/>
       <path id="ArialMT-20" transform="scale(0.015625)"/>
       <path id="ArialMT-6c" d="M 409 0 
L 409 4581 
L 972 4581 
L 972 0 
L 409 0 
z
" transform="scale(0.015625)"/>
       <path id="ArialMT-65" d="M 2694 1069 
L 3275 997 
Q 3138 488 2766 206 
Q 2394 -75 1816 -75 
Q 1088 -75 661 373 
Q 234 822 234 1631 
Q 234 2469 665 2931 
Q 1097 3394 1784 3394 
Q 2450 3394 2872 2941 
Q 3294 2488 3294 1666 
Q 3294 1616 3291 1516 
L 816 1516 
Q 847 969 1125 678 
Q 1403 388 1819 388 
Q 2128 388 2347 550 
Q 2566 713 2694 1069 
z
M 847 1978 
L 2700 1978 
Q 2663 2397 2488 2606 
Q 2219 2931 1791 2931 
Q 1403 2931 1139 2672 
Q 875 2413 847 1978 
z
" transform="scale(0.015625)"/>
       <path id="ArialMT-61" d="M 2588 409 
Q 2275 144 1986 34 
Q 1697 -75 1366 -75 
Q 819 -75 525 192 
Q 231 459 231 875 
Q 231 1119 342 1320 
Q 453 1522 633 1644 
Q 813 1766 1038 1828 
Q 1203 1872 1538 1913 
Q 2219 1994 2541 2106 
Q 2544 2222 2544 2253 
Q 2544 2597 2384 2738 
Q 2169 2928 1744 2928 
Q 1347 2928 1158 2789 
Q 969 2650 878 2297 
L 328 2372 
Q 403 2725 575 2942 
Q 747 3159 1072 3276 
Q 1397 3394 1825 3394 
Q 2250 3394 2515 3294 
Q 2781 3194 2906 3042 
Q 3031 2891 3081 2659 
Q 3109 2516 3109 2141 
L 3109 1391 
Q 3109 606 3145 398 
Q 3181 191 3288 0 
L 2700 0 
Q 2613 175 2588 409 
z
M 2541 1666 
Q 2234 1541 1622 1453 
Q 1275 1403 1131 1340 
Q 988 1278 909 1158 
Q 831 1038 831 891 
Q 831 666 1001 516 
Q 1172 366 1500 366 
Q 1825 366 2078 508 
Q 2331 650 2450 897 
Q 2541 1088 2541 1459 
L 2541 1666 
z
" transform="scale(0.015625)"/>
       <path id="ArialMT-76" d="M 1344 0 
L 81 3319 
L 675 3319 
L 1388 1331 
Q 1503 1009 1600 663 
Q 1675 925 1809 1294 
L 2547 3319 
L 3125 3319 
L 1869 0 
L 1344 0 
z
" transform="scale(0.015625)"/>
       <path id="ArialMT-2d" d="M 203 1375 
L 203 1941 
L 1931 1941 
L 1931 1375 
L 203 1375 
z
" transform="scale(0.015625)"/>
       <path id="ArialMT-6e" d="M 422 0 
L 422 3319 
L 928 3319 
L 928 2847 
Q 1294 3394 1984 3394 
Q 2284 3394 2536 3286 
Q 2788 3178 2913 3003 
Q 3038 2828 3088 2588 
Q 3119 2431 3119 2041 
L 3119 0 
L 2556 0 
L 2556 2019 
Q 2556 2363 2490 2533 
Q 2425 2703 2258 2804 
Q 2091 2906 1866 2906 
Q 1506 2906 1245 2678 
Q 984 2450 984 1813 
L 984 0 
L 422 0 
z
" transform="scale(0.015625)"/>
       <path id="ArialMT-75" d="M 2597 0 
L 2597 488 
Q 2209 -75 1544 -75 
Q 1250 -75 995 37 
Q 741 150 617 320 
Q 494 491 444 738 
Q 409 903 409 1263 
L 409 3319 
L 972 3319 
L 972 1478 
Q 972 1038 1006 884 
Q 1059 663 1231 536 
Q 1403 409 1656 409 
Q 1909 409 2131 539 
Q 2353 669 2445 892 
Q 2538 1116 2538 1541 
L 2538 3319 
L 3100 3319 
L 3100 0 
L 2597 0 
z
" transform="scale(0.015625)"/>
       <path id="ArialMT-74" d="M 1650 503 
L 1731 6 
Q 1494 -44 1306 -44 
Q 1000 -44 831 53 
Q 663 150 594 308 
Q 525 466 525 972 
L 525 2881 
L 113 2881 
L 113 3319 
L 525 3319 
L 525 4141 
L 1084 4478 
L 1084 3319 
L 1650 3319 
L 1650 2881 
L 1084 2881 
L 1084 941 
Q 1084 700 1114 631 
Q 1144 563 1211 522 
Q 1278 481 1403 481 
Q 1497 481 1650 503 
z
" transform="scale(0.015625)"/>
       <path id="ArialMT-72" d="M 416 0 
L 416 3319 
L 922 3319 
L 922 2816 
Q 1116 3169 1280 3281 
Q 1444 3394 1641 3394 
Q 1925 3394 2219 3213 
L 2025 2691 
Q 1819 2813 1613 2813 
Q 1428 2813 1281 2702 
Q 1134 2591 1072 2394 
Q 978 2094 978 1738 
L 978 0 
L 416 0 
z
" transform="scale(0.015625)"/>
       <path id="ArialMT-2f" d="M 0 -78 
L 1328 4659 
L 1778 4659 
L 453 -78 
L 0 -78 
z
" transform="scale(0.015625)"/>
       <path id="ArialMT-69" d="M 425 3934 
L 425 4581 
L 988 4581 
L 988 3934 
L 425 3934 
z
M 425 0 
L 425 3319 
L 988 3319 
L 988 0 
L 425 0 
z
" transform="scale(0.015625)"/>
       <path id="ArialMT-70" d="M 422 -1272 
L 422 3319 
L 934 3319 
L 934 2888 
Q 1116 3141 1344 3267 
Q 1572 3394 1897 3394 
Q 2322 3394 2647 3175 
Q 2972 2956 3137 2557 
Q 3303 2159 3303 1684 
Q 3303 1175 3120 767 
Q 2938 359 2589 142 
Q 2241 -75 1856 -75 
Q 1575 -75 1351 44 
Q 1128 163 984 344 
L 984 -1272 
L 422 -1272 
z
M 931 1641 
Q 931 1000 1190 694 
Q 1450 388 1819 388 
Q 2194 388 2461 705 
Q 2728 1022 2728 1688 
Q 2728 2322 2467 2637 
Q 2206 2953 1844 2953 
Q 1484 2953 1207 2617 
Q 931 2281 931 1641 
z
" transform="scale(0.015625)"/>
       <path id="ArialMT-28" d="M 1497 -1347 
Q 1031 -759 709 28 
Q 388 816 388 1659 
Q 388 2403 628 3084 
Q 909 3875 1497 4659 
L 1900 4659 
Q 1522 4009 1400 3731 
Q 1209 3300 1100 2831 
Q 966 2247 966 1656 
Q 966 153 1900 -1347 
L 1497 -1347 
z
" transform="scale(0.015625)"/>
       <path id="ArialMT-64" d="M 2575 0 
L 2575 419 
Q 2259 -75 1647 -75 
Q 1250 -75 917 144 
Q 584 363 401 755 
Q 219 1147 219 1656 
Q 219 2153 384 2558 
Q 550 2963 881 3178 
Q 1213 3394 1622 3394 
Q 1922 3394 2156 3267 
Q 2391 3141 2538 2938 
L 2538 4581 
L 3097 4581 
L 3097 0 
L 2575 0 
z
M 797 1656 
Q 797 1019 1065 703 
Q 1334 388 1700 388 
Q 2069 388 2326 689 
Q 2584 991 2584 1609 
Q 2584 2291 2321 2609 
Q 2059 2928 1675 2928 
Q 1300 2928 1048 2622 
Q 797 2316 797 1656 
z
" transform="scale(0.015625)"/>
       <path id="ArialMT-6d" d="M 422 0 
L 422 3319 
L 925 3319 
L 925 2853 
Q 1081 3097 1340 3245 
Q 1600 3394 1931 3394 
Q 2300 3394 2536 3241 
Q 2772 3088 2869 2813 
Q 3263 3394 3894 3394 
Q 4388 3394 4653 3120 
Q 4919 2847 4919 2278 
L 4919 0 
L 4359 0 
L 4359 2091 
Q 4359 2428 4304 2576 
Q 4250 2725 4106 2815 
Q 3963 2906 3769 2906 
Q 3419 2906 3187 2673 
Q 2956 2441 2956 1928 
L 2956 0 
L 2394 0 
L 2394 2156 
Q 2394 2531 2256 2718 
Q 2119 2906 1806 2906 
Q 1569 2906 1367 2781 
Q 1166 2656 1075 2415 
Q 984 2175 984 1722 
L 984 0 
L 422 0 
z
" transform="scale(0.015625)"/>
       <path id="ArialMT-29" d="M 791 -1347 
L 388 -1347 
Q 1322 153 1322 1656 
Q 1322 2244 1188 2822 
Q 1081 3291 891 3722 
Q 769 4003 388 4659 
L 791 4659 
Q 1378 3875 1659 3084 
Q 1900 2403 1900 1659 
Q 1900 816 1576 28 
Q 1253 -759 791 -1347 
z
" transform="scale(0.015625)"/>
      </defs>
      <use xlink:href="#ArialMT-4c"/>
      <use xlink:href="#ArialMT-6f" transform="translate(55.615234 0)"/>
      <use xlink:href="#ArialMT-67" transform="translate(111.230469 0)"/>
      <use xlink:href="#ArialMT-20" transform="translate(166.845703 0)"/>
      <use xlink:href="#ArialMT-6c" transform="translate(194.628906 0)"/>
      <use xlink:href="#ArialMT-65" transform="translate(216.845703 0)"/>
      <use xlink:href="#ArialMT-61" transform="translate(272.460938 0)"/>
      <use xlink:href="#ArialMT-76" transform="translate(328.076172 0)"/>
      <use xlink:href="#ArialMT-65" transform="translate(378.076172 0)"/>
      <use xlink:href="#ArialMT-2d" transform="translate(433.691406 0)"/>
      <use xlink:href="#ArialMT-6f" transform="translate(466.992188 0)"/>
      <use xlink:href="#ArialMT-6e" transform="translate(522.607422 0)"/>
      <use xlink:href="#ArialMT-65" transform="translate(578.222656 0)"/>
      <use xlink:href="#ArialMT-2d" transform="translate(633.837891 0)"/>
      <use xlink:href="#ArialMT-6f" transform="translate(667.138672 0)"/>
      <use xlink:href="#ArialMT-75" transform="translate(722.753906 0)"/>
      <use xlink:href="#ArialMT-74" transform="translate(778.369141 0)"/>
      <use xlink:href="#ArialMT-20" transform="translate(806.152344 0)"/>
      <use xlink:href="#ArialMT-72" transform="translate(833.935547 0)"/>
      <use xlink:href="#ArialMT-65" transform="translate(867.236328 0)"/>
      <use xlink:href="#ArialMT-76" transform="translate(922.851562 0)"/>
      <use xlink:href="#ArialMT-65" transform="translate(972.851562 0)"/>
      <use xlink:href="#ArialMT-6e" transform="translate(1028.466797 0)"/>
      <use xlink:href="#ArialMT-75" transform="translate(1084.082031 0)"/>
      <use xlink:href="#ArialMT-65" transform="translate(1139.697266 0)"/>
      <use xlink:href="#ArialMT-2f" transform="translate(1195.3125 0)"/>
      <use xlink:href="#ArialMT-74" transform="translate(1223.095703 0)"/>
      <use xlink:href="#ArialMT-72" transform="translate(1250.878906 0)"/>
      <use xlink:href="#ArialMT-69" transform="translate(1284.179688 0)"/>
      <use xlink:href="#ArialMT-70" transform="translate(1306.396484 0)"/>
      <use xlink:href="#ArialMT-20" transform="translate(1362.011719 0)"/>
      <use xlink:href="#ArialMT-28" transform="translate(1389.794922 0)"/>
      <use xlink:href="#ArialMT-64" transform="translate(1423.095703 0)"/>
      <use xlink:href="#ArialMT-65" transform="translate(1478.710938 0)"/>
      <use xlink:href="#ArialMT-6d" transform="translate(1534.326172 0)"/>
      <use xlink:href="#ArialMT-65" transform="translate(1617.626953 0)"/>
      <use xlink:href="#ArialMT-61" transform="translate(1673.242188 0)"/>
      <use xlink:href="#ArialMT-6e" transform="translate(1728.857422 0)"/>
      <use xlink:href="#ArialMT-65" transform="translate(1784.472656 0)"/>
      <use xlink:href="#ArialMT-64" transform="translate(1840.087891 0)"/>
      <use xlink:href="#ArialMT-29" transform="translate(1895.703125 0)"/>
     </g>
    </g>
   </g>
   <g id="matplotlib.axis_2">
    <g id="ytick_1">
     <g id="line2d_9">
      <path d="M 52.885938 265.139457 
L 423.364063 265.139457 
" clip-path="url(#p136d85b9a1)" style="fill: none; stroke: #ffffff; stroke-opacity: 0.25; stroke-width: 0.8; stroke-linecap: round"/>
     </g>
     <g id="text_10">
      <!-- −0.08 -->
      <g style="fill: #ffffff" transform="translate(20.584375 268.718363) scale(0.1 -0.1)">
       <defs>
        <path id="ArialMT-38" d="M 1131 2484 
Q 781 2613 612 2850 
Q 444 3088 444 3419 
Q 444 3919 803 4259 
Q 1163 4600 1759 4600 
Q 2359 4600 2725 4251 
Q 3091 3903 3091 3403 
Q 3091 3084 2923 2848 
Q 2756 2613 2416 2484 
Q 2838 2347 3058 2040 
Q 3278 1734 3278 1309 
Q 3278 722 2862 322 
Q 2447 -78 1769 -78 
Q 1091 -78 675 323 
Q 259 725 259 1325 
Q 259 1772 486 2073 
Q 713 2375 1131 2484 
z
M 1019 3438 
Q 1019 3113 1228 2906 
Q 1438 2700 1772 2700 
Q 2097 2700 2305 2904 
Q 2513 3109 2513 3406 
Q 2513 3716 2298 3927 
Q 2084 4138 1766 4138 
Q 1444 4138 1231 3931 
Q 1019 3725 1019 3438 
z
M 838 1322 
Q 838 1081 952 856 
Q 1066 631 1291 507 
Q 1516 384 1775 384 
Q 2178 384 2440 643 
Q 2703 903 2703 1303 
Q 2703 1709 2433 1975 
Q 2163 2241 1756 2241 
Q 1359 2241 1098 1978 
Q 838 1716 838 1322 
z
" transform="scale(0.015625)"/>
       </defs>
       <use xlink:href="#ArialMT-2212"/>
       <use xlink:href="#ArialMT-30" transform="translate(58.398438 0)"/>
       <use xlink:href="#ArialMT-2e" transform="translate(114.013672 0)"/>
       <use xlink:href="#ArialMT-30" transform="translate(141.796875 0)"/>
       <use xlink:href="#ArialMT-38" transform="translate(197.412109 0)"/>
      </g>
     </g>
    </g>
    <g id="ytick_2">
     <g id="line2d_10">
      <path d="M 52.885938 236.667037 
L 423.364063 236.667037 
" clip-path="url(#p136d85b9a1)" style="fill: none; stroke: #ffffff; stroke-opacity: 0.25; stroke-width: 0.8; stroke-linecap: round"/>
     </g>
     <g id="text_11">
      <!-- −0.06 -->
      <g style="fill: #ffffff" transform="translate(20.584375 240.245943) scale(0.1 -0.1)">
       <defs>
        <path id="ArialMT-36" d="M 3184 3459 
L 2625 3416 
Q 2550 3747 2413 3897 
Q 2184 4138 1850 4138 
Q 1581 4138 1378 3988 
Q 1113 3794 959 3422 
Q 806 3050 800 2363 
Q 1003 2672 1297 2822 
Q 1591 2972 1913 2972 
Q 2475 2972 2870 2558 
Q 3266 2144 3266 1488 
Q 3266 1056 3080 686 
Q 2894 316 2569 119 
Q 2244 -78 1831 -78 
Q 1128 -78 684 439 
Q 241 956 241 2144 
Q 241 3472 731 4075 
Q 1159 4600 1884 4600 
Q 2425 4600 2770 4297 
Q 3116 3994 3184 3459 
z
M 888 1484 
Q 888 1194 1011 928 
Q 1134 663 1356 523 
Q 1578 384 1822 384 
Q 2178 384 2434 671 
Q 2691 959 2691 1453 
Q 2691 1928 2437 2201 
Q 2184 2475 1800 2475 
Q 1419 2475 1153 2201 
Q 888 1928 888 1484 
z
" transform="scale(0.015625)"/>
       </defs>
       <use xlink:href="#ArialMT-2212"/>
       <use xlink:href="#ArialMT-30" transform="translate(58.398438 0)"/>
       <use xlink:href="#ArialMT-2e" transform="translate(114.013672 0)"/>
       <use xlink:href="#ArialMT-30" transform="translate(141.796875 0)"/>
       <use xlink:href="#ArialMT-36" transform="translate(197.412109 0)"/>
      </g>
     </g>
    </g>
    <g id="ytick_3">
     <g id="line2d_11">
      <path d="M 52.885938 208.194616 
L 423.364063 208.194616 
" clip-path="url(#p136d85b9a1)" style="fill: none; stroke: #ffffff; stroke-opacity: 0.25; stroke-width: 0.8; stroke-linecap: round"/>
     </g>
     <g id="text_12">
      <!-- −0.04 -->
      <g style="fill: #ffffff" transform="translate(20.584375 211.773523) scale(0.1 -0.1)">
       <defs>
        <path id="ArialMT-34" d="M 2069 0 
L 2069 1097 
L 81 1097 
L 81 1613 
L 2172 4581 
L 2631 4581 
L 2631 1613 
L 3250 1613 
L 3250 1097 
L 2631 1097 
L 2631 0 
L 2069 0 
z
M 2069 1613 
L 2069 3678 
L 634 1613 
L 2069 1613 
z
" transform="scale(0.015625)"/>
       </defs>
       <use xlink:href="#ArialMT-2212"/>
       <use xlink:href="#ArialMT-30" transform="translate(58.398438 0)"/>
       <use xlink:href="#ArialMT-2e" transform="translate(114.013672 0)"/>
       <use xlink:href="#ArialMT-30" transform="translate(141.796875 0)"/>
       <use xlink:href="#ArialMT-34" transform="translate(197.412109 0)"/>
      </g>
     </g>
    </g>
    <g id="ytick_4">
     <g id="line2d_12">
      <path d="M 52.885938 179.722196 
L 423.364063 179.722196 
" clip-path="url(#p136d85b9a1)" style="fill: none; stroke: #ffffff; stroke-opacity: 0.25; stroke-width: 0.8; stroke-linecap: round"/>
     </g>
     <g id="text_13">
      <!-- −0.02 -->
      <g style="fill: #ffffff" transform="translate(20.584375 183.301103) scale(0.1 -0.1)">
       <use xlink:href="#ArialMT-2212"/>
       <use xlink:href="#ArialMT-30" transform="translate(58.398438 0)"/>
       <use xlink:href="#ArialMT-2e" transform="translate(114.013672 0)"/>
       <use xlink:href="#ArialMT-30" transform="translate(141.796875 0)"/>
       <use xlink:href="#ArialMT-32" transform="translate(197.412109 0)"/>
      </g>
     </g>
    </g>
    <g id="ytick_5">
     <g id="line2d_13">
      <path d="M 52.885938 151.249776 
L 423.364063 151.249776 
" clip-path="url(#p136d85b9a1)" style="fill: none; stroke: #ffffff; stroke-opacity: 0.25; stroke-width: 0.8; stroke-linecap: round"/>
     </g>
     <g id="text_14">
      <!-- 0.00 -->
      <g style="fill: #ffffff" transform="translate(26.425 154.828682) scale(0.1 -0.1)">
       <use xlink:href="#ArialMT-30"/>
       <use xlink:href="#ArialMT-2e" transform="translate(55.615234 0)"/>
       <use xlink:href="#ArialMT-30" transform="translate(83.398438 0)"/>
       <use xlink:href="#ArialMT-30" transform="translate(139.013672 0)"/>
      </g>
     </g>
    </g>
    <g id="ytick_6">
     <g id="line2d_14">
      <path d="M 52.885938 122.777356 
L 423.364063 122.777356 
" clip-path="url(#p136d85b9a1)" style="fill: none; stroke: #ffffff; stroke-opacity: 0.25; stroke-width: 0.8; stroke-linecap: round"/>
     </g>
     <g id="text_15">
      <!-- 0.02 -->
      <g style="fill: #ffffff" transform="translate(26.425 126.356262) scale(0.1 -0.1)">
       <use xlink:href="#ArialMT-30"/>
       <use xlink:href="#ArialMT-2e" transform="translate(55.615234 0)"/>
       <use xlink:href="#ArialMT-30" transform="translate(83.398438 0)"/>
       <use xlink:href="#ArialMT-32" transform="translate(139.013672 0)"/>
      </g>
     </g>
    </g>
    <g id="ytick_7">
     <g id="line2d_15">
      <path d="M 52.885938 94.304936 
L 423.364063 94.304936 
" clip-path="url(#p136d85b9a1)" style="fill: none; stroke: #ffffff; stroke-opacity: 0.25; stroke-width: 0.8; stroke-linecap: round"/>
     </g>
     <g id="text_16">
      <!-- 0.04 -->
      <g style="fill: #ffffff" transform="translate(26.425 97.883842) scale(0.1 -0.1)">
       <use xlink:href="#ArialMT-30"/>
       <use xlink:href="#ArialMT-2e" transform="translate(55.615234 0)"/>
       <use xlink:href="#ArialMT-30" transform="translate(83.398438 0)"/>
       <use xlink:href="#ArialMT-34" transform="translate(139.013672 0)"/>
      </g>
     </g>
    </g>
    <g id="ytick_8">
     <g id="line2d_16">
      <path d="M 52.885938 65.832516 
L 423.364063 65.832516 
" clip-path="url(#p136d85b9a1)" style="fill: none; stroke: #ffffff; stroke-opacity: 0.25; stroke-width: 0.8; stroke-linecap: round"/>
     </g>
     <g id="text_17">
      <!-- 0.06 -->
      <g style="fill: #ffffff" transform="translate(26.425 69.411422) scale(0.1 -0.1)">
       <use xlink:href="#ArialMT-30"/>
       <use xlink:href="#ArialMT-2e" transform="translate(55.615234 0)"/>
       <use xlink:href="#ArialMT-30" transform="translate(83.398438 0)"/>
       <use xlink:href="#ArialMT-36" transform="translate(139.013672 0)"/>
      </g>
     </g>
    </g>
    <g id="text_18">
     <!-- Log own revenue/trip (demeaned) -->
     <g style="fill: #ffffff" transform="translate(14.479688 238.380406) rotate(-90) scale(0.1 -0.1)">
      <defs>
       <path id="ArialMT-77" d="M 1034 0 
L 19 3319 
L 600 3319 
L 1128 1403 
L 1325 691 
Q 1338 744 1497 1375 
L 2025 3319 
L 2603 3319 
L 3100 1394 
L 3266 759 
L 3456 1400 
L 4025 3319 
L 4572 3319 
L 3534 0 
L 2950 0 
L 2422 1988 
L 2294 2553 
L 1622 0 
L 1034 0 
z
" transform="scale(0.015625)"/>
      </defs>
      <use xlink:href="#ArialMT-4c"/>
      <use xlink:href="#ArialMT-6f" transform="translate(55.615234 0)"/>
      <use xlink:href="#ArialMT-67" transform="translate(111.230469 0)"/>
      <use xlink:href="#ArialMT-20" transform="translate(166.845703 0)"/>
      <use xlink:href="#ArialMT-6f" transform="translate(194.628906 0)"/>
      <use xlink:href="#ArialMT-77" transform="translate(250.244141 0)"/>
      <use xlink:href="#ArialMT-6e" transform="translate(322.460938 0)"/>
      <use xlink:href="#ArialMT-20" transform="translate(378.076172 0)"/>
      <use xlink:href="#ArialMT-72" transform="translate(405.859375 0)"/>
      <use xlink:href="#ArialMT-65" transform="translate(439.160156 0)"/>
      <use xlink:href="#ArialMT-76" transform="translate(494.775391 0)"/>
      <use xlink:href="#ArialMT-65" transform="translate(544.775391 0)"/>
      <use xlink:href="#ArialMT-6e" transform="translate(600.390625 0)"/>
      <use xlink:href="#ArialMT-75" transform="translate(656.005859 0)"/>
      <use xlink:href="#ArialMT-65" transform="translate(711.621094 0)"/>
      <use xlink:href="#ArialMT-2f" transform="translate(767.236328 0)"/>
      <use xlink:href="#ArialMT-74" transform="translate(795.019531 0)"/>
      <use xlink:href="#ArialMT-72" transform="translate(822.802734 0)"/>
      <use xlink:href="#ArialMT-69" transform="translate(856.103516 0)"/>
      <use xlink:href="#ArialMT-70" transform="translate(878.320312 0)"/>
      <use xlink:href="#ArialMT-20" transform="translate(933.935547 0)"/>
      <use xlink:href="#ArialMT-28" transform="translate(961.71875 0)"/>
      <use xlink:href="#ArialMT-64" transform="translate(995.019531 0)"/>
      <use xlink:href="#ArialMT-65" transform="translate(1050.634766 0)"/>
      <use xlink:href="#ArialMT-6d" transform="translate(1106.25 0)"/>
      <use xlink:href="#ArialMT-65" transform="translate(1189.550781 0)"/>
      <use xlink:href="#ArialMT-61" transform="translate(1245.166016 0)"/>
      <use xlink:href="#ArialMT-6e" transform="translate(1300.78125 0)"/>
      <use xlink:href="#ArialMT-65" transform="translate(1356.396484 0)"/>
      <use xlink:href="#ArialMT-64" transform="translate(1412.011719 0)"/>
      <use xlink:href="#ArialMT-29" transform="translate(1467.626953 0)"/>
     </g>
    </g>
   </g>
   <g id="PathCollection_1">
    <defs>
     <path id="m55938e6413" d="M 0 2.345208 
C 0.621956 2.345208 1.218523 2.098102 1.658312 1.658312 
C 2.098102 1.218523 2.345208 0.621956 2.345208 0 
C 2.345208 -0.621956 2.098102 -1.218523 1.658312 -1.658312 
C 1.218523 -2.098102 0.621956 -2.345208 0 -2.345208 
C -0.621956 -2.345208 -1.218523 -2.098102 -1.658312 -1.658312 
C -2.098102 -1.218523 -2.345208 -0.621956 -2.345208 0 
C -2.345208 0.621956 -2.098102 1.218523 -1.658312 1.658312 
C -1.218523 2.098102 -0.621956 2.345208 0 2.345208 
z
" style="stroke: #4682b4; stroke-opacity: 0.9; stroke-width: 0.375233"/>
    </defs>
    <g clip-path="url(#p136d85b9a1)">
     <use xlink:href="#m55938e6413" x="69.725852" y="267.410165" style="fill: #4682b4; fill-opacity: 0.9; stroke: #4682b4; stroke-opacity: 0.9; stroke-width: 0.375233"/>
     <use xlink:href="#m55938e6413" x="123.267773" y="230.10559" style="fill: #4682b4; fill-opacity: 0.9; stroke: #4682b4; stroke-opacity: 0.9; stroke-width: 0.375233"/>
     <use xlink:href="#m55938e6413" x="146.804945" y="211.785091" style="fill: #4682b4; fill-opacity: 0.9; stroke: #4682b4; stroke-opacity: 0.9; stroke-width: 0.375233"/>
     <use xlink:href="#m55938e6413" x="161.614715" y="212.152037" style="fill: #4682b4; fill-opacity: 0.9; stroke: #4682b4; stroke-opacity: 0.9; stroke-width: 0.375233"/>
     <use xlink:href="#m55938e6413" x="173.697" y="191.098845" style="fill: #4682b4; fill-opacity: 0.9; stroke: #4682b4; stroke-opacity: 0.9; stroke-width: 0.375233"/>
     <use xlink:href="#m55938e6413" x="183.539596" y="200.084556" style="fill: #4682b4; fill-opacity: 0.9; stroke: #4682b4; stroke-opacity: 0.9; stroke-width: 0.375233"/>
     <use xlink:href="#m55938e6413" x="192.097351" y="187.525827" style="fill: #4682b4; fill-opacity: 0.9; stroke: #4682b4; stroke-opacity: 0.9; stroke-width: 0.375233"/>
     <use xlink:href="#m55938e6413" x="199.457647" y="180.594822" style="fill: #4682b4; fill-opacity: 0.9; stroke: #4682b4; stroke-opacity: 0.9; stroke-width: 0.375233"/>
     <use xlink:href="#m55938e6413" x="206.207751" y="184.77138" style="fill: #4682b4; fill-opacity: 0.9; stroke: #4682b4; stroke-opacity: 0.9; stroke-width: 0.375233"/>
     <use xlink:href="#m55938e6413" x="212.574233" y="171.495698" style="fill: #4682b4; fill-opacity: 0.9; stroke: #4682b4; stroke-opacity: 0.9; stroke-width: 0.375233"/>
     <use xlink:href="#m55938e6413" x="218.358867" y="161.450241" style="fill: #4682b4; fill-opacity: 0.9; stroke: #4682b4; stroke-opacity: 0.9; stroke-width: 0.375233"/>
     <use xlink:href="#m55938e6413" x="223.357459" y="172.77978" style="fill: #4682b4; fill-opacity: 0.9; stroke: #4682b4; stroke-opacity: 0.9; stroke-width: 0.375233"/>
     <use xlink:href="#m55938e6413" x="228.182803" y="164.983019" style="fill: #4682b4; fill-opacity: 0.9; stroke: #4682b4; stroke-opacity: 0.9; stroke-width: 0.375233"/>
     <use xlink:href="#m55938e6413" x="233.026799" y="158.310684" style="fill: #4682b4; fill-opacity: 0.9; stroke: #4682b4; stroke-opacity: 0.9; stroke-width: 0.375233"/>
     <use xlink:href="#m55938e6413" x="237.73144" y="167.06834" style="fill: #4682b4; fill-opacity: 0.9; stroke: #4682b4; stroke-opacity: 0.9; stroke-width: 0.375233"/>
     <use xlink:href="#m55938e6413" x="242.313877" y="152.045144" style="fill: #4682b4; fill-opacity: 0.9; stroke: #4682b4; stroke-opacity: 0.9; stroke-width: 0.375233"/>
     <use xlink:href="#m55938e6413" x="246.82801" y="151.747197" style="fill: #4682b4; fill-opacity: 0.9; stroke: #4682b4; stroke-opacity: 0.9; stroke-width: 0.375233"/>
     <use xlink:href="#m55938e6413" x="251.069607" y="151.788847" style="fill: #4682b4; fill-opacity: 0.9; stroke: #4682b4; stroke-opacity: 0.9; stroke-width: 0.375233"/>
     <use xlink:href="#m55938e6413" x="255.315727" y="156.429681" style="fill: #4682b4; fill-opacity: 0.9; stroke: #4682b4; stroke-opacity: 0.9; stroke-width: 0.375233"/>
     <use xlink:href="#m55938e6413" x="259.642433" y="156.180931" style="fill: #4682b4; fill-opacity: 0.9; stroke: #4682b4; stroke-opacity: 0.9; stroke-width: 0.375233"/>
     <use xlink:href="#m55938e6413" x="263.998092" y="149.333041" style="fill: #4682b4; fill-opacity: 0.9; stroke: #4682b4; stroke-opacity: 0.9; stroke-width: 0.375233"/>
     <use xlink:href="#m55938e6413" x="268.473301" y="144.703276" style="fill: #4682b4; fill-opacity: 0.9; stroke: #4682b4; stroke-opacity: 0.9; stroke-width: 0.375233"/>
     <use xlink:href="#m55938e6413" x="273.076496" y="135.78049" style="fill: #4682b4; fill-opacity: 0.9; stroke: #4682b4; stroke-opacity: 0.9; stroke-width: 0.375233"/>
     <use xlink:href="#m55938e6413" x="277.392414" y="130.254552" style="fill: #4682b4; fill-opacity: 0.9; stroke: #4682b4; stroke-opacity: 0.9; stroke-width: 0.375233"/>
     <use xlink:href="#m55938e6413" x="281.490293" y="131.503022" style="fill: #4682b4; fill-opacity: 0.9; stroke: #4682b4; stroke-opacity: 0.9; stroke-width: 0.375233"/>
     <use xlink:href="#m55938e6413" x="285.544074" y="120.255682" style="fill: #4682b4; fill-opacity: 0.9; stroke: #4682b4; stroke-opacity: 0.9; stroke-width: 0.375233"/>
     <use xlink:href="#m55938e6413" x="289.491024" y="125.522364" style="fill: #4682b4; fill-opacity: 0.9; stroke: #4682b4; stroke-opacity: 0.9; stroke-width: 0.375233"/>
     <use xlink:href="#m55938e6413" x="293.453032" y="130.149673" style="fill: #4682b4; fill-opacity: 0.9; stroke: #4682b4; stroke-opacity: 0.9; stroke-width: 0.375233"/>
     <use xlink:href="#m55938e6413" x="297.437262" y="138.964431" style="fill: #4682b4; fill-opacity: 0.9; stroke: #4682b4; stroke-opacity: 0.9; stroke-width: 0.375233"/>
     <use xlink:href="#m55938e6413" x="301.744208" y="133.661959" style="fill: #4682b4; fill-opacity: 0.9; stroke: #4682b4; stroke-opacity: 0.9; stroke-width: 0.375233"/>
     <use xlink:href="#m55938e6413" x="306.256612" y="121.803724" style="fill: #4682b4; fill-opacity: 0.9; stroke: #4682b4; stroke-opacity: 0.9; stroke-width: 0.375233"/>
     <use xlink:href="#m55938e6413" x="310.971055" y="130.071734" style="fill: #4682b4; fill-opacity: 0.9; stroke: #4682b4; stroke-opacity: 0.9; stroke-width: 0.375233"/>
     <use xlink:href="#m55938e6413" x="316.365872" y="119.617301" style="fill: #4682b4; fill-opacity: 0.9; stroke: #4682b4; stroke-opacity: 0.9; stroke-width: 0.375233"/>
     <use xlink:href="#m55938e6413" x="322.529181" y="126.746861" style="fill: #4682b4; fill-opacity: 0.9; stroke: #4682b4; stroke-opacity: 0.9; stroke-width: 0.375233"/>
     <use xlink:href="#m55938e6413" x="329.395048" y="113.90978" style="fill: #4682b4; fill-opacity: 0.9; stroke: #4682b4; stroke-opacity: 0.9; stroke-width: 0.375233"/>
     <use xlink:href="#m55938e6413" x="336.982556" y="101.572708" style="fill: #4682b4; fill-opacity: 0.9; stroke: #4682b4; stroke-opacity: 0.9; stroke-width: 0.375233"/>
     <use xlink:href="#m55938e6413" x="345.480996" y="105.648515" style="fill: #4682b4; fill-opacity: 0.9; stroke: #4682b4; stroke-opacity: 0.9; stroke-width: 0.375233"/>
     <use xlink:href="#m55938e6413" x="356.070919" y="106.452816" style="fill: #4682b4; fill-opacity: 0.9; stroke: #4682b4; stroke-opacity: 0.9; stroke-width: 0.375233"/>
     <use xlink:href="#m55938e6413" x="372.29247" y="94.956267" style="fill: #4682b4; fill-opacity: 0.9; stroke: #4682b4; stroke-opacity: 0.9; stroke-width: 0.375233"/>
     <use xlink:href="#m55938e6413" x="406.524148" y="59.27096" style="fill: #4682b4; fill-opacity: 0.9; stroke: #4682b4; stroke-opacity: 0.9; stroke-width: 0.375233"/>
    </g>
   </g>
   <g id="line2d_17">
    <path d="M 69.725852 256.963654 
L 73.127855 255.048323 
L 76.529858 253.132991 
L 79.931861 251.21766 
L 83.333864 249.302329 
L 86.735867 247.386998 
L 90.13787 245.471667 
L 93.539873 243.556336 
L 96.941876 241.641005 
L 100.343879 239.725674 
L 103.745882 237.810343 
L 107.147885 235.895012 
L 110.549888 233.979681 
L 113.951891 232.06435 
L 117.353894 230.149018 
L 120.755897 228.233687 
L 124.1579 226.318356 
L 127.559903 224.403025 
L 130.961906 222.487694 
L 134.363909 220.572363 
L 137.765912 218.657032 
L 141.167915 216.741701 
L 144.569918 214.82637 
L 147.971921 212.911039 
L 151.373924 210.995708 
L 154.775927 209.080377 
L 158.17793 207.165045 
L 161.579933 205.249714 
L 164.981936 203.334383 
L 168.383939 201.419052 
L 171.785942 199.503721 
L 175.187945 197.58839 
L 178.589948 195.673059 
L 181.991951 193.757728 
L 185.393954 191.842397 
L 188.795957 189.927066 
L 192.19796 188.011735 
L 195.599963 186.096404 
L 199.001966 184.181072 
L 202.403969 182.265741 
L 205.805972 180.35041 
L 209.207975 178.435079 
L 212.609978 176.519748 
L 216.011981 174.604417 
L 219.413984 172.689086 
L 222.815987 170.773755 
L 226.21799 168.858424 
L 229.619993 166.943093 
L 233.021996 165.027762 
L 236.423999 163.112431 
L 239.826001 161.1971 
L 243.228004 159.281768 
L 246.630007 157.366437 
L 250.03201 155.451106 
L 253.434013 153.535775 
L 256.836016 151.620444 
L 260.238019 149.705113 
L 263.640022 147.789782 
L 267.042025 145.874451 
L 270.444028 143.95912 
L 273.846031 142.043789 
L 277.248034 140.128458 
L 280.650037 138.213127 
L 284.05204 136.297795 
L 287.454043 134.382464 
L 290.856046 132.467133 
L 294.258049 130.551802 
L 297.660052 128.636471 
L 301.062055 126.72114 
L 304.464058 124.805809 
L 307.866061 122.890478 
L 311.268064 120.975147 
L 314.670067 119.059816 
L 318.07207 117.144485 
L 321.474073 115.229154 
L 324.876076 113.313822 
L 328.278079 111.398491 
L 331.680082 109.48316 
L 335.082085 107.567829 
L 338.484088 105.652498 
L 341.886091 103.737167 
L 345.288094 101.821836 
L 348.690097 99.906505 
L 352.0921 97.991174 
L 355.494103 96.075843 
L 358.896106 94.160512 
L 362.298109 92.245181 
L 365.700112 90.329849 
L 369.102115 88.414518 
L 372.504118 86.499187 
L 375.906121 84.583856 
L 379.308124 82.668525 
L 382.710127 80.753194 
L 386.11213 78.837863 
L 389.514133 76.922532 
L 392.916136 75.007201 
L 396.318139 73.09187 
L 399.720142 71.176539 
L 403.122145 69.261208 
L 406.524148 67.345876 
" clip-path="url(#p136d85b9a1)" style="fill: none; stroke-dasharray: 5.92,2.56; stroke-dashoffset: 0; stroke: #dc143c; stroke-width: 1.6"/>
   </g>
   <g id="line2d_18">
    <path d="M 52.885938 151.249776 
L 423.364063 151.249776 
" clip-path="url(#p136d85b9a1)" style="fill: none; stroke-dasharray: 0.7,1.155; stroke-dashoffset: 0; stroke: #bbbbbb; stroke-width: 0.7"/>
   </g>
   <g id="line2d_19">
    <path d="M 257.494456 277.817125 
L 257.494456 48.864 
" clip-path="url(#p136d85b9a1)" style="fill: none; stroke-dasharray: 0.7,1.155; stroke-dashoffset: 0; stroke: #bbbbbb; stroke-width: 0.7"/>
   </g>
   <g id="patch_3">
    <path d="M 52.885938 277.817125 
L 52.885938 48.864 
" style="fill: none; stroke: #ffffff; stroke-width: 0.8; stroke-linejoin: miter; stroke-linecap: square"/>
   </g>
   <g id="patch_4">
    <path d="M 52.885938 277.817125 
L 423.364063 277.817125 
" style="fill: none; stroke: #ffffff; stroke-width: 0.8; stroke-linejoin: miter; stroke-linecap: square"/>
   </g>
   <g id="text_19">
    <!-- First stage -->
    <g style="fill: #ffffff" transform="translate(210.119063 42.864) scale(0.12 -0.12)">
     <defs>
      <path id="ArialMT-46" d="M 525 0 
L 525 4581 
L 3616 4581 
L 3616 4041 
L 1131 4041 
L 1131 2622 
L 3281 2622 
L 3281 2081 
L 1131 2081 
L 1131 0 
L 525 0 
z
" transform="scale(0.015625)"/>
      <path id="ArialMT-73" d="M 197 991 
L 753 1078 
Q 800 744 1014 566 
Q 1228 388 1613 388 
Q 2000 388 2187 545 
Q 2375 703 2375 916 
Q 2375 1106 2209 1216 
Q 2094 1291 1634 1406 
Q 1016 1563 777 1677 
Q 538 1791 414 1992 
Q 291 2194 291 2438 
Q 291 2659 392 2848 
Q 494 3038 669 3163 
Q 800 3259 1026 3326 
Q 1253 3394 1513 3394 
Q 1903 3394 2198 3281 
Q 2494 3169 2634 2976 
Q 2775 2784 2828 2463 
L 2278 2388 
Q 2241 2644 2061 2787 
Q 1881 2931 1553 2931 
Q 1166 2931 1000 2803 
Q 834 2675 834 2503 
Q 834 2394 903 2306 
Q 972 2216 1119 2156 
Q 1203 2125 1616 2013 
Q 2213 1853 2448 1751 
Q 2684 1650 2818 1456 
Q 2953 1263 2953 975 
Q 2953 694 2789 445 
Q 2625 197 2315 61 
Q 2006 -75 1616 -75 
Q 969 -75 630 194 
Q 291 463 197 991 
z
" transform="scale(0.015625)"/>
     </defs>
     <use xlink:href="#ArialMT-46"/>
     <use xlink:href="#ArialMT-69" transform="translate(61.083984 0)"/>
     <use xlink:href="#ArialMT-72" transform="translate(83.300781 0)"/>
     <use xlink:href="#ArialMT-73" transform="translate(116.601562 0)"/>
     <use xlink:href="#ArialMT-74" transform="translate(166.601562 0)"/>
     <use xlink:href="#ArialMT-20" transform="translate(194.384766 0)"/>
     <use xlink:href="#ArialMT-73" transform="translate(222.167969 0)"/>
     <use xlink:href="#ArialMT-74" transform="translate(272.167969 0)"/>
     <use xlink:href="#ArialMT-61" transform="translate(299.951172 0)"/>
     <use xlink:href="#ArialMT-67" transform="translate(355.566406 0)"/>
     <use xlink:href="#ArialMT-65" transform="translate(411.181641 0)"/>
    </g>
   </g>
   <g id="legend_1">
    <g id="patch_5">
     <path d="M 414.564063 59.264 
L 417.764063 59.264 
Q 419.364063 59.264 419.364063 57.664 
L 419.364063 54.464 
Q 419.364063 52.864 417.764063 52.864 
L 414.564063 52.864 
Q 412.964063 52.864 412.964063 54.464 
L 412.964063 57.664 
Q 412.964063 59.264 414.564063 59.264 
z
" style="opacity: 0.8; stroke: #cccccc; stroke-linejoin: miter"/>
    </g>
   </g>
  </g>
  <g id="axes_2">
   <g id="patch_6">
    <path d="M 479.485938 277.817125 
L 849.964063 277.817125 
L 849.964063 48.864 
L 479.485938 48.864 
z
"/>
   </g>
   <g id="matplotlib.axis_3">
    <g id="xtick_9">
     <g id="line2d_20">
      <path d="M 481.937167 277.817125 
L 481.937167 48.864 
" clip-path="url(#p91211ed092)" style="fill: none; stroke: #ffffff; stroke-opacity: 0.25; stroke-width: 0.8; stroke-linecap: round"/>
     </g>
     <g id="text_20">
      <!-- −0.08 -->
      <g style="fill: #ffffff" transform="translate(469.286386 291.974937) scale(0.1 -0.1)">
       <use xlink:href="#ArialMT-2212"/>
       <use xlink:href="#ArialMT-30" transform="translate(58.398438 0)"/>
       <use xlink:href="#ArialMT-2e" transform="translate(114.013672 0)"/>
       <use xlink:href="#ArialMT-30" transform="translate(141.796875 0)"/>
       <use xlink:href="#ArialMT-38" transform="translate(197.412109 0)"/>
      </g>
     </g>
    </g>
    <g id="xtick_10">
     <g id="line2d_21">
      <path d="M 532.476489 277.817125 
L 532.476489 48.864 
" clip-path="url(#p91211ed092)" style="fill: none; stroke: #ffffff; stroke-opacity: 0.25; stroke-width: 0.8; stroke-linecap: round"/>
     </g>
     <g id="text_21">
      <!-- −0.06 -->
      <g style="fill: #ffffff" transform="translate(519.825708 291.974937) scale(0.1 -0.1)">
       <use xlink:href="#ArialMT-2212"/>
       <use xlink:href="#ArialMT-30" transform="translate(58.398438 0)"/>
       <use xlink:href="#ArialMT-2e" transform="translate(114.013672 0)"/>
       <use xlink:href="#ArialMT-30" transform="translate(141.796875 0)"/>
       <use xlink:href="#ArialMT-36" transform="translate(197.412109 0)"/>
      </g>
     </g>
    </g>
    <g id="xtick_11">
     <g id="line2d_22">
      <path d="M 583.015812 277.817125 
L 583.015812 48.864 
" clip-path="url(#p91211ed092)" style="fill: none; stroke: #ffffff; stroke-opacity: 0.25; stroke-width: 0.8; stroke-linecap: round"/>
     </g>
     <g id="text_22">
      <!-- −0.04 -->
      <g style="fill: #ffffff" transform="translate(570.36503 291.974937) scale(0.1 -0.1)">
       <use xlink:href="#ArialMT-2212"/>
       <use xlink:href="#ArialMT-30" transform="translate(58.398438 0)"/>
       <use xlink:href="#ArialMT-2e" transform="translate(114.013672 0)"/>
       <use xlink:href="#ArialMT-30" transform="translate(141.796875 0)"/>
       <use xlink:href="#ArialMT-34" transform="translate(197.412109 0)"/>
      </g>
     </g>
    </g>
    <g id="xtick_12">
     <g id="line2d_23">
      <path d="M 633.555134 277.817125 
L 633.555134 48.864 
" clip-path="url(#p91211ed092)" style="fill: none; stroke: #ffffff; stroke-opacity: 0.25; stroke-width: 0.8; stroke-linecap: round"/>
     </g>
     <g id="text_23">
      <!-- −0.02 -->
      <g style="fill: #ffffff" transform="translate(620.904352 291.974937) scale(0.1 -0.1)">
       <use xlink:href="#ArialMT-2212"/>
       <use xlink:href="#ArialMT-30" transform="translate(58.398438 0)"/>
       <use xlink:href="#ArialMT-2e" transform="translate(114.013672 0)"/>
       <use xlink:href="#ArialMT-30" transform="translate(141.796875 0)"/>
       <use xlink:href="#ArialMT-32" transform="translate(197.412109 0)"/>
      </g>
     </g>
    </g>
    <g id="xtick_13">
     <g id="line2d_24">
      <path d="M 684.094456 277.817125 
L 684.094456 48.864 
" clip-path="url(#p91211ed092)" style="fill: none; stroke: #ffffff; stroke-opacity: 0.25; stroke-width: 0.8; stroke-linecap: round"/>
     </g>
     <g id="text_24">
      <!-- 0.00 -->
      <g style="fill: #ffffff" transform="translate(674.363987 291.974937) scale(0.1 -0.1)">
       <use xlink:href="#ArialMT-30"/>
       <use xlink:href="#ArialMT-2e" transform="translate(55.615234 0)"/>
       <use xlink:href="#ArialMT-30" transform="translate(83.398438 0)"/>
       <use xlink:href="#ArialMT-30" transform="translate(139.013672 0)"/>
      </g>
     </g>
    </g>
    <g id="xtick_14">
     <g id="line2d_25">
      <path d="M 734.633778 277.817125 
L 734.633778 48.864 
" clip-path="url(#p91211ed092)" style="fill: none; stroke: #ffffff; stroke-opacity: 0.25; stroke-width: 0.8; stroke-linecap: round"/>
     </g>
     <g id="text_25">
      <!-- 0.02 -->
      <g style="fill: #ffffff" transform="translate(724.903309 291.974937) scale(0.1 -0.1)">
       <use xlink:href="#ArialMT-30"/>
       <use xlink:href="#ArialMT-2e" transform="translate(55.615234 0)"/>
       <use xlink:href="#ArialMT-30" transform="translate(83.398438 0)"/>
       <use xlink:href="#ArialMT-32" transform="translate(139.013672 0)"/>
      </g>
     </g>
    </g>
    <g id="xtick_15">
     <g id="line2d_26">
      <path d="M 785.1731 277.817125 
L 785.1731 48.864 
" clip-path="url(#p91211ed092)" style="fill: none; stroke: #ffffff; stroke-opacity: 0.25; stroke-width: 0.8; stroke-linecap: round"/>
     </g>
     <g id="text_26">
      <!-- 0.04 -->
      <g style="fill: #ffffff" transform="translate(775.442631 291.974937) scale(0.1 -0.1)">
       <use xlink:href="#ArialMT-30"/>
       <use xlink:href="#ArialMT-2e" transform="translate(55.615234 0)"/>
       <use xlink:href="#ArialMT-30" transform="translate(83.398438 0)"/>
       <use xlink:href="#ArialMT-34" transform="translate(139.013672 0)"/>
      </g>
     </g>
    </g>
    <g id="xtick_16">
     <g id="line2d_27">
      <path d="M 835.712422 277.817125 
L 835.712422 48.864 
" clip-path="url(#p91211ed092)" style="fill: none; stroke: #ffffff; stroke-opacity: 0.25; stroke-width: 0.8; stroke-linecap: round"/>
     </g>
     <g id="text_27">
      <!-- 0.06 -->
      <g style="fill: #ffffff" transform="translate(825.981953 291.974937) scale(0.1 -0.1)">
       <use xlink:href="#ArialMT-30"/>
       <use xlink:href="#ArialMT-2e" transform="translate(55.615234 0)"/>
       <use xlink:href="#ArialMT-30" transform="translate(83.398438 0)"/>
       <use xlink:href="#ArialMT-36" transform="translate(139.013672 0)"/>
      </g>
     </g>
    </g>
    <g id="text_28">
     <!-- Instrumented log revenue/trip (demeaned) -->
     <g style="fill: #ffffff" transform="translate(571.346875 305.242125) scale(0.1 -0.1)">
      <defs>
       <path id="ArialMT-49" d="M 597 0 
L 597 4581 
L 1203 4581 
L 1203 0 
L 597 0 
z
" transform="scale(0.015625)"/>
      </defs>
      <use xlink:href="#ArialMT-49"/>
      <use xlink:href="#ArialMT-6e" transform="translate(27.783203 0)"/>
      <use xlink:href="#ArialMT-73" transform="translate(83.398438 0)"/>
      <use xlink:href="#ArialMT-74" transform="translate(133.398438 0)"/>
      <use xlink:href="#ArialMT-72" transform="translate(161.181641 0)"/>
      <use xlink:href="#ArialMT-75" transform="translate(194.482422 0)"/>
      <use xlink:href="#ArialMT-6d" transform="translate(250.097656 0)"/>
      <use xlink:href="#ArialMT-65" transform="translate(333.398438 0)"/>
      <use xlink:href="#ArialMT-6e" transform="translate(389.013672 0)"/>
      <use xlink:href="#ArialMT-74" transform="translate(444.628906 0)"/>
      <use xlink:href="#ArialMT-65" transform="translate(472.412109 0)"/>
      <use xlink:href="#ArialMT-64" transform="translate(528.027344 0)"/>
      <use xlink:href="#ArialMT-20" transform="translate(583.642578 0)"/>
      <use xlink:href="#ArialMT-6c" transform="translate(611.425781 0)"/>
      <use xlink:href="#ArialMT-6f" transform="translate(633.642578 0)"/>
      <use xlink:href="#ArialMT-67" transform="translate(689.257812 0)"/>
      <use xlink:href="#ArialMT-20" transform="translate(744.873047 0)"/>
      <use xlink:href="#ArialMT-72" transform="translate(772.65625 0)"/>
      <use xlink:href="#ArialMT-65" transform="translate(805.957031 0)"/>
      <use xlink:href="#ArialMT-76" transform="translate(861.572266 0)"/>
      <use xlink:href="#ArialMT-65" transform="translate(911.572266 0)"/>
      <use xlink:href="#ArialMT-6e" transform="translate(967.1875 0)"/>
      <use xlink:href="#ArialMT-75" transform="translate(1022.802734 0)"/>
      <use xlink:href="#ArialMT-65" transform="translate(1078.417969 0)"/>
      <use xlink:href="#ArialMT-2f" transform="translate(1134.033203 0)"/>
      <use xlink:href="#ArialMT-74" transform="translate(1161.816406 0)"/>
      <use xlink:href="#ArialMT-72" transform="translate(1189.599609 0)"/>
      <use xlink:href="#ArialMT-69" transform="translate(1222.900391 0)"/>
      <use xlink:href="#ArialMT-70" transform="translate(1245.117188 0)"/>
      <use xlink:href="#ArialMT-20" transform="translate(1300.732422 0)"/>
      <use xlink:href="#ArialMT-28" transform="translate(1328.515625 0)"/>
      <use xlink:href="#ArialMT-64" transform="translate(1361.816406 0)"/>
      <use xlink:href="#ArialMT-65" transform="translate(1417.431641 0)"/>
      <use xlink:href="#ArialMT-6d" transform="translate(1473.046875 0)"/>
      <use xlink:href="#ArialMT-65" transform="translate(1556.347656 0)"/>
      <use xlink:href="#ArialMT-61" transform="translate(1611.962891 0)"/>
      <use xlink:href="#ArialMT-6e" transform="translate(1667.578125 0)"/>
      <use xlink:href="#ArialMT-65" transform="translate(1723.193359 0)"/>
      <use xlink:href="#ArialMT-64" transform="translate(1778.808594 0)"/>
      <use xlink:href="#ArialMT-29" transform="translate(1834.423828 0)"/>
     </g>
    </g>
   </g>
   <g id="matplotlib.axis_4">
    <g id="ytick_9">
     <g id="line2d_28">
      <path d="M 479.485938 268.343495 
L 849.964063 268.343495 
" clip-path="url(#p91211ed092)" style="fill: none; stroke: #ffffff; stroke-opacity: 0.25; stroke-width: 0.8; stroke-linecap: round"/>
     </g>
     <g id="text_29">
      <!-- −0.08 -->
      <g style="fill: #ffffff" transform="translate(447.184375 271.922401) scale(0.1 -0.1)">
       <use xlink:href="#ArialMT-2212"/>
       <use xlink:href="#ArialMT-30" transform="translate(58.398438 0)"/>
       <use xlink:href="#ArialMT-2e" transform="translate(114.013672 0)"/>
       <use xlink:href="#ArialMT-30" transform="translate(141.796875 0)"/>
       <use xlink:href="#ArialMT-38" transform="translate(197.412109 0)"/>
      </g>
     </g>
    </g>
    <g id="ytick_10">
     <g id="line2d_29">
      <path d="M 479.485938 237.187832 
L 849.964063 237.187832 
" clip-path="url(#p91211ed092)" style="fill: none; stroke: #ffffff; stroke-opacity: 0.25; stroke-width: 0.8; stroke-linecap: round"/>
     </g>
     <g id="text_30">
      <!-- −0.06 -->
      <g style="fill: #ffffff" transform="translate(447.184375 240.766738) scale(0.1 -0.1)">
       <use xlink:href="#ArialMT-2212"/>
       <use xlink:href="#ArialMT-30" transform="translate(58.398438 0)"/>
       <use xlink:href="#ArialMT-2e" transform="translate(114.013672 0)"/>
       <use xlink:href="#ArialMT-30" transform="translate(141.796875 0)"/>
       <use xlink:href="#ArialMT-36" transform="translate(197.412109 0)"/>
      </g>
     </g>
    </g>
    <g id="ytick_11">
     <g id="line2d_30">
      <path d="M 479.485938 206.032169 
L 849.964063 206.032169 
" clip-path="url(#p91211ed092)" style="fill: none; stroke: #ffffff; stroke-opacity: 0.25; stroke-width: 0.8; stroke-linecap: round"/>
     </g>
     <g id="text_31">
      <!-- −0.04 -->
      <g style="fill: #ffffff" transform="translate(447.184375 209.611075) scale(0.1 -0.1)">
       <use xlink:href="#ArialMT-2212"/>
       <use xlink:href="#ArialMT-30" transform="translate(58.398438 0)"/>
       <use xlink:href="#ArialMT-2e" transform="translate(114.013672 0)"/>
       <use xlink:href="#ArialMT-30" transform="translate(141.796875 0)"/>
       <use xlink:href="#ArialMT-34" transform="translate(197.412109 0)"/>
      </g>
     </g>
    </g>
    <g id="ytick_12">
     <g id="line2d_31">
      <path d="M 479.485938 174.876506 
L 849.964063 174.876506 
" clip-path="url(#p91211ed092)" style="fill: none; stroke: #ffffff; stroke-opacity: 0.25; stroke-width: 0.8; stroke-linecap: round"/>
     </g>
     <g id="text_32">
      <!-- −0.02 -->
      <g style="fill: #ffffff" transform="translate(447.184375 178.455412) scale(0.1 -0.1)">
       <use xlink:href="#ArialMT-2212"/>
       <use xlink:href="#ArialMT-30" transform="translate(58.398438 0)"/>
       <use xlink:href="#ArialMT-2e" transform="translate(114.013672 0)"/>
       <use xlink:href="#ArialMT-30" transform="translate(141.796875 0)"/>
       <use xlink:href="#ArialMT-32" transform="translate(197.412109 0)"/>
      </g>
     </g>
    </g>
    <g id="ytick_13">
     <g id="line2d_32">
      <path d="M 479.485938 143.720843 
L 849.964063 143.720843 
" clip-path="url(#p91211ed092)" style="fill: none; stroke: #ffffff; stroke-opacity: 0.25; stroke-width: 0.8; stroke-linecap: round"/>
     </g>
     <g id="text_33">
      <!-- 0.00 -->
      <g style="fill: #ffffff" transform="translate(453.025 147.299749) scale(0.1 -0.1)">
       <use xlink:href="#ArialMT-30"/>
       <use xlink:href="#ArialMT-2e" transform="translate(55.615234 0)"/>
       <use xlink:href="#ArialMT-30" transform="translate(83.398438 0)"/>
       <use xlink:href="#ArialMT-30" transform="translate(139.013672 0)"/>
      </g>
     </g>
    </g>
    <g id="ytick_14">
     <g id="line2d_33">
      <path d="M 479.485938 112.56518 
L 849.964063 112.56518 
" clip-path="url(#p91211ed092)" style="fill: none; stroke: #ffffff; stroke-opacity: 0.25; stroke-width: 0.8; stroke-linecap: round"/>
     </g>
     <g id="text_34">
      <!-- 0.02 -->
      <g style="fill: #ffffff" transform="translate(453.025 116.144086) scale(0.1 -0.1)">
       <use xlink:href="#ArialMT-30"/>
       <use xlink:href="#ArialMT-2e" transform="translate(55.615234 0)"/>
       <use xlink:href="#ArialMT-30" transform="translate(83.398438 0)"/>
       <use xlink:href="#ArialMT-32" transform="translate(139.013672 0)"/>
      </g>
     </g>
    </g>
    <g id="ytick_15">
     <g id="line2d_34">
      <path d="M 479.485938 81.409517 
L 849.964063 81.409517 
" clip-path="url(#p91211ed092)" style="fill: none; stroke: #ffffff; stroke-opacity: 0.25; stroke-width: 0.8; stroke-linecap: round"/>
     </g>
     <g id="text_35">
      <!-- 0.04 -->
      <g style="fill: #ffffff" transform="translate(453.025 84.988423) scale(0.1 -0.1)">
       <use xlink:href="#ArialMT-30"/>
       <use xlink:href="#ArialMT-2e" transform="translate(55.615234 0)"/>
       <use xlink:href="#ArialMT-30" transform="translate(83.398438 0)"/>
       <use xlink:href="#ArialMT-34" transform="translate(139.013672 0)"/>
      </g>
     </g>
    </g>
    <g id="ytick_16">
     <g id="line2d_35">
      <path d="M 479.485938 50.253854 
L 849.964063 50.253854 
" clip-path="url(#p91211ed092)" style="fill: none; stroke: #ffffff; stroke-opacity: 0.25; stroke-width: 0.8; stroke-linecap: round"/>
     </g>
     <g id="text_36">
      <!-- 0.06 -->
      <g style="fill: #ffffff" transform="translate(453.025 53.83276) scale(0.1 -0.1)">
       <use xlink:href="#ArialMT-30"/>
       <use xlink:href="#ArialMT-2e" transform="translate(55.615234 0)"/>
       <use xlink:href="#ArialMT-30" transform="translate(83.398438 0)"/>
       <use xlink:href="#ArialMT-36" transform="translate(139.013672 0)"/>
      </g>
     </g>
    </g>
    <g id="text_37">
     <!-- Log completed trips (demeaned) -->
     <g style="fill: #ffffff" transform="translate(441.079688 235.319469) rotate(-90) scale(0.1 -0.1)">
      <defs>
       <path id="ArialMT-63" d="M 2588 1216 
L 3141 1144 
Q 3050 572 2676 248 
Q 2303 -75 1759 -75 
Q 1078 -75 664 370 
Q 250 816 250 1647 
Q 250 2184 428 2587 
Q 606 2991 970 3192 
Q 1334 3394 1763 3394 
Q 2303 3394 2647 3120 
Q 2991 2847 3088 2344 
L 2541 2259 
Q 2463 2594 2264 2762 
Q 2066 2931 1784 2931 
Q 1359 2931 1093 2626 
Q 828 2322 828 1663 
Q 828 994 1084 691 
Q 1341 388 1753 388 
Q 2084 388 2306 591 
Q 2528 794 2588 1216 
z
" transform="scale(0.015625)"/>
      </defs>
      <use xlink:href="#ArialMT-4c"/>
      <use xlink:href="#ArialMT-6f" transform="translate(55.615234 0)"/>
      <use xlink:href="#ArialMT-67" transform="translate(111.230469 0)"/>
      <use xlink:href="#ArialMT-20" transform="translate(166.845703 0)"/>
      <use xlink:href="#ArialMT-63" transform="translate(194.628906 0)"/>
      <use xlink:href="#ArialMT-6f" transform="translate(244.628906 0)"/>
      <use xlink:href="#ArialMT-6d" transform="translate(300.244141 0)"/>
      <use xlink:href="#ArialMT-70" transform="translate(383.544922 0)"/>
      <use xlink:href="#ArialMT-6c" transform="translate(439.160156 0)"/>
      <use xlink:href="#ArialMT-65" transform="translate(461.376953 0)"/>
      <use xlink:href="#ArialMT-74" transform="translate(516.992188 0)"/>
      <use xlink:href="#ArialMT-65" transform="translate(544.775391 0)"/>
      <use xlink:href="#ArialMT-64" transform="translate(600.390625 0)"/>
      <use xlink:href="#ArialMT-20" transform="translate(656.005859 0)"/>
      <use xlink:href="#ArialMT-74" transform="translate(683.789062 0)"/>
      <use xlink:href="#ArialMT-72" transform="translate(711.572266 0)"/>
      <use xlink:href="#ArialMT-69" transform="translate(744.873047 0)"/>
      <use xlink:href="#ArialMT-70" transform="translate(767.089844 0)"/>
      <use xlink:href="#ArialMT-73" transform="translate(822.705078 0)"/>
      <use xlink:href="#ArialMT-20" transform="translate(872.705078 0)"/>
      <use xlink:href="#ArialMT-28" transform="translate(900.488281 0)"/>
      <use xlink:href="#ArialMT-64" transform="translate(933.789062 0)"/>
      <use xlink:href="#ArialMT-65" transform="translate(989.404297 0)"/>
      <use xlink:href="#ArialMT-6d" transform="translate(1045.019531 0)"/>
      <use xlink:href="#ArialMT-65" transform="translate(1128.320312 0)"/>
      <use xlink:href="#ArialMT-61" transform="translate(1183.935547 0)"/>
      <use xlink:href="#ArialMT-6e" transform="translate(1239.550781 0)"/>
      <use xlink:href="#ArialMT-65" transform="translate(1295.166016 0)"/>
      <use xlink:href="#ArialMT-64" transform="translate(1350.78125 0)"/>
      <use xlink:href="#ArialMT-29" transform="translate(1406.396484 0)"/>
     </g>
    </g>
   </g>
   <g id="PathCollection_2">
    <g clip-path="url(#p91211ed092)">
     <use xlink:href="#m55938e6413" x="496.325852" y="267.410165" style="fill: #4682b4; fill-opacity: 0.9; stroke: #4682b4; stroke-opacity: 0.9; stroke-width: 0.375233"/>
     <use xlink:href="#m55938e6413" x="549.867773" y="220.07836" style="fill: #4682b4; fill-opacity: 0.9; stroke: #4682b4; stroke-opacity: 0.9; stroke-width: 0.375233"/>
     <use xlink:href="#m55938e6413" x="573.404945" y="219.277374" style="fill: #4682b4; fill-opacity: 0.9; stroke: #4682b4; stroke-opacity: 0.9; stroke-width: 0.375233"/>
     <use xlink:href="#m55938e6413" x="588.214715" y="223.361699" style="fill: #4682b4; fill-opacity: 0.9; stroke: #4682b4; stroke-opacity: 0.9; stroke-width: 0.375233"/>
     <use xlink:href="#m55938e6413" x="600.297" y="200.474874" style="fill: #4682b4; fill-opacity: 0.9; stroke: #4682b4; stroke-opacity: 0.9; stroke-width: 0.375233"/>
     <use xlink:href="#m55938e6413" x="610.139596" y="196.487208" style="fill: #4682b4; fill-opacity: 0.9; stroke: #4682b4; stroke-opacity: 0.9; stroke-width: 0.375233"/>
     <use xlink:href="#m55938e6413" x="618.697351" y="171.470467" style="fill: #4682b4; fill-opacity: 0.9; stroke: #4682b4; stroke-opacity: 0.9; stroke-width: 0.375233"/>
     <use xlink:href="#m55938e6413" x="626.057647" y="171.046622" style="fill: #4682b4; fill-opacity: 0.9; stroke: #4682b4; stroke-opacity: 0.9; stroke-width: 0.375233"/>
     <use xlink:href="#m55938e6413" x="632.807751" y="153.795519" style="fill: #4682b4; fill-opacity: 0.9; stroke: #4682b4; stroke-opacity: 0.9; stroke-width: 0.375233"/>
     <use xlink:href="#m55938e6413" x="639.174233" y="164.532476" style="fill: #4682b4; fill-opacity: 0.9; stroke: #4682b4; stroke-opacity: 0.9; stroke-width: 0.375233"/>
     <use xlink:href="#m55938e6413" x="644.958867" y="153.042769" style="fill: #4682b4; fill-opacity: 0.9; stroke: #4682b4; stroke-opacity: 0.9; stroke-width: 0.375233"/>
     <use xlink:href="#m55938e6413" x="649.957459" y="156.950343" style="fill: #4682b4; fill-opacity: 0.9; stroke: #4682b4; stroke-opacity: 0.9; stroke-width: 0.375233"/>
     <use xlink:href="#m55938e6413" x="654.782803" y="161.565581" style="fill: #4682b4; fill-opacity: 0.9; stroke: #4682b4; stroke-opacity: 0.9; stroke-width: 0.375233"/>
     <use xlink:href="#m55938e6413" x="659.626799" y="162.512382" style="fill: #4682b4; fill-opacity: 0.9; stroke: #4682b4; stroke-opacity: 0.9; stroke-width: 0.375233"/>
     <use xlink:href="#m55938e6413" x="664.33144" y="148.084872" style="fill: #4682b4; fill-opacity: 0.9; stroke: #4682b4; stroke-opacity: 0.9; stroke-width: 0.375233"/>
     <use xlink:href="#m55938e6413" x="668.913877" y="142.419583" style="fill: #4682b4; fill-opacity: 0.9; stroke: #4682b4; stroke-opacity: 0.9; stroke-width: 0.375233"/>
     <use xlink:href="#m55938e6413" x="673.42801" y="125.766775" style="fill: #4682b4; fill-opacity: 0.9; stroke: #4682b4; stroke-opacity: 0.9; stroke-width: 0.375233"/>
     <use xlink:href="#m55938e6413" x="677.669607" y="130.330327" style="fill: #4682b4; fill-opacity: 0.9; stroke: #4682b4; stroke-opacity: 0.9; stroke-width: 0.375233"/>
     <use xlink:href="#m55938e6413" x="681.915727" y="111.796687" style="fill: #4682b4; fill-opacity: 0.9; stroke: #4682b4; stroke-opacity: 0.9; stroke-width: 0.375233"/>
     <use xlink:href="#m55938e6413" x="686.242433" y="127.693138" style="fill: #4682b4; fill-opacity: 0.9; stroke: #4682b4; stroke-opacity: 0.9; stroke-width: 0.375233"/>
     <use xlink:href="#m55938e6413" x="690.598092" y="139.532247" style="fill: #4682b4; fill-opacity: 0.9; stroke: #4682b4; stroke-opacity: 0.9; stroke-width: 0.375233"/>
     <use xlink:href="#m55938e6413" x="695.073301" y="134.88627" style="fill: #4682b4; fill-opacity: 0.9; stroke: #4682b4; stroke-opacity: 0.9; stroke-width: 0.375233"/>
     <use xlink:href="#m55938e6413" x="699.676496" y="156.491517" style="fill: #4682b4; fill-opacity: 0.9; stroke: #4682b4; stroke-opacity: 0.9; stroke-width: 0.375233"/>
     <use xlink:href="#m55938e6413" x="703.992414" y="129.367165" style="fill: #4682b4; fill-opacity: 0.9; stroke: #4682b4; stroke-opacity: 0.9; stroke-width: 0.375233"/>
     <use xlink:href="#m55938e6413" x="708.090293" y="140.910758" style="fill: #4682b4; fill-opacity: 0.9; stroke: #4682b4; stroke-opacity: 0.9; stroke-width: 0.375233"/>
     <use xlink:href="#m55938e6413" x="712.144074" y="131.274311" style="fill: #4682b4; fill-opacity: 0.9; stroke: #4682b4; stroke-opacity: 0.9; stroke-width: 0.375233"/>
     <use xlink:href="#m55938e6413" x="716.091024" y="132.307874" style="fill: #4682b4; fill-opacity: 0.9; stroke: #4682b4; stroke-opacity: 0.9; stroke-width: 0.375233"/>
     <use xlink:href="#m55938e6413" x="720.053032" y="110.551461" style="fill: #4682b4; fill-opacity: 0.9; stroke: #4682b4; stroke-opacity: 0.9; stroke-width: 0.375233"/>
     <use xlink:href="#m55938e6413" x="724.037262" y="119.415903" style="fill: #4682b4; fill-opacity: 0.9; stroke: #4682b4; stroke-opacity: 0.9; stroke-width: 0.375233"/>
     <use xlink:href="#m55938e6413" x="728.344208" y="119.224369" style="fill: #4682b4; fill-opacity: 0.9; stroke: #4682b4; stroke-opacity: 0.9; stroke-width: 0.375233"/>
     <use xlink:href="#m55938e6413" x="732.856612" y="121.04378" style="fill: #4682b4; fill-opacity: 0.9; stroke: #4682b4; stroke-opacity: 0.9; stroke-width: 0.375233"/>
     <use xlink:href="#m55938e6413" x="737.571055" y="110.394785" style="fill: #4682b4; fill-opacity: 0.9; stroke: #4682b4; stroke-opacity: 0.9; stroke-width: 0.375233"/>
     <use xlink:href="#m55938e6413" x="742.965872" y="118.077925" style="fill: #4682b4; fill-opacity: 0.9; stroke: #4682b4; stroke-opacity: 0.9; stroke-width: 0.375233"/>
     <use xlink:href="#m55938e6413" x="749.129181" y="104.996798" style="fill: #4682b4; fill-opacity: 0.9; stroke: #4682b4; stroke-opacity: 0.9; stroke-width: 0.375233"/>
     <use xlink:href="#m55938e6413" x="755.995048" y="125.3174" style="fill: #4682b4; fill-opacity: 0.9; stroke: #4682b4; stroke-opacity: 0.9; stroke-width: 0.375233"/>
     <use xlink:href="#m55938e6413" x="763.582556" y="88.636028" style="fill: #4682b4; fill-opacity: 0.9; stroke: #4682b4; stroke-opacity: 0.9; stroke-width: 0.375233"/>
     <use xlink:href="#m55938e6413" x="772.080996" y="91.731731" style="fill: #4682b4; fill-opacity: 0.9; stroke: #4682b4; stroke-opacity: 0.9; stroke-width: 0.375233"/>
     <use xlink:href="#m55938e6413" x="782.670919" y="95.123232" style="fill: #4682b4; fill-opacity: 0.9; stroke: #4682b4; stroke-opacity: 0.9; stroke-width: 0.375233"/>
     <use xlink:href="#m55938e6413" x="798.89247" y="112.179517" style="fill: #4682b4; fill-opacity: 0.9; stroke: #4682b4; stroke-opacity: 0.9; stroke-width: 0.375233"/>
     <use xlink:href="#m55938e6413" x="833.124148" y="59.27096" style="fill: #4682b4; fill-opacity: 0.9; stroke: #4682b4; stroke-opacity: 0.9; stroke-width: 0.375233"/>
    </g>
   </g>
   <g id="line2d_36">
    <path d="M 496.325852 249.572047 
L 499.727855 247.654229 
L 503.129858 245.73641 
L 506.531861 243.818592 
L 509.933864 241.900774 
L 513.335867 239.982955 
L 516.73787 238.065137 
L 520.139873 236.147318 
L 523.541876 234.2295 
L 526.943879 232.311681 
L 530.345882 230.393863 
L 533.747885 228.476044 
L 537.149888 226.558226 
L 540.551891 224.640407 
L 543.953894 222.722589 
L 547.355897 220.80477 
L 550.7579 218.886952 
L 554.159903 216.969133 
L 557.561906 215.051315 
L 560.963909 213.133496 
L 564.365912 211.215678 
L 567.767915 209.297859 
L 571.169918 207.380041 
L 574.571921 205.462222 
L 577.973924 203.544404 
L 581.375927 201.626585 
L 584.77793 199.708767 
L 588.179933 197.790949 
L 591.581936 195.87313 
L 594.983939 193.955312 
L 598.385942 192.037493 
L 601.787945 190.119675 
L 605.189948 188.201856 
L 608.591951 186.284038 
L 611.993954 184.366219 
L 615.395957 182.448401 
L 618.79796 180.530582 
L 622.199963 178.612764 
L 625.601966 176.694945 
L 629.003969 174.777127 
L 632.405972 172.859308 
L 635.807975 170.94149 
L 639.209978 169.023671 
L 642.611981 167.105853 
L 646.013984 165.188034 
L 649.415987 163.270216 
L 652.81799 161.352397 
L 656.219993 159.434579 
L 659.621996 157.51676 
L 663.023999 155.598942 
L 666.426001 153.681124 
L 669.828004 151.763305 
L 673.230007 149.845487 
L 676.63201 147.927668 
L 680.034013 146.00985 
L 683.436016 144.092031 
L 686.838019 142.174213 
L 690.240022 140.256394 
L 693.642025 138.338576 
L 697.044028 136.420757 
L 700.446031 134.502939 
L 703.848034 132.58512 
L 707.250037 130.667302 
L 710.65204 128.749483 
L 714.054043 126.831665 
L 717.456046 124.913846 
L 720.858049 122.996028 
L 724.260052 121.078209 
L 727.662055 119.160391 
L 731.064058 117.242572 
L 734.466061 115.324754 
L 737.868064 113.406935 
L 741.270067 111.489117 
L 744.67207 109.571299 
L 748.074073 107.65348 
L 751.476076 105.735662 
L 754.878079 103.817843 
L 758.280082 101.900025 
L 761.682085 99.982206 
L 765.084088 98.064388 
L 768.486091 96.146569 
L 771.888094 94.228751 
L 775.290097 92.310932 
L 778.6921 90.393114 
L 782.094103 88.475295 
L 785.496106 86.557477 
L 788.898109 84.639658 
L 792.300112 82.72184 
L 795.702115 80.804021 
L 799.104118 78.886203 
L 802.506121 76.968384 
L 805.908124 75.050566 
L 809.310127 73.132747 
L 812.71213 71.214929 
L 816.114133 69.29711 
L 819.516136 67.379292 
L 822.918139 65.461474 
L 826.320142 63.543655 
L 829.722145 61.625837 
L 833.124148 59.708018 
" clip-path="url(#p91211ed092)" style="fill: none; stroke-dasharray: 5.92,2.56; stroke-dashoffset: 0; stroke: #dc143c; stroke-width: 1.6"/>
   </g>
   <g id="line2d_37">
    <path d="M 479.485938 143.720843 
L 849.964063 143.720843 
" clip-path="url(#p91211ed092)" style="fill: none; stroke-dasharray: 0.7,1.155; stroke-dashoffset: 0; stroke: #bbbbbb; stroke-width: 0.7"/>
   </g>
   <g id="line2d_38">
    <path d="M 684.094456 277.817125 
L 684.094456 48.864 
" clip-path="url(#p91211ed092)" style="fill: none; stroke-dasharray: 0.7,1.155; stroke-dashoffset: 0; stroke: #bbbbbb; stroke-width: 0.7"/>
   </g>
   <g id="patch_7">
    <path d="M 479.485938 277.817125 
L 479.485938 48.864 
" style="fill: none; stroke: #ffffff; stroke-width: 0.8; stroke-linejoin: miter; stroke-linecap: square"/>
   </g>
   <g id="patch_8">
    <path d="M 479.485938 277.817125 
L 849.964063 277.817125 
" style="fill: none; stroke: #ffffff; stroke-width: 0.8; stroke-linejoin: miter; stroke-linecap: square"/>
   </g>
   <g id="text_38">
    <!-- Second stage -->
    <g style="fill: #ffffff" transform="translate(628.033125 42.864) scale(0.12 -0.12)">
     <defs>
      <path id="ArialMT-53" d="M 288 1472 
L 859 1522 
Q 900 1178 1048 958 
Q 1197 738 1509 602 
Q 1822 466 2213 466 
Q 2559 466 2825 569 
Q 3091 672 3220 851 
Q 3350 1031 3350 1244 
Q 3350 1459 3225 1620 
Q 3100 1781 2813 1891 
Q 2628 1963 1997 2114 
Q 1366 2266 1113 2400 
Q 784 2572 623 2826 
Q 463 3081 463 3397 
Q 463 3744 659 4045 
Q 856 4347 1234 4503 
Q 1613 4659 2075 4659 
Q 2584 4659 2973 4495 
Q 3363 4331 3572 4012 
Q 3781 3694 3797 3291 
L 3216 3247 
Q 3169 3681 2898 3903 
Q 2628 4125 2100 4125 
Q 1550 4125 1298 3923 
Q 1047 3722 1047 3438 
Q 1047 3191 1225 3031 
Q 1400 2872 2139 2705 
Q 2878 2538 3153 2413 
Q 3553 2228 3743 1945 
Q 3934 1663 3934 1294 
Q 3934 928 3725 604 
Q 3516 281 3123 101 
Q 2731 -78 2241 -78 
Q 1619 -78 1198 103 
Q 778 284 539 648 
Q 300 1013 288 1472 
z
" transform="scale(0.015625)"/>
     </defs>
     <use xlink:href="#ArialMT-53"/>
     <use xlink:href="#ArialMT-65" transform="translate(66.699219 0)"/>
     <use xlink:href="#ArialMT-63" transform="translate(122.314453 0)"/>
     <use xlink:href="#ArialMT-6f" transform="translate(172.314453 0)"/>
     <use xlink:href="#ArialMT-6e" transform="translate(227.929688 0)"/>
     <use xlink:href="#ArialMT-64" transform="translate(283.544922 0)"/>
     <use xlink:href="#ArialMT-20" transform="translate(339.160156 0)"/>
     <use xlink:href="#ArialMT-73" transform="translate(366.943359 0)"/>
     <use xlink:href="#ArialMT-74" transform="translate(416.943359 0)"/>
     <use xlink:href="#ArialMT-61" transform="translate(444.726562 0)"/>
     <use xlink:href="#ArialMT-67" transform="translate(500.341797 0)"/>
     <use xlink:href="#ArialMT-65" transform="translate(555.957031 0)"/>
    </g>
   </g>
   <g id="legend_2">
    <g id="patch_9">
     <path d="M 841.164063 59.264 
L 844.364063 59.264 
Q 845.964063 59.264 845.964063 57.664 
L 845.964063 54.464 
Q 845.964063 52.864 844.364063 52.864 
L 841.164063 52.864 
Q 839.564063 52.864 839.564063 54.464 
L 839.564063 57.664 
Q 839.564063 59.264 841.164063 59.264 
z
" style="opacity: 0.8; stroke: #cccccc; stroke-linejoin: miter"/>
    </g>
   </g>
  </g>
  <g id="text_39">
   <!-- Figure 3: Functional form checks -->
   <g style="fill: #ffffff" transform="translate(341.735 15.935625) scale(0.12 -0.12)">
    <defs>
     <path id="ArialMT-33" d="M 269 1209 
L 831 1284 
Q 928 806 1161 595 
Q 1394 384 1728 384 
Q 2125 384 2398 659 
Q 2672 934 2672 1341 
Q 2672 1728 2419 1979 
Q 2166 2231 1775 2231 
Q 1616 2231 1378 2169 
L 1441 2663 
Q 1497 2656 1531 2656 
Q 1891 2656 2178 2843 
Q 2466 3031 2466 3422 
Q 2466 3731 2256 3934 
Q 2047 4138 1716 4138 
Q 1388 4138 1169 3931 
Q 950 3725 888 3313 
L 325 3413 
Q 428 3978 793 4289 
Q 1159 4600 1703 4600 
Q 2078 4600 2393 4439 
Q 2709 4278 2876 4000 
Q 3044 3722 3044 3409 
Q 3044 3113 2884 2869 
Q 2725 2625 2413 2481 
Q 2819 2388 3044 2092 
Q 3269 1797 3269 1353 
Q 3269 753 2831 336 
Q 2394 -81 1725 -81 
Q 1122 -81 723 278 
Q 325 638 269 1209 
z
" transform="scale(0.015625)"/>
     <path id="ArialMT-3a" d="M 578 2678 
L 578 3319 
L 1219 3319 
L 1219 2678 
L 578 2678 
z
M 578 0 
L 578 641 
L 1219 641 
L 1219 0 
L 578 0 
z
" transform="scale(0.015625)"/>
     <path id="ArialMT-66" d="M 556 0 
L 556 2881 
L 59 2881 
L 59 3319 
L 556 3319 
L 556 3672 
Q 556 4006 616 4169 
Q 697 4388 901 4523 
Q 1106 4659 1475 4659 
Q 1713 4659 2000 4603 
L 1916 4113 
Q 1741 4144 1584 4144 
Q 1328 4144 1222 4034 
Q 1116 3925 1116 3625 
L 1116 3319 
L 1763 3319 
L 1763 2881 
L 1116 2881 
L 1116 0 
L 556 0 
z
" transform="scale(0.015625)"/>
     <path id="ArialMT-68" d="M 422 0 
L 422 4581 
L 984 4581 
L 984 2938 
Q 1378 3394 1978 3394 
Q 2347 3394 2619 3248 
Q 2891 3103 3008 2847 
Q 3125 2591 3125 2103 
L 3125 0 
L 2563 0 
L 2563 2103 
Q 2563 2525 2380 2717 
Q 2197 2909 1863 2909 
Q 1613 2909 1392 2779 
Q 1172 2650 1078 2428 
Q 984 2206 984 1816 
L 984 0 
L 422 0 
z
" transform="scale(0.015625)"/>
     <path id="ArialMT-6b" d="M 425 0 
L 425 4581 
L 988 4581 
L 988 1969 
L 2319 3319 
L 3047 3319 
L 1778 2088 
L 3175 0 
L 2481 0 
L 1384 1697 
L 988 1316 
L 988 0 
L 425 0 
z
" transform="scale(0.015625)"/>
    </defs>
    <use xlink:href="#ArialMT-46"/>
    <use xlink:href="#ArialMT-69" transform="translate(61.083984 0)"/>
    <use xlink:href="#ArialMT-67" transform="translate(83.300781 0)"/>
    <use xlink:href="#ArialMT-75" transform="translate(138.916016 0)"/>
    <use xlink:href="#ArialMT-72" transform="translate(194.53125 0)"/>
    <use xlink:href="#ArialMT-65" transform="translate(227.832031 0)"/>
    <use xlink:href="#ArialMT-20" transform="translate(283.447266 0)"/>
    <use xlink:href="#ArialMT-33" transform="translate(311.230469 0)"/>
    <use xlink:href="#ArialMT-3a" transform="translate(366.845703 0)"/>
    <use xlink:href="#ArialMT-20" transform="translate(394.628906 0)"/>
    <use xlink:href="#ArialMT-46" transform="translate(422.412109 0)"/>
    <use xlink:href="#ArialMT-75" transform="translate(483.496094 0)"/>
    <use xlink:href="#ArialMT-6e" transform="translate(539.111328 0)"/>
    <use xlink:href="#ArialMT-63" transform="translate(594.726562 0)"/>
    <use xlink:href="#ArialMT-74" transform="translate(644.726562 0)"/>
    <use xlink:href="#ArialMT-69" transform="translate(672.509766 0)"/>
    <use xlink:href="#ArialMT-6f" transform="translate(694.726562 0)"/>
    <use xlink:href="#ArialMT-6e" transform="translate(750.341797 0)"/>
    <use xlink:href="#ArialMT-61" transform="translate(805.957031 0)"/>
    <use xlink:href="#ArialMT-6c" transform="translate(861.572266 0)"/>
    <use xlink:href="#ArialMT-20" transform="translate(883.789062 0)"/>
    <use xlink:href="#ArialMT-66" transform="translate(911.572266 0)"/>
    <use xlink:href="#ArialMT-6f" transform="translate(939.355469 0)"/>
    <use xlink:href="#ArialMT-72" transform="translate(994.970703 0)"/>
    <use xlink:href="#ArialMT-6d" transform="translate(1028.271484 0)"/>
    <use xlink:href="#ArialMT-20" transform="translate(1111.572266 0)"/>
    <use xlink:href="#ArialMT-63" transform="translate(1139.355469 0)"/>
    <use xlink:href="#ArialMT-68" transform="translate(1189.355469 0)"/>
    <use xlink:href="#ArialMT-65" transform="translate(1244.970703 0)"/>
    <use xlink:href="#ArialMT-63" transform="translate(1300.585938 0)"/>
    <use xlink:href="#ArialMT-6b" transform="translate(1350.585938 0)"/>
    <use xlink:href="#ArialMT-73" transform="translate(1400.585938 0)"/>
   </g>
  </g>
 </g>
 <defs>
  <clipPath id="p136d85b9a1">
   <rect x="52.885938" y="48.864" width="370.478125" height="228.953125"/>
  </clipPath>
  <clipPath id="p91211ed092">
   <rect x="479.485938" y="48.864" width="370.478125" height="228.953125"/>
  </clipPath>
 </defs>
</svg>
